%FSLAX23Y23*%
%MOIN*%
G04 EasyPC Gerber Version 16.0.6 Build 3249 *
%ADD167O,0.02575X0.02969*%
%ADD135O,0.07000X0.12000*%
%ADD163R,0.02969X0.09268*%
%ADD159R,0.04937X0.05291*%
%ADD157R,0.05000X0.05800*%
%ADD152R,0.06500X0.07000*%
%ADD158R,0.06500X0.09000*%
%ADD134R,0.07000X0.12000*%
%ADD151R,0.08100X0.13200*%
%ADD164R,0.08874X0.22654*%
%ADD126R,0.07000X0.07000*%
%ADD165R,0.07300X0.07300*%
%ADD132R,0.08500X0.08500*%
%ADD153R,0.08874X0.08874*%
%ADD127C,0.07000*%
%ADD131C,0.07000*%
%ADD136C,0.08000*%
%ADD125C,0.08000*%
%ADD133C,0.08500*%
%ADD128C,0.08874*%
%ADD166C,0.08874*%
%ADD129C,0.09600*%
%ADD130C,0.14386*%
%ADD161R,0.05600X0.02400*%
%ADD162R,0.09268X0.02969*%
%ADD154R,0.08800X0.03200*%
%ADD150R,0.09000X0.03500*%
%ADD155R,0.07000X0.06500*%
%ADD156R,0.09000X0.06500*%
%ADD160R,0.13600X0.08000*%
%ADD124C,0.16748*%
X0Y0D02*
D02*
D124*
X593Y1362D03*
Y3716D03*
X790Y3996D03*
X1577D03*
X2365D03*
X3152D03*
X3349Y1362D03*
Y3716D03*
D02*
D125*
X1871Y3756D03*
X1971D03*
X2071D03*
D02*
D126*
X357Y1016D03*
X1924Y2000D03*
X2065D03*
X2199D03*
X2550Y2150D03*
X3050Y1779D03*
X3184D03*
X3321D03*
X3632Y2252D03*
X3731Y3090D03*
Y3307D03*
Y3551D03*
X3754Y2252D03*
D02*
D127*
X457Y1016D03*
X557D03*
X657D03*
X757D03*
X3585Y929D03*
Y1027D03*
X3664Y929D03*
Y1027D03*
X3731Y2990D03*
Y3451D03*
D02*
D128*
X317Y2504D03*
X2247Y2862D03*
Y3161D03*
X2995D03*
X3121Y2862D03*
X3247Y3161D03*
D02*
D129*
X1975Y2720D03*
Y3220D03*
X3077Y3449D03*
X3577D03*
D02*
D130*
X3770Y742D03*
Y1215D03*
D02*
D131*
X1133Y1228D03*
X1233Y1128D03*
X1333Y1228D03*
X2636Y3398D03*
Y3473D03*
Y3548D03*
D02*
D132*
X1520Y2048D03*
D02*
D133*
Y1848D03*
Y1948D03*
X1620Y1848D03*
Y1948D03*
Y2048D03*
D02*
D134*
X1188Y850D03*
D02*
D135*
X1288D03*
X1388D03*
X1488D03*
X1588D03*
X1688D03*
X1788D03*
X1888D03*
X1988D03*
X2088D03*
X2188D03*
X2288D03*
X2388D03*
X2488D03*
X2588D03*
X2688D03*
D02*
D136*
X1707Y1114D03*
Y1350D03*
X1884Y1114D03*
Y1350D03*
D02*
D150*
X3286Y2149D03*
Y2199D03*
Y2249D03*
Y2299D03*
Y2349D03*
Y2399D03*
Y2449D03*
X3506Y2149D03*
Y2199D03*
Y2249D03*
Y2299D03*
Y2349D03*
Y2399D03*
Y2449D03*
D02*
D151*
X786Y1606D03*
Y1803D03*
Y2000D03*
Y2197D03*
Y2394D03*
Y2590D03*
Y2787D03*
Y2984D03*
Y3181D03*
Y3378D03*
X1006Y1606D03*
Y1803D03*
Y2000D03*
Y2197D03*
Y2394D03*
Y2590D03*
Y2787D03*
Y2984D03*
Y3181D03*
Y3378D03*
D02*
D152*
X231Y809D03*
Y899D03*
X341Y809D03*
Y899D03*
X447Y809D03*
Y899D03*
X558Y809D03*
Y899D03*
X668Y809D03*
Y899D03*
X778Y809D03*
Y899D03*
X892Y809D03*
Y899D03*
X1404Y2479D03*
Y2569D03*
X1467Y1219D03*
Y1309D03*
X1506Y2479D03*
Y2569D03*
X1609Y2479D03*
Y2569D03*
X1711Y2479D03*
Y2569D03*
X1928Y2140D03*
Y2230D03*
Y2479D03*
Y2569D03*
X2026Y2140D03*
Y2230D03*
X2030Y2479D03*
Y2569D03*
X2384Y3412D03*
Y3502D03*
Y3624D03*
Y3714D03*
X2392Y1959D03*
Y2049D03*
X2695Y1963D03*
Y2053D03*
X3030Y979D03*
Y1069D03*
X3081Y2545D03*
Y2635D03*
X3113Y1963D03*
Y2053D03*
Y2278D03*
Y2368D03*
X3148Y979D03*
Y1069D03*
X3188Y1368D03*
Y1458D03*
X3195Y2545D03*
Y2635D03*
X3227Y1963D03*
Y2053D03*
X3298Y2545D03*
Y2635D03*
X3530Y2833D03*
Y2923D03*
X3538Y1431D03*
Y1521D03*
Y1628D03*
Y1718D03*
D02*
D153*
X317Y2701D03*
D02*
D154*
X2177Y2149D03*
Y2199D03*
Y2249D03*
Y2299D03*
Y2349D03*
Y2399D03*
Y2449D03*
X2363Y2149D03*
Y2199D03*
Y2249D03*
Y2299D03*
Y2349D03*
Y2399D03*
Y2449D03*
X2732Y2149D03*
Y2199D03*
Y2249D03*
Y2299D03*
Y2349D03*
Y2399D03*
Y2449D03*
X2918Y2149D03*
Y2199D03*
Y2249D03*
Y2299D03*
Y2349D03*
Y2399D03*
Y2449D03*
D02*
D155*
X1611Y1461D03*
Y1579D03*
X1701Y1461D03*
Y1579D03*
X1828Y1461D03*
Y1579D03*
X1918Y1461D03*
Y1579D03*
X1981Y1740D03*
X1993Y1216D03*
X2071Y1740D03*
X2083Y1216D03*
X2225Y2547D03*
X2315D03*
X2347Y1216D03*
X2437D03*
X2509Y2425D03*
X2599D03*
X2686Y1839D03*
X2706Y1039D03*
X2776Y1839D03*
X2796Y1039D03*
X2800Y3472D03*
X2890D03*
X3028Y748D03*
X3118D03*
X3395Y2035D03*
X3485D03*
X3666Y1858D03*
X3756D03*
D02*
D156*
X2774Y2548D03*
X2884Y2547D03*
X3644Y1968D03*
X3754Y1967D03*
D02*
D157*
X2514Y2055D03*
X2554Y1968D03*
X2594Y2055D03*
D02*
D158*
X3529Y3091D03*
X3530Y3201D03*
D02*
D159*
X2928Y973D03*
Y1043D03*
X3258Y973D03*
Y1043D03*
D02*
D160*
X3754Y1471D03*
Y1671D03*
D02*
D161*
X1142Y4211D03*
Y4236D03*
Y4262D03*
X1225Y4211D03*
Y4262D03*
X2717Y4211D03*
Y4236D03*
Y4262D03*
X2800Y4211D03*
Y4262D03*
D02*
D162*
X2447Y1307D03*
Y1339D03*
Y1370D03*
Y1402D03*
Y1433D03*
Y1464D03*
Y1496D03*
Y1527D03*
Y1559D03*
Y1590D03*
Y1622D03*
X2912Y1307D03*
Y1339D03*
Y1370D03*
Y1402D03*
Y1433D03*
Y1464D03*
Y1496D03*
Y1527D03*
Y1559D03*
Y1590D03*
Y1622D03*
D02*
D163*
X2522Y1232D03*
Y1697D03*
X2554Y1232D03*
Y1697D03*
X2585Y1232D03*
Y1697D03*
X2617Y1232D03*
Y1697D03*
X2648Y1232D03*
Y1697D03*
X2680Y1232D03*
Y1697D03*
X2711Y1232D03*
Y1697D03*
X2743Y1232D03*
Y1697D03*
X2774Y1232D03*
Y1697D03*
X2806Y1232D03*
Y1697D03*
X2837Y1232D03*
Y1697D03*
D02*
D164*
X2219Y1291D03*
Y1665D03*
D02*
D165*
X1585Y1181D03*
Y1315D03*
D02*
D166*
X380Y2011D03*
D02*
D167*
X1660Y3134D03*
X0Y0D02*
M02*
