%FSLAX23Y23*%
%MOIN*%
G04 EasyPC Gerber Version 16.0.6 Build 3249 *
%ADD22O,0.06000X0.11000*%
%ADD21R,0.06000X0.11000*%
%ADD19R,0.06000X0.06000*%
%ADD71R,0.07500X0.07500*%
%ADD14R,0.07874X0.07874*%
%ADD10C,0.00500*%
%ADD11C,0.01000*%
%ADD25C,0.01500*%
%ADD27C,0.02500*%
%ADD28C,0.03189*%
%ADD24C,0.04800*%
%ADD29C,0.05000*%
%ADD26C,0.05591*%
%ADD17C,0.06000*%
%ADD70C,0.06000*%
%ADD23C,0.07000*%
%ADD13C,0.07000*%
%ADD20C,0.07500*%
%ADD15C,0.07874*%
%ADD16C,0.08600*%
%ADD18C,0.13386*%
%ADD12C,0.15748*%
%ADD72C,0.31496*%
X0Y0D02*
D02*
D10*
X28Y596D02*
X3915D01*
Y4483*
X28*
Y596*
X266Y2504D02*
G75*
G02X369I52D01*
G01*
G75*
G02X266I-52*
G01*
X314Y973D02*
Y1058D01*
X399*
Y973*
X314*
X414Y2655D02*
G75*
G02X147Y2795I-96J140D01*
G01*
Y2996*
G75*
G02X197Y3116I170J0*
G01*
X697Y3616*
G75*
G02X817Y3666I120J-120*
G01*
X1846*
G75*
G02X1919Y3704I113J-127*
G01*
Y3742*
G75*
G02X1918Y3749I52J13*
G01*
G75*
G02X1871Y3708I-47J7*
G01*
G75*
G02Y3803J48*
G01*
G75*
G02X1918Y3763J-48*
G01*
G75*
G02X1951Y3806I53J-7*
G01*
Y3819*
G75*
G02X1957Y3833I20*
G01*
X1969Y3845*
G75*
G02X1983Y3851I14J-14*
G01*
X2318*
G75*
G02X2385Y3831I31J-20*
G01*
G75*
G02X2318Y3811I-37*
G01*
X1991*
X1991Y3811*
Y3806*
G75*
G02X2024Y3763I-20J-50*
G01*
G75*
G02X2071Y3803I47J-7*
G01*
G75*
G02Y3708J-48*
G01*
G75*
G02X2024Y3749J48*
G01*
G75*
G02X2023Y3742I-53J7*
G01*
Y3697*
G75*
G02X2079Y3419I-64J-158*
G01*
X2036Y3376*
G75*
G02X1916Y3326I-120J120*
G01*
X888*
X487Y2926*
Y2795*
G75*
G02X444Y2681I-170*
G01*
X704Y2422*
X1314*
G75*
G02X1382Y2402I31J-20*
G01*
G75*
G02X1314Y2382I-37*
G01*
X695*
G75*
G02X681Y2387J20*
G01*
X414Y2655*
X414Y1016D02*
G75*
G02X499I43D01*
G01*
G75*
G02X414I-43*
G01*
X502Y1362D02*
G75*
G02X684I91D01*
G01*
G75*
G02X502I-91*
G01*
Y3716D02*
G75*
G02X684I91D01*
G01*
G75*
G02X502I-91*
G01*
X514Y760D02*
G75*
G02X526Y764I12J-16D01*
G01*
X939*
X1026Y851*
Y949*
G75*
G02X1028Y958I20J0*
G01*
X1005Y935*
G75*
G02X1015Y909I-26J-25*
G01*
G75*
G02X942I-37*
G01*
G75*
G02X955Y937I36*
G01*
G75*
G02X951Y937I-4J20*
G01*
X716*
G75*
G02X702Y942J20*
G01*
X669Y975*
G75*
G02X614Y1016I-12J41*
G01*
G75*
G02X699I43*
G01*
G75*
G02X697Y1003I-43J0*
G01*
X724Y977*
X740*
G75*
G02X714Y1016I17J39*
G01*
G75*
G02X799I43*
G01*
G75*
G02X774Y977I-43*
G01*
X943*
X1051Y1085*
G75*
G02X1065Y1091I14J-14*
G01*
X1213*
G75*
G02X1191Y1128I20J37*
G01*
G75*
G02X1276I43*
G01*
G75*
G02X1253Y1091I-43*
G01*
X1289*
X1508Y1309*
G75*
G02X1522Y1315I14J-14*
G01*
X1675*
G75*
G02X1724Y1395I32J35*
G01*
X1748Y1420*
G75*
G02X1762Y1425I14J-14*
G01*
X2220*
G75*
G02X2204Y1468I19J31*
G01*
G75*
G02X2163Y1504I-5J36*
G01*
G75*
G02X2207Y1540I37*
G01*
X2278Y1611*
Y1677*
G75*
G02X2284Y1691I20*
G01*
X2343Y1750*
G75*
G02X2357Y1756I14J-14*
G01*
X2385*
G75*
G02X2392Y1763I31J-20*
G01*
X2286*
G75*
G02X2272Y1769J20*
G01*
X2195Y1846*
X1763*
X1686Y1769*
G75*
G02X1672Y1763I-14J14*
G01*
X1479*
G75*
G02X1465Y1769J20*
G01*
X1437Y1797*
G75*
G02X1431Y1811I14J14*
G01*
Y1929*
G75*
G02X1437Y1943I20*
G01*
X1461Y1967*
G75*
G02X1475Y1973I14J-14*
G01*
X1476*
G75*
G02X1570Y1948I44J-24*
G01*
G75*
G02X1475Y1925I-50*
G01*
X1471Y1921*
Y1861*
G75*
G02X1570Y1848I48J-13*
G01*
G75*
G02X1542Y1803I-50*
G01*
X1598*
G75*
G02X1620Y1898I22J45*
G01*
G75*
G02X1641Y1803J-50*
G01*
X1664*
X1740Y1880*
G75*
G02X1754Y1886I14J-14*
G01*
X1824*
X1778Y1933*
X1667*
G75*
G02X1570Y1948I-47J16*
G01*
G75*
G02X1663Y1973I50*
G01*
X1786*
G75*
G02X1789Y1972I0J-20*
G01*
X1648Y2114*
X1613*
X1570Y2070*
Y1998*
X1470*
Y2098*
X1541*
X1591Y2148*
G75*
G02X1605Y2154I14J-14*
G01*
X1656*
G75*
G02X1670Y2148J-20*
G01*
X1877Y1941*
X2243*
G75*
G02X2257Y1935J-20*
G01*
X2311Y1882*
G75*
G02X2376Y1914I34J12*
G01*
X2555*
G75*
G02X2622Y1894I31J-20*
G01*
G75*
G02X2609Y1866I-37*
G01*
X2924*
G75*
G02X2938Y1861J-20*
G01*
X2999Y1799*
X3007*
Y1822*
X3092*
Y1744*
X3124*
X3138Y1758*
G75*
G02X3141Y1761I14J-14*
G01*
Y1822*
X3226*
Y1737*
X3177*
X3170Y1730*
G75*
G02X3161Y1725I-14J14*
G01*
X3153Y1717*
X3274*
X3294Y1737*
X3279*
Y1822*
X3364*
Y1737*
X3341*
Y1736*
G75*
G02X3336Y1722I-20*
G01*
X3296Y1683*
X3296Y1682*
X3318*
G75*
G02X3376Y1676I27J-25*
G01*
Y1740*
G75*
G02X3382Y1754I20*
G01*
X3461Y1833*
G75*
G02X3467Y1882I30J21*
G01*
G75*
G02X3438Y1917I8J36*
G01*
G75*
G02X3511I37*
G01*
G75*
G02X3499Y1890I-37J0*
G01*
G75*
G02X3526Y1847I-8J-36*
G01*
G75*
G02X3602Y1827I35J-20*
G01*
G75*
G02X3547Y1789I-40*
G01*
X3468Y1710*
Y1598*
G75*
G02X3461Y1581I-25*
G01*
X3397Y1517*
G75*
G02X3397Y1512I-40J-5*
G01*
G75*
G02X3316I-40*
G01*
G75*
G02X3350Y1552I40*
G01*
G75*
G02X3349Y1621I11J35*
G01*
G75*
G02X3318Y1632I-4J36*
G01*
X2947*
G75*
G02X2930Y1640J25*
G01*
X2917Y1652*
G75*
G02X2879Y1689I-1J36*
G01*
G75*
G02X2936Y1720I37*
G01*
X2892Y1763*
X2440*
G75*
G02X2452Y1736I-24J-27*
G01*
G75*
G02X2452Y1734I-36J0*
G01*
G75*
G02X2504Y1701I15J-33*
G01*
G75*
G02X2460Y1665I-37*
G01*
X2454Y1659*
G75*
G02X2440Y1653I-14J14*
G01*
X2361*
X2349Y1641*
Y1547*
G75*
G02X2343Y1533I-20*
G01*
X2274Y1464*
G75*
G02X2275Y1457I-36J-7*
G01*
G75*
G02X2275Y1450I-36J0*
G01*
X2457Y1632*
G75*
G02X2471Y1638I14J-14*
G01*
X2738*
G75*
G02X2787Y1618I20J-20*
G01*
G75*
G02X2738Y1598I-28*
G01*
X2692*
G75*
G02X2696Y1585I-24J-15*
G01*
G75*
G02X2733Y1546I11J-26*
G01*
G75*
G02X2750Y1527I-10J-27*
G01*
G75*
G02X2788Y1485I16J-24*
G01*
G75*
G02X2813Y1473I2J-28*
G01*
Y1576*
G75*
G02X2797Y1606I20J31*
G01*
G75*
G02X2870I37*
G01*
G75*
G02X2853Y1576I-37*
G01*
Y1465*
X2891Y1427*
G75*
G02X2897Y1413I-14J-14*
G01*
Y1276*
G75*
G02X2891Y1261I-20*
G01*
X2609Y980*
Y912*
G75*
G02X2630Y875I-22J-37*
G01*
Y825*
G75*
G02X2545I-43*
G01*
Y875*
G75*
G02X2569Y914I43*
G01*
Y988*
G75*
G02X2575Y1002I20*
G01*
X2857Y1284*
Y1369*
G75*
G02X2823Y1359I-23J16*
G01*
G75*
G02X2814Y1356I-9J15*
G01*
X2730*
X2721Y1347*
G75*
G02X2759Y1311I2J-36*
G01*
G75*
G02X2686I-37*
G01*
G75*
G02X2687Y1313I37J0*
G01*
X2508Y1135*
Y912*
G75*
G02X2530Y875I-21J-37*
G01*
Y825*
G75*
G02X2457Y796I-43*
G01*
Y756*
G75*
G02X2451Y741I-22*
G01*
X2404Y693*
G75*
G02X2388Y687I-15J15*
G01*
X1538*
G75*
G02X1523Y693J22*
G01*
X1471Y745*
G75*
G02X1465Y760I15J15*
G01*
Y789*
G75*
G02X1445Y825I22J36*
G01*
Y875*
G75*
G02X1530I43*
G01*
Y825*
G75*
G02X1508Y788I-43*
G01*
Y769*
X1547Y730*
X1701*
X1677Y754*
G75*
G02X1671Y768I14J14*
G01*
Y786*
G75*
G02X1645Y825I16J39*
G01*
Y875*
G75*
G02X1730I43*
G01*
Y825*
G75*
G02X1711Y790I-43*
G01*
Y776*
X1723Y764*
X2317*
X2317Y764*
Y795*
G75*
G02X2245Y825I-30J30*
G01*
Y875*
G75*
G02X2274Y916I43*
G01*
Y1134*
G75*
G02X2280Y1148I20*
G01*
X2516Y1384*
G75*
G02X2530Y1390I14J-14*
G01*
G75*
G02X2578Y1370I20J-20*
G01*
G75*
G02X2578Y1368I-28J0*
G01*
X2623Y1413*
X2538*
X2208Y1082*
Y913*
G75*
G02X2230Y875I-20J-38*
G01*
Y825*
G75*
G02X2145I-43*
G01*
Y875*
G75*
G02X2168Y913I43*
G01*
Y1090*
G75*
G02X2173Y1105I20*
G01*
X2261Y1193*
X1944*
G75*
G02X1872Y1197I-36J4*
G01*
G75*
G02X1880Y1220I37*
G01*
X1562*
X1336Y994*
G75*
G02X1321Y988I-14J14*
G01*
X1113*
X1066Y940*
Y842*
G75*
G02X1060Y828I-20*
G01*
X962Y730*
G75*
G02X947Y724I-14J14*
G01*
X543*
G75*
G02X470Y724I-37J0*
G01*
G75*
G02X514Y760I37*
G01*
X514Y1016D02*
G75*
G02X599I43D01*
G01*
G75*
G02X514I-43*
G01*
X699Y3996D02*
G75*
G02X881I91D01*
G01*
G75*
G02X699I-91*
G01*
X1009Y4264D02*
G75*
G02X1082I37D01*
G01*
G75*
G02X1009I-37*
G01*
X1145Y783D02*
Y918D01*
X1230*
Y783*
X1145*
X1176Y1228D02*
G75*
G02X1091I-43D01*
G01*
G75*
G02X1176I43*
G01*
X1245Y825D02*
Y875D01*
G75*
G02X1330I43*
G01*
Y825*
G75*
G02X1245I-43*
G01*
X1301Y2496D02*
G75*
G02X1374I37D01*
G01*
G75*
G02X1301I-37*
G01*
X1345Y825D02*
Y875D01*
G75*
G02X1430I43*
G01*
Y825*
G75*
G02X1345I-43*
G01*
X1376Y1228D02*
G75*
G02X1291I-43D01*
G01*
G75*
G02X1376I43*
G01*
X1419Y2669D02*
G75*
G02X1352Y2689I-31J20D01*
G01*
G75*
G02X1419Y2709I37*
G01*
X1660*
G75*
G02X1674Y2703J-20*
G01*
X1700Y2677*
X1940*
G75*
G02X1975Y2776I35J43*
G01*
G75*
G02X2010Y2677J-56*
G01*
X2896*
G75*
G02X2908Y2673J-20*
G01*
G75*
G02X2952Y2638I8J-36*
G01*
G75*
G02X2879Y2637I-37*
G01*
X2850*
X3038Y2449*
X3057*
G75*
G02X3045Y2476I24J27*
G01*
G75*
G02X3112Y2496I37*
G01*
X3361*
G75*
G02X3375Y2490J-20*
G01*
X3438Y2427*
G75*
G02X3444Y2413I-14J-14*
G01*
Y2304*
G75*
G02X3464Y2272I-16J-33*
G01*
G75*
G02X3391I-37*
G01*
G75*
G02X3404Y2299I37*
G01*
Y2361*
G75*
G02X3374Y2349I-27J24*
G01*
X3379Y2345*
G75*
G02X3385Y2331I-14J-14*
G01*
Y2208*
G75*
G02X3400Y2186I-20J-31*
G01*
G75*
G02X3472Y2177I35J-9*
G01*
G75*
G02X3439Y2141I-37*
G01*
X3414Y2116*
G75*
G02X3413Y2114I-14J14*
G01*
X3535*
G75*
G02X3602Y2094I31J-20*
G01*
G75*
G02X3535Y2074I-37*
G01*
X3180*
G75*
G02X3166Y2080J20*
G01*
X3065Y2181*
G75*
G02X3021Y2216I-7J36*
G01*
G75*
G02X3094I37*
G01*
G75*
G02X3093Y2209I-37*
G01*
X3188Y2114*
X3328*
G75*
G02X3327Y2116I13J15*
G01*
X3299Y2143*
G75*
G02X3294Y2157I14J14*
G01*
Y2326*
X3270Y2350*
X3003*
G75*
G02X2988Y2356J20*
G01*
X2801Y2543*
X2440*
X2284Y2387*
G75*
G02X2270Y2382I-14J14*
G01*
X2092*
G75*
G02X2025Y2402I-31J20*
G01*
G75*
G02X2092Y2422I37*
G01*
X2262*
X2415Y2574*
X2149*
G75*
G02X2076Y2579I-36J4*
G01*
G75*
G02X2094Y2610I37*
G01*
X1828*
G75*
G02X1830Y2602I-19J-8*
G01*
Y2586*
G75*
G02X1846Y2555I-20J-31*
G01*
G75*
G02X1773I-37*
G01*
G75*
G02X1790Y2586I37*
G01*
Y2594*
X1774Y2610*
X1774Y2610*
X1680*
G75*
G02X1666Y2616J20*
G01*
X1660Y2622*
X1651*
G75*
G02X1584Y2642I-31J20*
G01*
G75*
G02X1596Y2669I37*
G01*
X1419*
X1482Y1713D02*
G75*
G02X1555I37D01*
G01*
G75*
G02X1482I-37*
G01*
X1486Y3996D02*
G75*
G02X1669I91D01*
G01*
G75*
G02X1486I-91*
G01*
X1540Y2844D02*
X2073D01*
G75*
G02X2091Y2837J-25*
G01*
X2182Y2745*
X2330*
G75*
G02X2383I27J-25*
G01*
X2744*
G75*
G02X2797I27J-25*
G01*
X3051*
X3096Y2790*
Y2817*
G75*
G02X3069Y2862I25J45*
G01*
G75*
G02X3172I52*
G01*
G75*
G02X3146Y2817I-52*
G01*
Y2779*
G75*
G02X3138Y2762I-25*
G01*
X3079Y2703*
G75*
G02X3062Y2695I-18J18*
G01*
X2797*
G75*
G02X2744I-27J25*
G01*
X2383*
G75*
G02X2330I-27J25*
G01*
X2172*
G75*
G02X2154Y2703J25*
G01*
X2063Y2794*
X1548*
G75*
G02X1482Y2815I-30J21*
G01*
G75*
G02X1540Y2844I37*
G01*
X1545Y825D02*
Y875D01*
G75*
G02X1630I43*
G01*
Y825*
G75*
G02X1545I-43*
G01*
X1570Y2048D02*
G75*
G02X1670I50D01*
G01*
G75*
G02X1620Y1998I-50*
G01*
G75*
G02X1570Y2048J50*
G01*
X1707Y1162D02*
G75*
G02Y1067J-48D01*
G01*
G75*
G02Y1162J48*
G01*
X1730Y2335D02*
G75*
G02X1803I37D01*
G01*
G75*
G02X1730I-37*
G01*
X1745Y825D02*
Y875D01*
G75*
G02X1830I43*
G01*
Y825*
G75*
G02X1745I-43*
G01*
X1845D02*
Y875D01*
G75*
G02X1930I43*
G01*
Y825*
G75*
G02X1845I-43*
G01*
X1868Y1772D02*
G75*
G02X1941I37D01*
G01*
G75*
G02X1868I-37*
G01*
X1881Y2042D02*
X1966D01*
Y1957*
X1881*
Y2042*
X1884Y1162D02*
G75*
G02Y1067J-48D01*
G01*
G75*
G02Y1162J48*
G01*
X1945Y825D02*
Y875D01*
G75*
G02X2030I43*
G01*
Y825*
G75*
G02X1945I-43*
G01*
X1975Y3165D02*
G75*
G02Y3276J56D01*
G01*
G75*
G02Y3165J-56*
G01*
X2045Y825D02*
Y875D01*
G75*
G02X2130I43*
G01*
Y825*
G75*
G02X2045I-43*
G01*
X2049Y2042D02*
Y2063D01*
G75*
G02X2055Y2077I20*
G01*
X2193Y2215*
G75*
G02X2207Y2221I14J-14*
G01*
X2427*
X2553Y2346*
Y2346*
G75*
G02X2626I37*
G01*
G75*
G02X2626Y2344I-37J0*
G01*
X2697Y2416*
G75*
G02X2711Y2422I14J-14*
G01*
X2811*
G75*
G02X2878Y2402I31J-20*
G01*
G75*
G02X2811Y2382I-37*
G01*
X2719*
X2623Y2285*
G75*
G02X2615Y2280I-14J14*
G01*
G75*
G02X2633Y2241I-18J-32*
G01*
X2651Y2223*
G75*
G02X2656Y2209I-14J-14*
G01*
Y2180*
G75*
G02X2673Y2150I-20J-31*
G01*
G75*
G02X2600I-37*
G01*
G75*
G02X2616Y2180I37*
G01*
Y2200*
X2604Y2212*
G75*
G02X2570Y2224I-7J36*
G01*
Y2192*
X2592*
Y2107*
X2507*
Y2192*
X2530*
Y2267*
X2450Y2187*
G75*
G02X2436Y2181I-14J14*
G01*
X2216*
X2089Y2055*
Y2042*
X2108*
Y1957*
X2023*
Y2042*
X2049*
X2064Y2177D02*
G75*
G02X2137I37D01*
G01*
G75*
G02X2064I-37*
G01*
X2187Y2042D02*
Y2083D01*
G75*
G02X2193Y2097I20*
G01*
X2260Y2164*
G75*
G02X2274Y2170I14J-14*
G01*
X2433*
G75*
G02X2500Y2150I31J-20*
G01*
G75*
G02X2433Y2130I-37*
G01*
X2282*
X2227Y2074*
Y2042*
X2242*
Y1957*
X2157*
Y2042*
X2187*
X2195Y2862D02*
G75*
G02X2298I52D01*
G01*
G75*
G02X2195I-52*
G01*
X2273Y3996D02*
G75*
G02X2456I91D01*
G01*
G75*
G02X2273I-91*
G01*
X2294Y3141D02*
G75*
G02X2195Y3161I-48J20D01*
G01*
G75*
G02X2294Y3181I52*
G01*
X2877*
G75*
G02X2891Y3175J-20*
G01*
X2960Y3107*
X3164*
X3199Y3142*
G75*
G02X3230Y3210I48J20*
G01*
X3097*
X3046Y3160*
G75*
G02X2943Y3161I-52J1*
G01*
G75*
G02X2993Y3213I52*
G01*
X3055Y3274*
G75*
G02X3081Y3285I27J-27*
G01*
X3416*
G75*
G02X3442Y3274J-38*
G01*
X3483Y3234*
X3794*
G75*
G02X3820Y3223J-38*
G01*
X3875Y3168*
G75*
G02X3886Y3142I-27J-27*
G01*
Y2823*
G75*
G02X3875Y2796I-38*
G01*
X3792Y2713*
Y2294*
X3797*
Y2209*
X3712*
Y2294*
X3717*
Y2728*
G75*
G02X3728Y2755I38*
G01*
X3811Y2838*
Y3126*
X3778Y3159*
X3467*
G75*
G02X3441Y3170J38*
G01*
X3400Y3210*
X3263*
G75*
G02X3298Y3161I-17J-49*
G01*
G75*
G02X3227Y3113I-52*
G01*
X3186Y3072*
G75*
G02X3172Y3067I-14J14*
G01*
X3044*
G75*
G02X3070Y3031I-10J-35*
G01*
G75*
G02X3003Y3011I-37*
G01*
X2955*
G75*
G02X2941Y3017J20*
G01*
X2856Y3102*
X2391*
G75*
G02X2320Y3114I-34J12*
G01*
G75*
G02X2333Y3141I37*
G01*
X2294*
X2486Y2496D02*
G75*
G02X2559I37D01*
G01*
G75*
G02X2486I-37*
G01*
X2592Y4264D02*
G75*
G02X2665I37D01*
G01*
G75*
G02X2592I-37*
G01*
X2616Y3435D02*
G75*
G02Y3510I20J38D01*
G01*
G75*
G02X2654Y3586I20J38*
G01*
X3459*
G75*
G02X3487Y3575J-39*
G01*
X3560Y3502*
G75*
G02X3616Y3489I17J-53*
G01*
X3711*
G75*
G02X3731Y3494I20J-38*
G01*
G75*
G02Y3409J-43*
G01*
G75*
G02X3711Y3414J43*
G01*
X3620*
G75*
G02X3528Y3423I-43J35*
G01*
X3443Y3508*
X2660*
G75*
G02X2656Y3435I-23J-36*
G01*
G75*
G02X2636Y3355I-20J-38*
G01*
G75*
G02X2616Y3435J43*
G01*
X2645Y825D02*
Y875D01*
G75*
G02X2730I43*
G01*
Y825*
G75*
G02X2645I-43*
G01*
X2742Y1909D02*
G75*
G02X2815I37D01*
G01*
G75*
G02X2742I-37*
G01*
X2836Y776D02*
G75*
G02X2917I40D01*
G01*
G75*
G02X2836I-40*
G01*
X2836Y2811D02*
G75*
G02X2909I37D01*
G01*
G75*
G02X2836I-37*
G01*
X2903Y3339D02*
G75*
G02X2856Y3374I-10J35D01*
G01*
G75*
G02X2929Y3378I37*
G01*
X3149*
G75*
G02X3216Y3358I31J-20*
G01*
G75*
G02X3149Y3338I-37*
G01*
X2908*
G75*
G02X2903Y3339J20*
G01*
X3061Y3996D02*
G75*
G02X3243I91D01*
G01*
G75*
G02X3061I-91*
G01*
X3133Y3449D02*
G75*
G02X3022I-56D01*
G01*
G75*
G02X3133I56*
G01*
X3258Y1362D02*
G75*
G02X3440I91D01*
G01*
G75*
G02X3258I-91*
G01*
Y3716D02*
G75*
G02X3440I91D01*
G01*
G75*
G02X3258I-91*
G01*
X3281Y1961D02*
G75*
G02X3354I37D01*
G01*
G75*
G02X3281I-37*
G01*
X3309Y1071D02*
G75*
G02X3382I37D01*
G01*
G75*
G02X3309I-37*
G01*
X3350Y1132D02*
G75*
G02X3281Y1161I-28J29D01*
G01*
G75*
G02X3356Y1182I40*
G01*
X3373*
G75*
G02X3390Y1175J-25*
G01*
X3446Y1119*
X3617*
G75*
G02X3634Y1112J-25*
G01*
X3679Y1067*
G75*
G02X3684Y1065I-15J-40*
G01*
X3715*
G75*
G02X3742Y1054J-38*
G01*
X3777Y1019*
G75*
G02X3788Y992I-27J-27*
G01*
Y909*
G75*
G02X3777Y883I-38*
G01*
X3616Y721*
G75*
G02X3589Y710I-27J27*
G01*
X3364*
G75*
G02X3309Y748I-15J38*
G01*
G75*
G02X3364Y785I40*
G01*
X3574*
X3677Y889*
G75*
G02X3625Y913I-13J41*
G01*
G75*
G02X3570Y889I-39J16*
G01*
X3570Y889*
G75*
G02X3558Y884I-12J12*
G01*
X3436*
G75*
G02X3368Y902I-32J18*
G01*
G75*
G02X3436Y919I37*
G01*
X3544*
G75*
G02X3559Y963I41J10*
G01*
X3436*
G75*
G02X3368Y980I-32J18*
G01*
G75*
G02X3436Y998I37*
G01*
X3555*
G75*
G02X3578Y1069I30J30*
G01*
X3436*
G75*
G02X3418Y1077J25*
G01*
X3362Y1132*
X3350*
X3525Y3315D02*
G75*
G02X3598I37D01*
G01*
G75*
G02X3525I-37*
G01*
X3590Y2294D02*
X3675D01*
Y2209*
X3590*
Y2294*
X3612Y2342D02*
G75*
G02X3685I37D01*
G01*
G75*
G02X3612I-37*
G01*
X3688Y3133D02*
X3773D01*
Y3048*
X3688*
Y3133*
Y3350D02*
X3773D01*
Y3265*
X3688*
Y3350*
Y3594D02*
X3773D01*
Y3509*
X3688*
Y3594*
X3731Y3033D02*
G75*
G02Y2948J-43D01*
G01*
G75*
G02Y3033J43*
G01*
X3770Y662D02*
G75*
G02Y821J79D01*
G01*
G75*
G02Y662J-79*
G01*
Y1135D02*
G75*
G02Y1294J79D01*
G01*
G75*
G02Y1135J-79*
G01*
X28Y2504D02*
G36*
Y2335D01*
X1730*
G75*
G02X1803I37*
G01*
X2541*
X2553Y2346*
Y2346*
G75*
G02X2626I37*
G01*
G75*
G02X2626Y2344I-37J0*
G01*
X2697Y2416*
G75*
G02X2711Y2422I14J-14*
G01*
X2811*
G75*
G02X2878Y2402I31J-20*
G01*
G75*
G02X2811Y2382I-37*
G01*
X2719*
X2673Y2335*
X3285*
X3270Y2350*
X3003*
G75*
G02X2988Y2356J20*
G01*
X2840Y2504*
X2558*
G75*
G02X2559Y2496I-36J-8*
G01*
G75*
G02X2486I-37*
G01*
G75*
G02X2487Y2504I37J0*
G01*
X2401*
X2284Y2387*
G75*
G02X2270Y2382I-14J14*
G01*
X2092*
G75*
G02X2025Y2402I-31J20*
G01*
G75*
G02X2092Y2422I37*
G01*
X2262*
X2344Y2504*
X1373*
G75*
G02X1374Y2496I-36J-8*
G01*
G75*
G02X1301I-37*
G01*
G75*
G02X1302Y2504I37J0*
G01*
X621*
X704Y2422*
X1314*
G75*
G02X1382Y2402I31J-20*
G01*
G75*
G02X1314Y2382I-37*
G01*
X695*
G75*
G02X681Y2387J20*
G01*
X565Y2504*
X369*
G75*
G02X266I-52*
G01*
X28*
G37*
X266D02*
G36*
G75*
G02X369I52D01*
G01*
X565*
X414Y2655*
G75*
G02X147Y2795I-96J140*
G01*
Y2799*
X28*
Y2504*
X266*
G37*
X1302D02*
G36*
G75*
G02X1373I36J-8D01*
G01*
X2344*
X2415Y2574*
X2149*
G75*
G02X2076Y2579I-36J4*
G01*
G75*
G02X2094Y2610I37*
G01*
X1828*
G75*
G02X1830Y2602I-19J-8*
G01*
Y2586*
G75*
G02X1846Y2555I-20J-31*
G01*
G75*
G02X1773I-37*
G01*
G75*
G02X1790Y2586I37*
G01*
Y2594*
X1774Y2610*
X1774Y2610*
X1680*
G75*
G02X1666Y2616J20*
G01*
X1660Y2622*
X1651*
G75*
G02X1584Y2642I-31J20*
G01*
G75*
G02X1596Y2669I37*
G01*
X1419*
G75*
G02X1352Y2689I-31J20*
G01*
G75*
G02X1419Y2709I37*
G01*
X1660*
G75*
G02X1674Y2703J-20*
G01*
X1700Y2677*
X1940*
G75*
G02X1975Y2776I35J43*
G01*
G75*
G02X2010Y2677J-56*
G01*
X2896*
G75*
G02X2908Y2673J-20*
G01*
G75*
G02X2952Y2638I8J-36*
G01*
G75*
G02X2879Y2637I-37*
G01*
X2850*
X3038Y2449*
X3057*
G75*
G02X3045Y2476I24J27*
G01*
G75*
G02X3105Y2504I37*
G01*
X3717*
Y2728*
G75*
G02X3728Y2755I38*
G01*
X3772Y2799*
X3146*
Y2779*
G75*
G02X3138Y2762I-25*
G01*
X3079Y2703*
G75*
G02X3062Y2695I-18J18*
G01*
X2797*
G75*
G02X2744I-27J25*
G01*
X2383*
G75*
G02X2330I-27J25*
G01*
X2172*
G75*
G02X2154Y2703J25*
G01*
X2063Y2794*
X1548*
G75*
G02X1485Y2799I-30J21*
G01*
X487*
Y2795*
G75*
G02X444Y2681I-170*
G01*
X621Y2504*
X1302*
G37*
X2487D02*
G36*
G75*
G02X2558I36J-8D01*
G01*
X2840*
X2801Y2543*
X2440*
X2401Y2504*
X2487*
G37*
X3105D02*
G36*
G75*
G02X3112Y2496I-24J-28D01*
G01*
X3361*
G75*
G02X3375Y2490J-20*
G01*
X3438Y2427*
G75*
G02X3444Y2413I-14J-14*
G01*
Y2335*
X3613*
G75*
G02X3612Y2342I36J8*
G01*
G75*
G02X3685I37*
G01*
G75*
G02X3684Y2335I-37J0*
G01*
X3717*
Y2504*
X3105*
G37*
X3792D02*
G36*
Y2335D01*
X3915*
Y2504*
X3792*
G37*
X3915D02*
G36*
Y2799D01*
X3878*
G75*
G02X3875Y2796I-29J24*
G01*
X3792Y2713*
Y2504*
X3915*
G37*
X28Y1016D02*
G36*
Y850D01*
X1025*
X1026Y851*
Y949*
G75*
G02X1028Y958I20J0*
G01*
X1005Y935*
G75*
G02X1015Y909I-26J-25*
G01*
G75*
G02X942I-37*
G01*
G75*
G02X955Y937I36*
G01*
G75*
G02X951Y937I-4J20*
G01*
X716*
G75*
G02X702Y942J20*
G01*
X669Y975*
G75*
G02X614Y1016I-12J41*
G01*
X599*
G75*
G02X514I-43*
G01*
X499*
G75*
G02X414I-43*
G01*
X399*
Y973*
X314*
Y1016*
X28*
G37*
X314D02*
G36*
Y1058D01*
X399*
Y1016*
X414*
G75*
G02X499I43*
G01*
X514*
G75*
G02X599I43*
G01*
X614*
G75*
G02X699I43*
G01*
G75*
G02X697Y1003I-43J0*
G01*
X724Y977*
X740*
G75*
G02X714Y1016I17J39*
G01*
G75*
G02X799I43*
G01*
G75*
G02X774Y977I-43*
G01*
X943*
X1037Y1071*
X28*
Y1016*
X314*
G37*
X2645D02*
G36*
X2609Y980D01*
Y912*
G75*
G02X2630Y875I-22J-37*
G01*
Y850*
X2645*
Y875*
G75*
G02X2730I43*
G01*
Y850*
X3638*
X3677Y889*
G75*
G02X3625Y913I-13J41*
G01*
G75*
G02X3570Y889I-39J16*
G01*
X3570Y889*
G75*
G02X3558Y884I-12J12*
G01*
X3436*
G75*
G02X3368Y902I-32J18*
G01*
G75*
G02X3436Y919I37*
G01*
X3544*
G75*
G02X3559Y963I41J10*
G01*
X3436*
G75*
G02X3368Y980I-32J18*
G01*
G75*
G02X3395Y1016I37*
G01*
X2645*
G37*
X3395D02*
G36*
G75*
G02X3436Y998I9J-35D01*
G01*
X3555*
G75*
G02X3578Y1069I30J30*
G01*
X3436*
G75*
G02X3427Y1071J25*
G01*
X3382*
G75*
G02X3309I-37*
G01*
X2700*
X2645Y1016*
X3395*
G37*
X3780D02*
G36*
G75*
G02X3788Y992I-29J-24D01*
G01*
Y909*
G75*
G02X3777Y883I-38*
G01*
X3745Y850*
X3915*
Y1016*
X3780*
G37*
X3915D02*
G36*
Y1071D01*
X3676*
X3679Y1067*
G75*
G02X3684Y1065I-15J-40*
G01*
X3715*
G75*
G02X3742Y1054J-38*
G01*
X3777Y1019*
G75*
G02X3780Y1016I-27J-27*
G01*
X3915*
G37*
X28Y1362D02*
G36*
Y1228D01*
X1091*
G75*
G02X1176I43*
G01*
X1291*
G75*
G02X1376I43*
G01*
X1427*
X1508Y1309*
G75*
G02X1522Y1315I14J-14*
G01*
X1675*
G75*
G02X1661Y1362I32J35*
G01*
X684*
G75*
G02X502I-91*
G01*
X28*
G37*
X502D02*
G36*
G75*
G02X684I91D01*
G01*
X1661*
G75*
G02X1724Y1395I46J-12*
G01*
X1748Y1420*
G75*
G02X1762Y1425I14J-14*
G01*
X2220*
G75*
G02X2204Y1468I19J31*
G01*
G75*
G02X2163Y1504I-5J36*
G01*
G75*
G02X2207Y1540I37*
G01*
X2278Y1611*
Y1677*
G75*
G02X2284Y1691I20*
G01*
X2305Y1713*
X1555*
G75*
G02X1482I-37*
G01*
X28*
Y1362*
X502*
G37*
X2897D02*
G36*
Y1276D01*
G75*
G02X2891Y1261I-20*
G01*
X2858Y1228*
X3692*
G75*
G02X3770Y1294I78J-13*
G01*
G75*
G02X3848Y1228J-79*
G01*
X3915*
Y1362*
X3440*
G75*
G02X3258I-91*
G01*
X2897*
G37*
X3258D02*
G36*
G75*
G02X3440I91D01*
G01*
X3915*
Y1713*
X3471*
X3468Y1710*
Y1598*
G75*
G02X3461Y1581I-25*
G01*
X3397Y1517*
G75*
G02X3397Y1512I-40J-5*
G01*
G75*
G02X3316I-40*
G01*
G75*
G02X3350Y1552I40*
G01*
G75*
G02X3349Y1621I11J35*
G01*
G75*
G02X3318Y1632I-4J36*
G01*
X2947*
G75*
G02X2930Y1640J25*
G01*
X2917Y1652*
G75*
G02X2879Y1689I-1J36*
G01*
G75*
G02X2936Y1720I37*
G01*
X2892Y1763*
X2440*
G75*
G02X2452Y1736I-24J-27*
G01*
G75*
G02X2452Y1734I-36J0*
G01*
G75*
G02X2504Y1701I15J-33*
G01*
G75*
G02X2460Y1665I-37*
G01*
X2454Y1659*
G75*
G02X2440Y1653I-14J14*
G01*
X2361*
X2349Y1641*
Y1547*
G75*
G02X2343Y1533I-20*
G01*
X2274Y1464*
G75*
G02X2275Y1457I-36J-7*
G01*
G75*
G02X2275Y1450I-36J0*
G01*
X2457Y1632*
G75*
G02X2471Y1638I14J-14*
G01*
X2738*
G75*
G02X2787Y1618I20J-20*
G01*
G75*
G02X2738Y1598I-28*
G01*
X2692*
G75*
G02X2696Y1585I-24J-15*
G01*
G75*
G02X2733Y1546I11J-26*
G01*
G75*
G02X2750Y1527I-10J-27*
G01*
G75*
G02X2788Y1485I16J-24*
G01*
G75*
G02X2813Y1473I2J-28*
G01*
Y1576*
G75*
G02X2797Y1606I20J31*
G01*
G75*
G02X2870I37*
G01*
G75*
G02X2853Y1576I-37*
G01*
Y1465*
X2891Y1427*
G75*
G02X2897Y1413I-14J-14*
G01*
Y1362*
X3258*
G37*
X28Y3716D02*
G36*
Y3551D01*
X632*
X697Y3616*
G75*
G02X817Y3666I120J-120*
G01*
X1846*
G75*
G02X1919Y3704I113J-127*
G01*
Y3742*
G75*
G02X1918Y3749I52J13*
G01*
G75*
G02X1871Y3708I-47J7*
G01*
G75*
G02X1844Y3716J48*
G01*
X684*
G75*
G02X502I-91*
G01*
X28*
G37*
X502D02*
G36*
G75*
G02X684I91D01*
G01*
X1844*
G75*
G02X1871Y3803I27J39*
G01*
G75*
G02X1918Y3763J-48*
G01*
G75*
G02X1951Y3806I53J-7*
G01*
Y3819*
G75*
G02X1957Y3833I20*
G01*
X1969Y3845*
G75*
G02X1983Y3851I14J-14*
G01*
X2318*
G75*
G02X2385Y3831I31J-20*
G01*
G75*
G02X2318Y3811I-37*
G01*
X1991*
X1991Y3811*
Y3806*
G75*
G02X2024Y3763I-20J-50*
G01*
G75*
G02X2071Y3803I47J-7*
G01*
G75*
G02X2098Y3716J-48*
G01*
X3258*
G75*
G02X3440I91*
G01*
X3915*
Y3996*
X3243*
G75*
G02X3061I-91*
G01*
X2456*
G75*
G02X2273I-91*
G01*
X1669*
G75*
G02X1486I-91*
G01*
X881*
G75*
G02X699I-91*
G01*
X28*
Y3716*
X502*
G37*
X2098D02*
G36*
G75*
G02X2071Y3708I-27J39D01*
G01*
G75*
G02X2024Y3749J48*
G01*
G75*
G02X2023Y3742I-53J7*
G01*
Y3697*
G75*
G02X2129Y3551I-64J-158*
G01*
X2594*
G75*
G02X2654Y3586I42J-4*
G01*
X3459*
G75*
G02X3487Y3575J-39*
G01*
X3511Y3551*
X3688*
Y3594*
X3773*
Y3551*
X3915*
Y3716*
X3440*
G75*
G02X3258I-91*
G01*
X2098*
G37*
X699Y3996D02*
G36*
G75*
G02X881I91D01*
G01*
X1486*
G75*
G02X1669I91*
G01*
X2273*
G75*
G02X2456I91*
G01*
X3061*
G75*
G02X3243I91*
G01*
X3915*
Y4264*
X2665*
G75*
G02X2592I-37*
G01*
X1082*
G75*
G02X1009I-37*
G01*
X28*
Y3996*
X699*
G37*
X1009Y4264D02*
G36*
G75*
G02X1082I37D01*
G01*
X2592*
G75*
G02X2665I37*
G01*
X3915*
Y4483*
X28*
Y4264*
X1009*
G37*
X28Y850D02*
G36*
Y776D01*
X951*
X1025Y850*
X28*
G37*
X1066D02*
G36*
Y842D01*
G75*
G02X1060Y828I-20*
G01*
X962Y730*
G75*
G02X947Y724I-14J14*
G01*
X543*
G75*
G02X470Y724I-37J0*
G01*
G75*
G02X514Y760I37*
G01*
G75*
G02X526Y764I12J-16*
G01*
X939*
X951Y776*
X28*
Y596*
X3915*
Y776*
X3842*
G75*
G02X3770Y662I-72J-34*
G01*
G75*
G02X3698Y776J79*
G01*
X3670*
X3616Y721*
G75*
G02X3589Y710I-27J27*
G01*
X3364*
G75*
G02X3309Y748I-15J38*
G01*
G75*
G02X3319Y776I40*
G01*
X2917*
G75*
G02X2836I-40*
G01*
X2457*
Y756*
G75*
G02X2451Y741I-22*
G01*
X2404Y693*
G75*
G02X2388Y687I-15J15*
G01*
X1538*
G75*
G02X1523Y693J22*
G01*
X1471Y745*
G75*
G02X1465Y760I15J15*
G01*
Y789*
G75*
G02X1445Y825I22J36*
G01*
Y850*
X1430*
Y825*
G75*
G02X1345I-43*
G01*
Y850*
X1330*
Y825*
G75*
G02X1245I-43*
G01*
Y850*
X1230*
Y783*
X1145*
Y850*
X1066*
G37*
X1145D02*
G36*
Y918D01*
X1230*
Y850*
X1245*
Y875*
G75*
G02X1330I43*
G01*
Y850*
X1345*
Y875*
G75*
G02X1430I43*
G01*
Y850*
X1445*
Y875*
G75*
G02X1530I43*
G01*
Y850*
X1545*
Y875*
G75*
G02X1630I43*
G01*
Y850*
X1645*
Y875*
G75*
G02X1730I43*
G01*
Y850*
X1745*
Y875*
G75*
G02X1830I43*
G01*
Y850*
X1845*
Y875*
G75*
G02X1930I43*
G01*
Y850*
X1945*
Y875*
G75*
G02X2030I43*
G01*
Y850*
X2045*
Y875*
G75*
G02X2130I43*
G01*
Y850*
X2145*
Y875*
G75*
G02X2168Y913I43*
G01*
Y1071*
X1904*
G75*
G02X1884Y1067I-20J43*
G01*
G75*
G02X1865Y1071J48*
G01*
X1727*
G75*
G02X1707Y1067I-20J43*
G01*
G75*
G02X1688Y1071J48*
G01*
X1413*
X1336Y994*
G75*
G02X1321Y988I-14J14*
G01*
X1113*
X1066Y940*
Y850*
X1145*
G37*
X1530D02*
G36*
Y825D01*
G75*
G02X1508Y788I-43*
G01*
Y769*
X1547Y730*
X1701*
X1677Y754*
G75*
G02X1671Y768I14J14*
G01*
Y786*
G75*
G02X1645Y825I16J39*
G01*
Y850*
X1630*
Y825*
G75*
G02X1545I-43*
G01*
Y850*
X1530*
G37*
X1730D02*
G36*
Y825D01*
G75*
G02X1711Y790I-43*
G01*
Y776*
X1723Y764*
X2317*
X2317Y764*
Y795*
G75*
G02X2245Y825I-30J30*
G01*
Y875*
G75*
G02X2274Y916I43*
G01*
Y1134*
G75*
G02X2280Y1148I20*
G01*
X2516Y1384*
G75*
G02X2530Y1390I14J-14*
G01*
G75*
G02X2578Y1370I20J-20*
G01*
G75*
G02X2578Y1368I-28J0*
G01*
X2623Y1413*
X2538*
X2208Y1082*
Y913*
G75*
G02X2230Y875I-20J-38*
G01*
Y825*
G75*
G02X2145I-43*
G01*
Y850*
X2130*
Y825*
G75*
G02X2045I-43*
G01*
Y850*
X2030*
Y825*
G75*
G02X1945I-43*
G01*
Y850*
X1930*
Y825*
G75*
G02X1845I-43*
G01*
Y850*
X1830*
Y825*
G75*
G02X1745I-43*
G01*
Y850*
X1730*
G37*
X2630D02*
G36*
Y825D01*
G75*
G02X2545I-43*
G01*
Y875*
G75*
G02X2569Y914I43*
G01*
Y988*
G75*
G02X2575Y1002I20*
G01*
X2857Y1284*
Y1369*
G75*
G02X2823Y1359I-23J16*
G01*
G75*
G02X2814Y1356I-9J15*
G01*
X2730*
X2721Y1347*
G75*
G02X2759Y1311I2J-36*
G01*
G75*
G02X2686I-37*
G01*
G75*
G02X2687Y1313I37J0*
G01*
X2508Y1135*
Y912*
G75*
G02X2530Y875I-21J-37*
G01*
Y825*
G75*
G02X2457Y796I-43*
G01*
Y776*
X2836*
G75*
G02X2917I40*
G01*
X3319*
G75*
G02X3364Y785I30J-28*
G01*
X3574*
X3638Y850*
X2730*
Y825*
G75*
G02X2645I-43*
G01*
Y850*
X2630*
G37*
X3745D02*
G36*
X3670Y776D01*
X3698*
G75*
G02X3770Y821I72J-34*
G01*
G75*
G02X3842Y776J-79*
G01*
X3915*
Y850*
X3745*
G37*
X28Y1228D02*
G36*
Y1114D01*
X1193*
G75*
G02X1191Y1128I40J14*
G01*
G75*
G02X1276I43*
G01*
G75*
G02X1253Y1091I-43*
G01*
X1289*
X1427Y1228*
X1376*
G75*
G02X1291I-43*
G01*
X1176*
G75*
G02X1091I-43*
G01*
X28*
G37*
X2858D02*
G36*
X2743Y1114D01*
X3381*
X3362Y1132*
X3350*
G75*
G02X3281Y1161I-28J29*
G01*
G75*
G02X3356Y1182I40*
G01*
X3373*
G75*
G02X3390Y1175J-25*
G01*
X3446Y1119*
X3617*
G75*
G02X3632Y1114J-25*
G01*
X3915*
Y1228*
X3848*
G75*
G02X3770Y1135I-78J-13*
G01*
G75*
G02X3692Y1228J79*
G01*
X2858*
G37*
X1482Y1713D02*
G36*
G75*
G02X1555I37D01*
G01*
X2305*
X2343Y1750*
G75*
G02X2357Y1756I14J-14*
G01*
X2385*
G75*
G02X2392Y1763I31J-20*
G01*
X2286*
G75*
G02X2272Y1769J20*
G01*
X2269Y1772*
X1941*
G75*
G02X1868I-37*
G01*
X1688*
X1686Y1769*
G75*
G02X1672Y1763I-14J14*
G01*
X1479*
G75*
G02X1465Y1769J20*
G01*
X1462Y1772*
X28*
Y1713*
X1482*
G37*
X3915D02*
G36*
Y1772D01*
X3530*
X3471Y1713*
X3915*
G37*
X147Y2799D02*
G36*
Y2862D01*
X28*
Y2799*
X147*
G37*
X1485D02*
G36*
G75*
G02X1482Y2815I33J16D01*
G01*
G75*
G02X1540Y2844I37*
G01*
X2073*
G75*
G02X2091Y2837J-25*
G01*
X2129Y2799*
X2838*
G75*
G02X2836Y2811I34J12*
G01*
G75*
G02X2909I37*
G01*
G75*
G02X2907Y2799I-37J0*
G01*
X3096*
Y2817*
G75*
G02X3069Y2862I25J45*
G01*
X2298*
G75*
G02X2195I-52*
G01*
X487*
Y2799*
X1485*
G37*
X2129D02*
G36*
X2182Y2745D01*
X2330*
G75*
G02X2383I27J-25*
G01*
X2744*
G75*
G02X2797I27J-25*
G01*
X3051*
X3096Y2790*
Y2799*
X2907*
G75*
G02X2838I-34J12*
G01*
X2129*
G37*
X3772D02*
G36*
X3811Y2838D01*
Y2862*
X3172*
G75*
G02X3146Y2817I-52*
G01*
Y2799*
X3772*
G37*
X3915D02*
G36*
Y2862D01*
X3886*
Y2823*
G75*
G02X3878Y2799I-38J0*
G01*
X3915*
G37*
X28Y2048D02*
G36*
Y2000D01*
X1470*
Y2048*
X28*
G37*
X1470D02*
G36*
Y2098D01*
X1541*
X1591Y2148*
G75*
G02X1605Y2154I14J-14*
G01*
X1656*
G75*
G02X1670Y2148J-20*
G01*
X1770Y2048*
X2049*
Y2063*
G75*
G02X2055Y2077I20*
G01*
X2155Y2177*
X2137*
G75*
G02X2064I-37*
G01*
X28*
Y2048*
X1470*
G37*
X1570D02*
G36*
G75*
G02X1670I50D01*
G01*
X1713*
X1648Y2114*
X1613*
X1570Y2070*
Y2048*
G37*
G36*
Y2000*
X1607*
G75*
G02X1570Y2048I12J48*
G01*
G37*
X1670D02*
G36*
G75*
G02X1632Y2000I-50D01*
G01*
X1762*
X1713Y2048*
X1670*
G37*
X1770D02*
G36*
X1818Y2000D01*
X1881*
Y2042*
X1966*
Y2000*
X2023*
Y2042*
X2049*
Y2048*
X1770*
G37*
X2089D02*
G36*
Y2042D01*
X2108*
Y2000*
X2157*
Y2042*
X2187*
Y2048*
X2089*
G37*
X2187D02*
G36*
Y2083D01*
G75*
G02X2193Y2097I20*
G01*
X2260Y2164*
G75*
G02X2274Y2170I14J-14*
G01*
X2433*
G75*
G02X2439Y2177I31J-20*
G01*
X2212*
X2089Y2055*
Y2048*
X2187*
G37*
X2227D02*
G36*
Y2042D01*
X2242*
Y2000*
X3915*
Y2048*
X2227*
G37*
X3915D02*
G36*
Y2177D01*
X3472*
G75*
G02X3439Y2141I-37*
G01*
X3414Y2116*
G75*
G02X3413Y2114I-14J14*
G01*
X3535*
G75*
G02X3602Y2094I31J-20*
G01*
G75*
G02X3535Y2074I-37*
G01*
X3180*
G75*
G02X3166Y2080J20*
G01*
X3069Y2177*
X2660*
G75*
G02X2673Y2150I-24J-28*
G01*
G75*
G02X2600I-37*
G01*
G75*
G02X2616Y2180I37*
G01*
Y2200*
X2604Y2212*
G75*
G02X2570Y2224I-7J36*
G01*
Y2192*
X2592*
Y2107*
X2507*
Y2177*
X2487*
G75*
G02X2500Y2150I-24J-28*
G01*
G75*
G02X2433Y2130I-37*
G01*
X2282*
X2227Y2074*
Y2048*
X3915*
G37*
X28Y1114D02*
G36*
Y1071D01*
X1037*
X1051Y1085*
G75*
G02X1065Y1091I14J-14*
G01*
X1213*
G75*
G02X1193Y1114I20J37*
G01*
X28*
G37*
X1456D02*
G36*
X1413Y1071D01*
X1688*
G75*
G02X1660Y1114I20J43*
G01*
X1456*
G37*
X1660D02*
G36*
G75*
G02X1707Y1162I48D01*
G01*
G75*
G02X1755Y1114J-48*
G01*
X1837*
G75*
G02X1884Y1162I48*
G01*
G75*
G02X1932Y1114J-48*
G01*
X2183*
X2261Y1193*
X1944*
G75*
G02X1872Y1197I-36J4*
G01*
G75*
G02X1880Y1220I37*
G01*
X1562*
X1456Y1114*
X1660*
G37*
X1755D02*
G36*
G75*
G02X1727Y1071I-48D01*
G01*
X1865*
G75*
G02X1837Y1114I20J43*
G01*
X1755*
G37*
X1932D02*
G36*
G75*
G02X1904Y1071I-48D01*
G01*
X2168*
Y1090*
G75*
G02X2173Y1105I20*
G01*
X2183Y1114*
X1932*
G37*
X2743D02*
G36*
X2700Y1071D01*
X3309*
G75*
G02X3382I37*
G01*
X3427*
G75*
G02X3418Y1077I8J24*
G01*
X3381Y1114*
X2743*
G37*
X3632D02*
G36*
G75*
G02X3634Y1112I-15J-20D01*
G01*
X3676Y1071*
X3915*
Y1114*
X3632*
G37*
X28Y2335D02*
G36*
Y2252D01*
X2458*
X2541Y2335*
X1803*
G75*
G02X1730I-37*
G01*
X28*
G37*
X2673D02*
G36*
X2623Y2285D01*
G75*
G02X2615Y2280I-14J14*
G01*
G75*
G02X2633Y2252I-18J-32*
G01*
X3049*
G75*
G02X3094Y2216I9J-35*
G01*
G75*
G02X3093Y2209I-37*
G01*
X3188Y2114*
X3328*
G75*
G02X3327Y2116I13J15*
G01*
X3299Y2143*
G75*
G02X3294Y2157I14J14*
G01*
Y2326*
X3285Y2335*
X2673*
G37*
X3444D02*
G36*
Y2304D01*
G75*
G02X3464Y2272I-16J-33*
G01*
G75*
G02X3458Y2252I-37*
G01*
X3590*
Y2294*
X3675*
Y2252*
X3712*
Y2294*
X3717*
Y2335*
X3684*
G75*
G02X3613I-36J8*
G01*
X3444*
G37*
X3792D02*
G36*
Y2294D01*
X3797*
Y2252*
X3915*
Y2335*
X3792*
G37*
X1462Y1772D02*
G36*
X1437Y1797D01*
G75*
G02X1431Y1811I14J14*
G01*
Y1909*
X28*
Y1772*
X1462*
G37*
X1868D02*
G36*
G75*
G02X1941I37D01*
G01*
X2269*
X2195Y1846*
X1763*
X1688Y1772*
X1868*
G37*
X3915D02*
G36*
Y1909D01*
X3511*
G75*
G02X3499Y1890I-36J8*
G01*
G75*
G02X3526Y1847I-8J-36*
G01*
G75*
G02X3602Y1827I35J-20*
G01*
G75*
G02X3547Y1789I-40*
G01*
X3530Y1772*
X3915*
G37*
X28Y2000D02*
G36*
Y1961D01*
X1455*
X1461Y1967*
G75*
G02X1475Y1973I14J-14*
G01*
X1476*
G75*
G02X1570Y1948I44J-24*
G01*
G75*
G02X1520Y1898I-50*
G01*
G75*
G02X1570Y1848I0J-50*
G01*
G75*
G02X1542Y1803I-50*
G01*
X1598*
G75*
G02X1620Y1898I22J45*
G01*
G75*
G02X1641Y1803J-50*
G01*
X1664*
X1740Y1880*
G75*
G02X1754Y1886I14J-14*
G01*
X1824*
X1778Y1933*
X1667*
G75*
G02X1570Y1948I-47J16*
G01*
G75*
G02X1620Y1998I50*
G01*
G75*
G02X1607Y2000I0J50*
G01*
X1570*
Y1998*
X1470*
Y2000*
X28*
G37*
X1519Y1898D02*
G36*
G75*
G02X1475Y1925I0J50D01*
G01*
X1471Y1921*
Y1861*
G75*
G02X1519Y1898I48J-13*
G01*
G37*
X1620Y1998D02*
G36*
G75*
G02X1663Y1973I0J-50D01*
G01*
X1786*
G75*
G02X1789Y1972I0J-20*
G01*
X1762Y2000*
X1632*
G75*
G02X1620Y1998I-12J48*
G01*
G37*
X1818Y2000D02*
G36*
X1858Y1961D01*
X1881*
Y2000*
X1818*
G37*
X1966D02*
G36*
Y1961D01*
X2023*
Y2000*
X1966*
G37*
X2108D02*
G36*
Y1961D01*
X2157*
Y2000*
X2108*
G37*
X2242D02*
G36*
Y1961D01*
X3281*
G75*
G02X3354I37*
G01*
X3915*
Y2000*
X2242*
G37*
X28Y3220D02*
G36*
Y3090D01*
X176*
G75*
G02X197Y3116I141J-94*
G01*
X301Y3220*
X28*
G37*
X301D02*
G36*
X396Y3315D01*
X28*
Y3220*
X301*
G37*
X782D02*
G36*
X652Y3090D01*
X2329*
G75*
G02X2320Y3114I28J24*
G01*
G75*
G02X2333Y3141I37*
G01*
X2294*
G75*
G02X2195Y3161I-48J20*
G01*
G75*
G02X2294Y3181I52*
G01*
X2877*
G75*
G02X2891Y3175J-20*
G01*
X2960Y3107*
X3164*
X3199Y3142*
G75*
G02X3230Y3210I48J20*
G01*
X3097*
X3046Y3160*
G75*
G02X2943Y3161I-52J1*
G01*
G75*
G02X2993Y3213I52*
G01*
X3001Y3220*
X2030*
G75*
G02X1975Y3165I-56*
G01*
G75*
G02X1919Y3220J56*
G01*
X782*
G37*
X1919D02*
G36*
G75*
G02X1975Y3276I56D01*
G01*
G75*
G02X2030Y3220J-56*
G01*
X3001*
X3055Y3274*
G75*
G02X3081Y3285I27J-27*
G01*
X3416*
G75*
G02X3442Y3274J-38*
G01*
X3483Y3234*
X3794*
G75*
G02X3820Y3223J-38*
G01*
X3823Y3220*
X3915*
Y3315*
X3773*
Y3265*
X3688*
Y3315*
X3598*
G75*
G02X3525I-37*
G01*
X877*
X782Y3220*
X1919*
G37*
X3823D02*
G36*
X3875Y3168D01*
G75*
G02X3886Y3142I-27J-27*
G01*
Y3090*
X3915*
Y3220*
X3823*
G37*
X2064Y2177D02*
G36*
G75*
G02X2137I37D01*
G01*
X2155*
X2193Y2215*
G75*
G02X2207Y2221I14J-14*
G01*
X2427*
X2458Y2252*
X28*
Y2177*
X2064*
G37*
X2439D02*
G36*
G75*
G02X2487I24J-28D01*
G01*
X2507*
Y2192*
X2530*
Y2267*
X2450Y2187*
G75*
G02X2436Y2181I-14J14*
G01*
X2216*
X2212Y2177*
X2439*
G37*
X3069D02*
G36*
X3065Y2181D01*
G75*
G02X3021Y2216I-7J36*
G01*
G75*
G02X3049Y2252I37*
G01*
X2633*
G75*
G02X2633Y2241I-36J-4*
G01*
X2651Y2223*
G75*
G02X2656Y2209I-14J-14*
G01*
Y2180*
G75*
G02X2660Y2177I-20J-31*
G01*
X3069*
G37*
X3915D02*
G36*
Y2252D01*
X3797*
Y2209*
X3712*
Y2252*
X3675*
Y2209*
X3590*
Y2252*
X3458*
G75*
G02X3391Y2272I-31J20*
G01*
G75*
G02X3404Y2299I37*
G01*
Y2361*
G75*
G02X3374Y2349I-27J24*
G01*
X3379Y2345*
G75*
G02X3385Y2331I-14J-14*
G01*
Y2208*
G75*
G02X3400Y2186I-20J-31*
G01*
G75*
G02X3472Y2177I35J-9*
G01*
X3915*
G37*
X147Y2862D02*
G36*
Y2990D01*
X28*
Y2862*
X147*
G37*
X2195D02*
G36*
G75*
G02X2298I52D01*
G01*
X3069*
G75*
G02X3172I52*
G01*
X3811*
Y2990*
X3773*
G75*
G02X3731Y2948I-43*
G01*
G75*
G02X3688Y2990J43*
G01*
X552*
X487Y2926*
Y2862*
X2195*
G37*
X3915D02*
G36*
Y2990D01*
X3886*
Y2862*
X3915*
G37*
X28Y3473D02*
G36*
Y3366D01*
X447*
X554Y3473*
X28*
G37*
X554D02*
G36*
X632Y3551D01*
X28*
Y3473*
X554*
G37*
X2116D02*
G36*
G75*
G02X2079Y3419I-156J67D01*
G01*
X2036Y3376*
G75*
G02X2025Y3366I-120J120*
G01*
X2608*
G75*
G02X2616Y3435I29J31*
G01*
G75*
G02X2594Y3473I20J38*
G01*
X2116*
G37*
X2594D02*
G36*
G75*
G02X2616Y3510I43D01*
G01*
G75*
G02X2594Y3551I20J38*
G01*
X2129*
G75*
G02X2116Y3473I-170J-12*
G01*
X2594*
G37*
X2679D02*
G36*
G75*
G02X2656Y3435I-43D01*
G01*
G75*
G02X2665Y3366I-20J-38*
G01*
X2857*
G75*
G02X2856Y3374I36J8*
G01*
G75*
G02X2929Y3378I37*
G01*
X3149*
G75*
G02X3215Y3366I31J-20*
G01*
X3915*
Y3473*
X3768*
G75*
G02X3731Y3409I-37J-21*
G01*
G75*
G02X3711Y3414J43*
G01*
X3620*
G75*
G02X3528Y3423I-43J35*
G01*
X3479Y3473*
X3127*
G75*
G02X3133Y3449I-50J-24*
G01*
G75*
G02X3022I-56*
G01*
G75*
G02X3027Y3473I56J0*
G01*
X2679*
G37*
X3027D02*
G36*
G75*
G02X3127I50J-24D01*
G01*
X3479*
X3443Y3508*
X2660*
G75*
G02X2679Y3473I-23J-36*
G01*
X3027*
G37*
X3915D02*
G36*
Y3551D01*
X3773*
Y3509*
X3688*
Y3551*
X3511*
X3560Y3502*
G75*
G02X3616Y3489I17J-53*
G01*
X3711*
G75*
G02X3731Y3494I20J-38*
G01*
G75*
G02X3768Y3473J-43*
G01*
X3915*
G37*
X1431Y1909D02*
G36*
Y1929D01*
G75*
G02X1437Y1943I20*
G01*
X1455Y1961*
X28*
Y1909*
X1431*
G37*
X2618D02*
G36*
G75*
G02X2622Y1894I-33J-16D01*
G01*
G75*
G02X2609Y1866I-37*
G01*
X2924*
G75*
G02X2938Y1861J-20*
G01*
X2999Y1799*
X3007*
Y1822*
X3092*
Y1744*
X3124*
X3138Y1758*
G75*
G02X3141Y1761I14J-14*
G01*
Y1822*
X3226*
Y1737*
X3177*
X3170Y1730*
G75*
G02X3161Y1725I-14J14*
G01*
X3153Y1717*
X3274*
X3294Y1737*
X3279*
Y1822*
X3364*
Y1737*
X3341*
Y1736*
G75*
G02X3336Y1722I-20*
G01*
X3296Y1683*
X3296Y1682*
X3318*
G75*
G02X3376Y1676I27J-25*
G01*
Y1740*
G75*
G02X3382Y1754I20*
G01*
X3461Y1833*
G75*
G02X3467Y1882I30J21*
G01*
G75*
G02X3439Y1909I8J36*
G01*
X2815*
G75*
G02X2742I-37*
G01*
X2618*
G37*
X2742D02*
G36*
G75*
G02X2815I37D01*
G01*
X3439*
G75*
G02X3438Y1917I36J8*
G01*
G75*
G02X3511I37*
G01*
G75*
G02X3511Y1909I-37J0*
G01*
X3915*
Y1961*
X3354*
G75*
G02X3281I-37*
G01*
X2242*
Y1957*
X2157*
Y1961*
X2108*
Y1957*
X2023*
Y1961*
X1966*
Y1957*
X1881*
Y1961*
X1858*
X1877Y1941*
X2243*
G75*
G02X2257Y1935J-20*
G01*
X2311Y1882*
G75*
G02X2376Y1914I34J12*
G01*
X2555*
G75*
G02X2618Y1909I31J-20*
G01*
X2742*
G37*
X28Y3366D02*
G36*
Y3315D01*
X396*
X447Y3366*
X28*
G37*
X2025D02*
G36*
G75*
G02X1916Y3326I-110J130D01*
G01*
X888*
X877Y3315*
X3525*
G75*
G02X3598I37*
G01*
X3688*
Y3350*
X3773*
Y3315*
X3915*
Y3366*
X3215*
G75*
G02X3216Y3358I-36J-8*
G01*
G75*
G02X3149Y3338I-37*
G01*
X2908*
G75*
G02X2903Y3339J20*
G01*
G75*
G02X2857Y3366I-10J35*
G01*
X2665*
G75*
G02X2636Y3355I-29J31*
G01*
G75*
G02X2608Y3366J43*
G01*
X2025*
G37*
X28Y3090D02*
G36*
Y2990D01*
X147*
Y2996*
G75*
G02X176Y3090I170J0*
G01*
X28*
G37*
X652D02*
G36*
X552Y2990D01*
X3688*
G75*
G02X3731Y3033I43*
G01*
G75*
G02X3773Y2990J-43*
G01*
X3811*
Y3090*
X3773*
Y3048*
X3688*
Y3090*
X3204*
X3186Y3072*
G75*
G02X3172Y3067I-14J14*
G01*
X3044*
G75*
G02X3070Y3031I-10J-35*
G01*
G75*
G02X3003Y3011I-37*
G01*
X2955*
G75*
G02X2941Y3017J20*
G01*
X2856Y3102*
X2391*
G75*
G02X2329Y3090I-34J12*
G01*
X652*
G37*
X3688D02*
G36*
Y3133D01*
X3773*
Y3090*
X3811*
Y3126*
X3778Y3159*
X3467*
G75*
G02X3441Y3170J38*
G01*
X3400Y3210*
X3263*
G75*
G02X3298Y3161I-17J-49*
G01*
G75*
G02X3227Y3113I-52*
G01*
X3204Y3090*
X3688*
G37*
X3886D02*
G36*
Y2990D01*
X3915*
Y3090*
X3886*
G37*
X1739Y1315D02*
X1852D01*
G75*
G02Y1385I32J35*
G01*
X1771*
X1752Y1367*
G75*
G02X1739Y1315I-45J-16*
G01*
G36*
X1852*
G75*
G02Y1385I32J35*
G01*
X1771*
X1752Y1367*
G75*
G02X1739Y1315I-45J-16*
G01*
G37*
X1916D02*
X2227D01*
X2246Y1334*
X2093*
G75*
G02X2029Y1358I-28J24*
G01*
G75*
G02X2041Y1385I37*
G01*
X1916*
G75*
G02Y1315I-32J-35*
G01*
G36*
X2227*
X2246Y1334*
X2093*
G75*
G02X2029Y1358I-28J24*
G01*
G75*
G02X2041Y1385I37*
G01*
X1916*
G75*
G02Y1315I-32J-35*
G01*
G37*
X2090Y1385D02*
G75*
G02X2098Y1374I-24J-27D01*
G01*
X2242*
X2253Y1385*
X2090*
G36*
G75*
G02X2098Y1374I-24J-27*
G01*
X2242*
X2253Y1385*
X2090*
G37*
X2234Y1493D02*
G75*
G02X2246Y1492I5J-36D01*
G01*
X2309Y1555*
Y1585*
X2235Y1511*
G75*
G02X2234Y1493I-36J-7*
G01*
G36*
G75*
G02X2246Y1492I5J-36*
G01*
X2309Y1555*
Y1585*
X2235Y1511*
G75*
G02X2234Y1493I-36J-7*
G01*
G37*
X2314Y909D02*
G75*
G02X2317Y906I-26J-33D01*
G01*
Y1102*
G75*
G02X2332Y1122I20*
G01*
X2552Y1342*
G75*
G02X2534Y1346I-2J28*
G01*
X2314Y1125*
Y909*
G36*
G75*
G02X2317Y906I-26J-33*
G01*
Y1102*
G75*
G02X2332Y1122I20*
G01*
X2552Y1342*
G75*
G02X2534Y1346I-2J28*
G01*
X2314Y1125*
Y909*
G37*
X2340Y730D02*
X2379D01*
X2414Y765*
Y792*
G75*
G02X2357Y796I-26J33*
G01*
Y756*
G75*
G02X2351Y742I-20*
G01*
X2340Y730*
G36*
X2379*
X2414Y765*
Y792*
G75*
G02X2357Y796I-26J33*
G01*
Y756*
G75*
G02X2351Y742I-20*
G01*
X2340Y730*
G37*
X2404Y914D02*
G75*
G02X2414Y909I-17J-39D01*
G01*
Y1111*
X2404Y1101*
Y914*
G36*
G75*
G02X2414Y909I-17J-39*
G01*
Y1111*
X2404Y1101*
Y914*
G37*
X2457Y905D02*
G75*
G02X2465Y911I30J-30D01*
G01*
Y1127*
X2457Y1119*
Y905*
G36*
G75*
G02X2465Y911I30J-30*
G01*
Y1127*
X2457Y1119*
Y905*
G37*
X3106Y2449D02*
X3337D01*
G75*
G02X3351Y2443J-20*
G01*
X3372Y2422*
G75*
G02X3389Y2420I4J-36*
G01*
X3352Y2456*
X3112*
G75*
G02X3106Y2449I-31J20*
G01*
G36*
X3337*
G75*
G02X3351Y2443J-20*
G01*
X3372Y2422*
G75*
G02X3389Y2420I4J-36*
G01*
X3352Y2456*
X3112*
G75*
G02X3106Y2449I-31J20*
G01*
G37*
X3616Y998D02*
X3617D01*
G75*
G02X3629Y993J-18*
G01*
X3652Y970*
G75*
G02X3704Y916I12J-41*
G01*
X3713Y925*
Y977*
X3700Y990*
X3684*
G75*
G02X3625Y1011I-20J38*
G01*
G75*
G02X3616Y998I-39J16*
G01*
G36*
X3617*
G75*
G02X3629Y993J-18*
G01*
X3652Y970*
G75*
G02X3704Y916I12J-41*
G01*
X3713Y925*
Y977*
X3700Y990*
X3684*
G75*
G02X3625Y1011I-20J38*
G01*
G75*
G02X3616Y998I-39J16*
G01*
G37*
D02*
D11*
X283Y2504D02*
X263D01*
X317Y2469D02*
Y2449D01*
Y2538D02*
Y2558D01*
X352Y2504D02*
X372D01*
X432Y1016D02*
X412D01*
X457Y991D02*
Y971D01*
Y1041D02*
Y1061D01*
X482Y1016D02*
X502D01*
X739Y998D02*
X725Y984D01*
X739Y1033D02*
X725Y1047D01*
X775Y998D02*
X789Y984D01*
X775Y1033D02*
X789Y1047D01*
X1027Y4264D02*
X1007D01*
X1046Y4245D02*
Y4225D01*
Y4283D02*
Y4303D01*
X1065Y4264D02*
X1085D01*
X1108Y1228D02*
X1088D01*
X1133Y1203D02*
Y1183D01*
Y1253D02*
Y1273D01*
X1158Y1228D02*
X1178D01*
X1163Y850D02*
X1143D01*
X1188Y800D02*
Y780D01*
Y900D02*
Y920D01*
X1213Y850D02*
X1233D01*
X1318Y2496D02*
X1298D01*
X1337Y2477D02*
Y2457D01*
Y2515D02*
Y2535D01*
X1356Y2496D02*
X1376D01*
X1499Y1713D02*
X1479D01*
X1518Y1694D02*
Y1674D01*
Y1732D02*
Y1752D01*
X1537Y1713D02*
X1557D01*
X1563Y850D02*
X1543D01*
X1588Y800D02*
Y780D01*
Y900D02*
Y920D01*
X1597Y1825D02*
X1583Y1811D01*
X1597Y1871D02*
X1583Y1885D01*
X1613Y850D02*
X1633D01*
X1643Y1825D02*
X1657Y1811D01*
X1643Y1871D02*
X1657Y1885D01*
X1691Y846D02*
X1688Y850D01*
X1747Y2335D02*
X1727D01*
X1766Y2316D02*
Y2296D01*
Y2354D02*
Y2374D01*
X1785Y2335D02*
X1805D01*
X1854Y1114D02*
X1834D01*
X1854Y1350D02*
X1834D01*
X1884Y1084D02*
Y1064D01*
Y1144D02*
Y1164D01*
X1885Y1772D02*
X1865D01*
X1904Y1753D02*
Y1733D01*
Y1791D02*
Y1811D01*
X1914Y1114D02*
X1934D01*
X1914Y1350D02*
X1934D01*
X1923Y1772D02*
X1943D01*
X1937Y2720D02*
X1917D01*
X1975Y2758D02*
Y2778D01*
X2013Y2720D02*
X2033D01*
X2082Y2177D02*
X2062D01*
X2101Y2158D02*
Y2138D01*
Y2196D02*
Y2216D01*
X2120Y2177D02*
X2140D01*
X2212Y2862D02*
X2192D01*
X2247Y2828D02*
Y2808D01*
Y2897D02*
Y2917D01*
X2281Y2862D02*
X2301D01*
X2503Y2496D02*
X2483D01*
X2522Y2477D02*
Y2457D01*
Y2515D02*
Y2535D01*
X2541Y2496D02*
X2561D01*
X2609Y4264D02*
X2589D01*
X2619Y3380D02*
X2605Y3366D01*
X2619Y3415D02*
X2605Y3429D01*
X2628Y4245D02*
Y4225D01*
Y4283D02*
Y4303D01*
X2647Y4264D02*
X2667D01*
X2654Y3380D02*
X2668Y3366D01*
X2654Y3415D02*
X2668Y3429D01*
X2663Y850D02*
X2643D01*
X2688Y800D02*
Y780D01*
Y900D02*
Y920D01*
X2710Y1298D02*
X2695Y1283D01*
X2713Y850D02*
X2733D01*
X2736Y1298D02*
X2751Y1283D01*
X2736Y1324D02*
X2751Y1339D01*
X2759Y1909D02*
X2739D01*
X2766Y1504D02*
X2747Y1484D01*
X2719*
X2337Y1102*
X2778Y1890D02*
Y1870D01*
Y1928D02*
Y1948D01*
X2790Y1457D02*
X2735D01*
X2384Y1106*
X2794Y1413D02*
X2727D01*
X2436Y1122*
X2797Y1909D02*
X2817D01*
X2833Y1386D02*
X2825D01*
X2814Y1374*
X2723*
X2487Y1138*
X2854Y776D02*
X2834D01*
X2854Y2811D02*
X2834D01*
X2873Y2792D02*
Y2772D01*
Y2830D02*
Y2850D01*
X2877Y753D02*
Y733D01*
Y798D02*
Y818D01*
X2892Y2811D02*
X2912D01*
X2899Y776D02*
X2919D01*
X3298Y1961D02*
X3278D01*
X3317Y1942D02*
Y1922D01*
Y1980D02*
Y2000D01*
X3326Y1071D02*
X3306D01*
X3336Y1961D02*
X3356D01*
X3345Y1052D02*
Y1032D01*
Y1090D02*
Y1110D01*
X3364Y1071D02*
X3384D01*
X3456Y1917D02*
X3436D01*
X3475Y1936D02*
Y1956D01*
X3494Y1917D02*
X3514D01*
X3543Y3315D02*
X3523D01*
X3562Y3296D02*
Y3276D01*
Y3334D02*
Y3354D01*
X3581Y3315D02*
X3601D01*
X3585Y929D02*
X3558Y902D01*
X3404*
X3629Y2342D02*
X3609D01*
X3648Y2323D02*
Y2303D01*
Y2361D02*
Y2381D01*
X3664Y933D02*
X3617Y980D01*
X3404*
X3667Y2342D02*
X3687D01*
X3706Y2990D02*
X3686D01*
X3708Y742D02*
X3688D01*
X3708Y1215D02*
X3688D01*
X3731Y2965D02*
Y2945D01*
Y3015D02*
Y3035D01*
X3756Y2990D02*
X3776D01*
X3770Y680D02*
Y660D01*
Y804D02*
Y824D01*
Y1153D02*
Y1133D01*
Y1277D02*
Y1297D01*
X3832Y742D02*
X3852D01*
X3832Y1215D02*
X3852D01*
D02*
D12*
X593Y1362D03*
Y3716D03*
X790Y3996D03*
X1577D03*
X2365D03*
X3152D03*
X3349Y1362D03*
Y3716D03*
D02*
D13*
X1871Y3756D03*
X1971D03*
X2071D03*
D02*
D14*
X317Y2701D03*
D02*
D15*
Y2504D03*
X1959Y3539D02*
X1971Y3551D01*
Y3756*
X2247Y2862D03*
Y3161D03*
X2995D03*
X3121Y2862D03*
X3247Y3161D03*
D02*
D16*
X1975Y2720D03*
Y3220D03*
X3077Y3449D03*
X3577D03*
D02*
D17*
X457Y1016D03*
X557D03*
X657D03*
X757D03*
X3585Y929D03*
Y1027D03*
X3664Y929D03*
Y1027D03*
X3731Y2990D03*
Y3451D03*
D02*
D18*
X3770Y742D03*
Y1215D03*
D02*
D19*
X357Y1016D03*
X1924Y2000D03*
X2065D03*
X2199D03*
X2550Y2150D03*
X3050Y1779D03*
X3184D03*
X3321D03*
X3632Y2252D03*
X3731Y3090D03*
Y3307D03*
Y3551D03*
X3754Y2252D03*
D02*
D70*
X1133Y1228D03*
X1233Y1128D03*
X1333Y1228D03*
X2636Y3398D03*
Y3473D03*
Y3548D03*
D02*
D71*
X1520Y2048D03*
D02*
D20*
Y1848D03*
Y1948D03*
X1620Y1848D03*
Y1948D03*
Y2048D03*
D02*
D21*
X1188Y850D03*
D02*
D22*
X1288D03*
X1388D03*
X1488D03*
X1588D03*
X1688D03*
X1788D03*
X1888D03*
X1988D03*
X2088D03*
X2188D03*
X2288D03*
X2388D03*
X2488D03*
X2588D03*
X2688D03*
D02*
D23*
X1707Y1114D03*
Y1350D03*
X1884Y1114D03*
Y1350D03*
D02*
D24*
X506Y724D03*
X979Y909D03*
X1046Y4264D03*
X1337Y2496D03*
X1345Y2402D03*
X1388Y2689D03*
X1518Y1713D03*
Y2815D03*
X1621Y2642D03*
X1766Y2335D03*
X1810Y2555D03*
X1904Y1772D03*
X1908Y1197D03*
X2062Y2402D03*
X2065Y1358D03*
X2101Y2177D03*
X2113Y2579D03*
X2199Y1504D03*
X2239Y1457D03*
X2345Y1894D03*
X2349Y3831D03*
X2357Y2720D03*
Y3114D03*
X2416Y1736D03*
X2463Y2150D03*
X2467Y1701D03*
X2522Y2496D03*
X2585Y1894D03*
X2589Y2346D03*
X2597Y2248D03*
X2628Y4264D03*
X2636Y2150D03*
X2723Y1311D03*
X2770Y2720D03*
X2778Y1909D03*
X2833Y1606D03*
X2841Y2402D03*
X2873Y2811D03*
X2892Y3374D03*
X2916Y1689D03*
Y2638D03*
X3034Y3031D03*
X3058Y2216D03*
X3081Y2476D03*
X3180Y3358D03*
X3317Y1961D03*
X3345Y1071D03*
Y1657D03*
X3361Y1587D03*
X3365Y2177D03*
X3377Y2386D03*
X3404Y902D03*
Y980D03*
X3428Y2272D03*
X3436Y2177D03*
X3475Y1917D03*
X3491Y1854D03*
X3562Y3315D03*
X3565Y2094D03*
X3648Y2342D03*
D02*
D25*
X317Y2701D02*
X396D01*
X695Y2402*
X1345*
X317Y2701D02*
Y2795D01*
X1046Y4264D02*
X1030D01*
X1337Y2496D02*
X1329Y2504D01*
X1388Y2689D02*
X1660D01*
X1691Y2657*
X2896*
X2916Y2638*
X1518Y1713D02*
Y1709D01*
X1621Y2642D02*
X1668D01*
X1680Y2630*
X1782*
X1766Y2335D02*
X1762D01*
X1758Y2331*
X1782Y2630D02*
X1810Y2602D01*
Y2555*
X1782Y2630D02*
X2829D01*
X3030Y2429*
X3337*
X3377Y2390*
Y2386*
X1904Y1772D02*
X1896D01*
X1892Y1776*
X2337Y1102D02*
Y756D01*
X2325Y744*
X1715*
X1691Y768*
Y846*
X2345Y1894D02*
X2585D01*
X2349Y3831D02*
X1983D01*
X1971Y3819*
Y3756*
X2384Y1106D02*
Y853D01*
X2388Y850*
X2416Y1736D02*
X2357D01*
X2298Y1677*
Y1602*
X2199Y1504*
X2436Y1122D02*
Y756D01*
X2388Y709*
X1538*
X1487Y760*
Y850*
X1488Y850*
X2463Y2150D02*
X2274D01*
X2207Y2083*
Y2008*
X2199Y2000*
X2467Y1701D02*
X2440Y1673D01*
X2353*
X2329Y1650*
Y1547*
X2239Y1457*
X2487Y1138D02*
Y851D01*
X2488Y850*
X2522Y1583D02*
X2479D01*
X2251Y1354*
X2069*
X2065Y1358*
X2522Y2496D02*
X2526Y2500D01*
X2550Y1370D02*
X2530D01*
X2294Y1134*
Y857*
X2288Y850*
X2550Y2150D02*
Y2268D01*
X2581Y2299*
X2609*
X2711Y2402*
X2841*
X2565Y1583D02*
Y1575D01*
X2534Y1543*
X2483*
X2235Y1295*
X1522*
X1298Y1071*
X1065*
X951Y957*
X716*
X657Y1016*
X2589Y2346D02*
X2581D01*
X2436Y2201*
X2207*
X2069Y2063*
Y2004*
X2065Y2000*
X2617Y1583D02*
X2550Y1516D01*
X2495*
X2247Y1268*
X1538*
X1310Y1039*
X1081*
X979Y937*
Y909*
X2617Y1583D02*
X2621Y1579D01*
X2628Y4264D02*
X2617D01*
X2613Y4268*
X2636Y2150D02*
Y2209D01*
X2597Y2248*
X2668Y1583D02*
X2573Y1488D01*
X2506*
X2258Y1240*
X1554*
X1321Y1008*
X1105*
X1046Y949*
Y842*
X947Y744*
X526*
X506Y724*
X2707Y1559D02*
X2703D01*
X2605Y1461*
X2514*
X2266Y1213*
X1924*
X1908Y1197*
X2723Y1520D02*
X2719D01*
X2632Y1433*
X2530*
X2188Y1090*
Y850*
X2758Y1618D02*
X2471D01*
X2258Y1405*
X1762*
X1707Y1350*
X2778Y1909D02*
Y1905D01*
X2770*
Y1898*
X2833Y1606D02*
Y1457D01*
X2877Y1413*
Y1276*
X2589Y988*
Y852*
X2588Y850*
X2873Y2811D02*
X2880Y2819D01*
X2877Y776D02*
X2873Y779D01*
X3034Y3031D02*
X2955D01*
X2865Y3122*
X2357*
Y3114*
X3050Y1779D02*
X2991D01*
X2924Y1846*
X2317*
X2243Y1921*
X1869*
X1656Y2134*
X1605*
X1520Y2048*
X3058Y2216D02*
X3180Y2094D01*
X3565*
X3081Y2476D02*
X3361D01*
X3424Y2413*
Y2276*
X3428Y2272*
X3180Y3358D02*
X2908D01*
X2892Y3374*
X3184Y1779D02*
Y1772D01*
X3156Y1744*
X3152*
X3132Y1724*
X3003*
X2912Y1815*
X2306*
X2298Y1823*
X2294*
X2223Y1894*
X1845*
X1786Y1953*
X1624*
X1620Y1948*
X3247Y3161D02*
X3172Y3087D01*
X2951*
X2877Y3161*
X2247*
X3317Y1961D02*
X3321D01*
X3325Y1957*
X3321Y1779D02*
Y1736D01*
X3282Y1697*
X2987*
X2900Y1783*
X2286*
X2203Y1866*
X1754*
X1672Y1783*
X1479*
X1451Y1811*
Y1929*
X1475Y1953*
X1515*
X1520Y1948*
X3345Y1071D02*
Y1075D01*
X3353Y1083*
X3365Y2177D02*
Y2331D01*
X3294Y2402*
X3014*
X2821Y2594*
X2128*
X2113Y2579*
X3436Y2177D02*
Y2165D01*
X3400Y2130*
X3341*
X3314Y2157*
Y2335*
X3278Y2370*
X3003*
X2810Y2563*
X2432*
X2270Y2402*
X2062*
X3475Y1917D02*
Y1905D01*
X3491Y1854D02*
Y1835D01*
X3396Y1740*
Y1622*
X3361Y1587*
X3562Y3315D02*
Y3331D01*
X3648Y2342D02*
X3652D01*
X3664Y929D02*
Y933D01*
D02*
D26*
X2877Y776D03*
X3321Y1161D03*
X3349Y748D03*
X3357Y1512D03*
X3562Y1827D03*
D02*
D27*
X2357Y2720D02*
X2172D01*
X2073Y2819*
X1522*
X1518Y2815*
X2770Y2720D02*
X2357D01*
X3121Y2862D02*
Y2779D01*
X3062Y2720*
X2770*
X3345Y1657D02*
X2947D01*
X2916Y1689*
X3562Y1827D02*
X3550D01*
X3443Y1720*
Y1598*
X3357Y1512*
X3664Y1027D02*
Y1047D01*
X3617Y1094*
X3436*
X3373Y1157*
X3325*
X3321Y1161*
D02*
D28*
X2522Y1583D03*
X2550Y1370D03*
X2565Y1583D03*
X2617D03*
X2668D03*
X2707Y1559D03*
X2723Y1520D03*
X2758Y1618D03*
X2766Y1504D03*
X2790Y1457D03*
X2794Y1413D03*
X2833Y1386D03*
D02*
D29*
X3577Y3449D02*
X3558D01*
X3459Y3547*
X2637*
X2636Y3548*
X3664Y1027D02*
X3715D01*
X3751Y992*
Y909*
X3589Y748*
X3349*
X3731Y3451D02*
X3580D01*
X3577Y3449*
X3754Y2252D02*
Y2728D01*
X3849Y2823*
Y3142*
X3794Y3197*
X3467*
X3416Y3248*
X3081*
X2995Y3161*
D02*
D72*
X317Y2795D02*
Y2996D01*
X817Y3496*
X1916*
X1959Y3539*
X0Y0D02*
M02*
