%FSLAX23Y23*%
%MOIN*%
G04 EasyPC Gerber Version 16.0.6 Build 3249 *
%ADD10C,0.00500*%
%ADD86C,0.10000*%
X0Y0D02*
D02*
D10*
X417Y2576D02*
Y2588D01*
X421Y2594*
X424Y2598*
X430Y2601*
X436*
X442Y2598*
X446Y2594*
X449Y2588*
Y2576*
X446Y2569*
X442Y2566*
X436Y2563*
X430*
X424Y2566*
X421Y2569*
X417Y2576*
Y2773D02*
Y2785D01*
X421Y2791*
X424Y2794*
X430Y2798*
X436*
X442Y2794*
X446Y2791*
X449Y2785*
Y2773*
X446Y2766*
X442Y2763*
X436Y2760*
X430*
X424Y2763*
X421Y2766*
X417Y2773*
X457Y1075D02*
Y1113D01*
X488*
X482Y1094D02*
X457D01*
Y1075D02*
X488D01*
X557D02*
Y1113D01*
X588*
X582Y1094D02*
X557D01*
Y1075D02*
X588D01*
X606Y821D02*
Y784D01*
X638*
X657Y1075D02*
Y1113D01*
X688*
X682Y1094D02*
X657D01*
Y1075D02*
X688D01*
X693Y1422D02*
Y1459D01*
X724Y1422*
Y1459*
X693Y3776D02*
Y3813D01*
X724Y3776*
Y3813*
X757Y1075D02*
Y1113D01*
X788*
X782Y1094D02*
X757D01*
Y1075D02*
X788D01*
X857D02*
Y1113D01*
X888*
X882Y1094D02*
X857D01*
Y1075D02*
X888D01*
X890Y4055D02*
Y4093D01*
X921Y4055*
Y4093*
X1079Y1006D02*
Y969D01*
X1110*
X1146Y4361D02*
Y4323D01*
X1177*
X1243Y1288D02*
X1255D01*
X1249D02*
Y1325D01*
X1243D02*
X1255D01*
X1297Y910D02*
X1309D01*
X1303D02*
Y947D01*
X1297D02*
X1309D01*
X1343Y1188D02*
X1355D01*
X1349D02*
Y1225D01*
X1343D02*
X1355D01*
X1397Y910D02*
X1409D01*
X1403D02*
Y947D01*
X1397D02*
X1409D01*
X1443Y1288D02*
X1455D01*
X1449D02*
Y1325D01*
X1443D02*
X1455D01*
X1437Y2593D02*
Y2555D01*
X1468*
X1445Y2498D02*
Y2461D01*
X1476*
X1497Y910D02*
X1509D01*
X1503D02*
Y947D01*
X1497D02*
X1509D01*
X1488Y2786D02*
Y2748D01*
X1520*
X1597Y910D02*
X1609D01*
X1603D02*
Y947D01*
X1597D02*
X1609D01*
X1618Y1809D02*
Y1772D01*
X1650*
X1618Y2912D02*
Y2874D01*
X1650*
X1620Y1914D02*
X1623Y1911D01*
X1629Y1908*
X1635Y1911*
X1638Y1914*
Y1945*
X1645*
X1638D02*
X1626D01*
X1620Y2014D02*
X1623Y2011D01*
X1629Y2008*
X1635Y2011*
X1638Y2014*
Y2045*
X1645*
X1638D02*
X1626D01*
X1620Y2114D02*
X1623Y2111D01*
X1629Y2108*
X1635Y2111*
X1638Y2114*
Y2145*
X1645*
X1638D02*
X1626D01*
X1677Y4055D02*
Y4093D01*
X1709Y4055*
Y4093*
X1697Y910D02*
X1709D01*
X1703D02*
Y947D01*
X1697D02*
X1709D01*
X1720Y1914D02*
X1723Y1911D01*
X1729Y1908*
X1735Y1911*
X1738Y1914*
Y1945*
X1745*
X1738D02*
X1726D01*
X1720Y2014D02*
X1723Y2011D01*
X1729Y2008*
X1735Y2011*
X1738Y2014*
Y2045*
X1745*
X1738D02*
X1726D01*
X1720Y2114D02*
X1723Y2111D01*
X1729Y2108*
X1735Y2111*
X1738Y2114*
Y2145*
X1745*
X1738D02*
X1726D01*
X1721Y2739D02*
Y2701D01*
X1752*
X1797Y910D02*
X1809D01*
X1803D02*
Y947D01*
X1797D02*
X1809D01*
X1807Y1173D02*
Y1211D01*
Y1192D02*
X1817D01*
X1838Y1211*
X1817Y1192D02*
X1838Y1173D01*
X1807Y1410D02*
Y1447D01*
Y1428D02*
X1817D01*
X1838Y1447*
X1817Y1428D02*
X1838Y1410D01*
X1866Y2431D02*
Y2394D01*
X1898*
X1897Y910D02*
X1909D01*
X1903D02*
Y947D01*
X1897D02*
X1909D01*
X1910Y2652D02*
Y2614D01*
X1941*
X1971Y3815D02*
Y3853D01*
X1990*
X1996Y3850*
X1999Y3846*
X2002Y3840*
Y3828*
X1999Y3821*
X1996Y3818*
X1990Y3815*
X1971*
X1984Y1173D02*
Y1211D01*
Y1192D02*
X1994D01*
X2016Y1211*
X1994Y1192D02*
X2016Y1173D01*
X1984Y1410D02*
Y1447D01*
Y1428D02*
X1994D01*
X2016Y1447*
X1994Y1428D02*
X2016Y1410D01*
X1997Y910D02*
X2009D01*
X2003D02*
Y947D01*
X1997D02*
X2009D01*
X2004Y1868D02*
Y1831D01*
X2035*
X2008Y1294D02*
Y1256D01*
X2039*
X2024Y2059D02*
Y2097D01*
X2055*
X2049Y2078D02*
X2024D01*
Y2059D02*
X2055D01*
X2071Y3815D02*
Y3853D01*
X2090*
X2096Y3850*
X2099Y3846*
X2102Y3840*
Y3828*
X2099Y3821*
X2096Y3818*
X2090Y3815*
X2071*
X2097Y2795D02*
X2106D01*
Y2792*
X2103Y2786*
X2100Y2783*
X2094Y2780*
X2087*
X2081Y2783*
X2078Y2786*
X2075Y2792*
Y2805*
X2078Y2811*
X2081Y2814*
X2087Y2817*
X2094*
X2100Y2814*
X2103Y2811*
X2106Y2805*
X2097Y3295D02*
X2106D01*
Y3292*
X2103Y3286*
X2100Y3283*
X2094Y3280*
X2087*
X2081Y3283*
X2078Y3286*
X2075Y3292*
Y3305*
X2078Y3311*
X2081Y3314*
X2087Y3317*
X2094*
X2100Y3314*
X2103Y3311*
X2106Y3305*
X2097Y910D02*
X2109D01*
X2103D02*
Y947D01*
X2097D02*
X2109D01*
X2162Y2498D02*
Y2461D01*
X2193*
X2165Y1455D02*
Y1418D01*
X2197*
X2165Y2059D02*
Y2097D01*
X2197*
X2190Y2078D02*
X2165D01*
Y2059D02*
X2197D01*
X2171Y3815D02*
Y3853D01*
X2190*
X2196Y3850*
X2199Y3846*
X2202Y3840*
Y3828*
X2199Y3821*
X2196Y3818*
X2190Y3815*
X2171*
X2197Y910D02*
X2209D01*
X2203D02*
Y947D01*
X2197D02*
X2209D01*
X2201Y2274D02*
Y2236D01*
X2232*
X2213Y2676D02*
Y2638D01*
X2244*
X2297Y910D02*
X2309D01*
X2303D02*
Y947D01*
X2297D02*
X2309D01*
X2299Y1601D02*
Y1563D01*
X2331*
X2299Y2059D02*
Y2097D01*
X2331*
X2324Y2078D02*
X2299D01*
Y2059D02*
X2331D01*
X2339Y1553D02*
Y1516D01*
X2370*
X2347Y2922D02*
Y2959D01*
X2378*
X2372Y2940D02*
X2347D01*
Y3221D02*
Y3258D01*
X2378*
X2372Y3239D02*
X2347D01*
X2397Y910D02*
X2409D01*
X2403D02*
Y947D01*
X2397D02*
X2409D01*
X2445Y1991D02*
Y1953D01*
X2476*
X2449Y3928D02*
Y3890D01*
X2480*
X2457Y2817D02*
Y2780D01*
X2488*
X2457Y3211D02*
Y3173D01*
X2488*
X2465Y4055D02*
Y4093D01*
X2496Y4055*
Y4093*
X2497Y910D02*
X2509D01*
X2503D02*
Y947D01*
X2497D02*
X2509D01*
X2516Y1833D02*
Y1796D01*
X2547*
X2563Y2246D02*
Y2209D01*
X2594*
X2567Y1798D02*
Y1760D01*
X2598*
X2597Y910D02*
X2609D01*
X2603D02*
Y947D01*
X2597D02*
X2609D01*
X2622Y1654D02*
Y1667D01*
X2625Y1673*
X2628Y1676*
X2635Y1679*
X2641*
X2647Y1676*
X2650Y1673*
X2653Y1667*
Y1654*
X2650Y1648*
X2647Y1645*
X2641Y1642*
X2635*
X2628Y1645*
X2625Y1648*
X2622Y1654*
X2644Y1651D02*
X2653Y1642D01*
X2622Y2593D02*
Y2555D01*
X2653*
X2650Y1442D02*
Y1454D01*
X2653Y1461*
X2656Y1464*
X2662Y1467*
X2668*
X2675Y1464*
X2678Y1461*
X2681Y1454*
Y1442*
X2678Y1436*
X2675Y1433*
X2668Y1429*
X2662*
X2656Y1433*
X2653Y1436*
X2650Y1442*
X2672Y1439D02*
X2681Y1429D01*
X2650Y2209D02*
Y2246D01*
X2681*
X2675Y2228D02*
X2650D01*
Y2209D02*
X2681D01*
X2665Y1654D02*
Y1667D01*
X2669Y1673*
X2672Y1676*
X2678Y1679*
X2684*
X2690Y1676*
X2694Y1673*
X2697Y1667*
Y1654*
X2694Y1648*
X2690Y1645*
X2684Y1642*
X2678*
X2672Y1645*
X2669Y1648*
X2665Y1654*
X2687Y1651D02*
X2697Y1642D01*
X2685Y1991D02*
Y1953D01*
X2716*
X2697Y910D02*
X2709D01*
X2703D02*
Y947D01*
X2697D02*
X2709D01*
X2689Y2443D02*
Y2406D01*
X2720*
X2697Y2345D02*
Y2307D01*
X2728*
X2717Y1654D02*
Y1667D01*
X2720Y1673*
X2723Y1676*
X2729Y1679*
X2735*
X2742Y1676*
X2745Y1673*
X2748Y1667*
Y1654*
X2745Y1648*
X2742Y1645*
X2735Y1642*
X2729*
X2723Y1645*
X2720Y1648*
X2717Y1654*
X2739Y1651D02*
X2748Y1642D01*
X2728Y4361D02*
Y4323D01*
X2760*
X2736Y2246D02*
Y2209D01*
X2768*
X2746Y3457D02*
X2758D01*
X2752D02*
Y3494D01*
X2746D02*
X2758D01*
X2746Y3532D02*
X2758D01*
X2752D02*
Y3569D01*
X2746D02*
X2758D01*
X2746Y3607D02*
X2758D01*
X2752D02*
Y3644D01*
X2746D02*
X2758D01*
X2768Y1654D02*
Y1667D01*
X2771Y1673*
X2774Y1676*
X2780Y1679*
X2787*
X2793Y1676*
X2796Y1673*
X2799Y1667*
Y1654*
X2796Y1648*
X2793Y1645*
X2787Y1642*
X2780*
X2774Y1645*
X2771Y1648*
X2768Y1654*
X2790Y1651D02*
X2799Y1642D01*
X2797Y910D02*
X2809D01*
X2803D02*
Y947D01*
X2797D02*
X2809D01*
X2807Y1631D02*
Y1643D01*
X2810Y1650*
X2813Y1653*
X2820Y1656*
X2826*
X2832Y1653*
X2835Y1650*
X2838Y1643*
Y1631*
X2835Y1625*
X2832Y1621*
X2826Y1618*
X2820*
X2813Y1621*
X2810Y1625*
X2807Y1631*
X2829Y1628D02*
X2838Y1618D01*
X2823Y1408D02*
Y1370D01*
X2854*
X2823Y1591D02*
Y1604D01*
X2826Y1610*
X2829Y1613*
X2835Y1616*
X2842*
X2848Y1613*
X2851Y1610*
X2854Y1604*
Y1591*
X2851Y1585*
X2848Y1582*
X2842Y1579*
X2835*
X2829Y1582*
X2826Y1585*
X2823Y1591*
X2845Y1588D02*
X2854Y1579D01*
X2858Y1690D02*
Y1702D01*
X2862Y1709*
X2865Y1712*
X2871Y1715*
X2877*
X2883Y1712*
X2887Y1709*
X2890Y1702*
Y1690*
X2887Y1684*
X2883Y1681*
X2877Y1677*
X2871*
X2865Y1681*
X2862Y1684*
X2858Y1690*
X2880Y1687D02*
X2890Y1677D01*
X2866Y1576D02*
Y1588D01*
X2869Y1594*
X2873Y1598*
X2879Y1601*
X2885*
X2891Y1598*
X2894Y1594*
X2898Y1588*
Y1576*
X2894Y1569*
X2891Y1566*
X2885Y1563*
X2879*
X2873Y1566*
X2869Y1569*
X2866Y1576*
X2888Y1573D02*
X2898Y1563D01*
X2870Y2817D02*
Y2780D01*
X2901*
X2878Y2006D02*
Y1969D01*
X2909*
X2890Y1528D02*
Y1541D01*
X2893Y1547*
X2896Y1550*
X2902Y1553*
X2909*
X2915Y1550*
X2918Y1547*
X2921Y1541*
Y1528*
X2918Y1522*
X2915Y1519*
X2909Y1516*
X2902*
X2896Y1519*
X2893Y1522*
X2890Y1528*
X2912Y1525D02*
X2921Y1516D01*
X2894Y1485D02*
Y1498D01*
X2897Y1504*
X2900Y1507*
X2906Y1510*
X2913*
X2919Y1507*
X2922Y1504*
X2925Y1498*
Y1485*
X2922Y1479*
X2919Y1476*
X2913Y1473*
X2906*
X2900Y1476*
X2897Y1479*
X2894Y1485*
X2916Y1482D02*
X2925Y1473D01*
X2933Y1458D02*
Y1470D01*
X2936Y1476*
X2939Y1480*
X2946Y1483*
X2952*
X2958Y1480*
X2961Y1476*
X2964Y1470*
Y1458*
X2961Y1451*
X2958Y1448*
X2952Y1445*
X2946*
X2939Y1448*
X2936Y1451*
X2933Y1458*
X2955Y1455D02*
X2964Y1445D01*
X2933Y1703D02*
Y1666D01*
X2964*
X2941Y2498D02*
Y2461D01*
X2972*
X2973Y2908D02*
Y2870D01*
X3004*
X2977Y835D02*
Y872D01*
X2998*
X3005Y869*
X3008Y863*
X3005Y857*
X2998Y854*
X2977*
X2992Y3471D02*
Y3433D01*
X3024*
X3016Y1786D02*
Y1748D01*
X3047*
X3016Y2735D02*
Y2697D01*
X3047*
X3095Y3221D02*
Y3258D01*
X3126*
X3120Y3239D02*
X3095D01*
X3134Y3128D02*
Y3091D01*
X3165*
X3150Y1839D02*
Y1876D01*
X3181*
X3175Y1858D02*
X3150D01*
Y1839D02*
X3181D01*
X3158Y2313D02*
Y2276D01*
X3189*
X3199Y3524D02*
X3209D01*
Y3521*
X3205Y3514*
X3202Y3511*
X3196Y3508*
X3190*
X3184Y3511*
X3180Y3514*
X3177Y3521*
Y3533*
X3180Y3539*
X3184Y3542*
X3190Y3546*
X3196*
X3202Y3542*
X3205Y3539*
X3209Y3533*
X3181Y2573D02*
Y2536D01*
X3212*
X3221Y2922D02*
Y2959D01*
X3252*
X3246Y2940D02*
X3221D01*
X3252Y4055D02*
Y4093D01*
X3283Y4055*
Y4093*
X3280Y3455D02*
Y3418D01*
X3311*
X3284Y1839D02*
Y1876D01*
X3315*
X3309Y1858D02*
X3284D01*
Y1839D02*
X3315D01*
X3347Y3221D02*
Y3258D01*
X3378*
X3372Y3239D02*
X3347D01*
X3417Y2057D02*
Y2020D01*
X3449*
X3421Y1221D02*
Y1258D01*
X3443*
X3450Y1255*
X3453Y1249*
X3450Y1243*
X3443Y1239*
X3421*
Y1839D02*
Y1876D01*
X3453*
X3446Y1858D02*
X3421D01*
Y1839D02*
X3453D01*
X3445Y1168D02*
Y1130D01*
X3476*
X3445Y1754D02*
Y1717D01*
X3476*
X3449Y807D02*
Y845D01*
X3471*
X3477Y842*
X3480Y835*
X3477Y829*
X3471Y826*
X3449*
Y1422D02*
Y1459D01*
X3480Y1422*
Y1459*
X3449Y3776D02*
Y3813D01*
X3480Y3776*
Y3813*
X3457Y1571D02*
Y1609D01*
X3479*
X3485Y1605*
X3488Y1599*
X3485Y1593*
X3479Y1590*
X3457*
X3461Y1683D02*
Y1646D01*
X3492*
X3465Y2274D02*
Y2236D01*
X3496*
X3477Y2483D02*
Y2445D01*
X3508*
X3504Y998D02*
Y961D01*
X3535*
X3504Y1077D02*
Y1040D01*
X3535*
X3528Y2368D02*
Y2331D01*
X3559*
X3536Y2274D02*
Y2236D01*
X3567*
X3575Y2014D02*
Y1977D01*
X3606*
X3591Y1951D02*
Y1914D01*
X3622*
X3662Y1886D02*
Y1924D01*
X3683*
X3690Y1920*
X3693Y1914*
X3690Y1908*
X3683Y1905*
X3662*
Y3412D02*
Y3374D01*
X3693*
X3665Y2191D02*
Y2154D01*
X3697*
X3699Y3524D02*
X3709D01*
Y3521*
X3705Y3514*
X3702Y3511*
X3696Y3508*
X3690*
X3684Y3511*
X3680Y3514*
X3677Y3521*
Y3533*
X3680Y3539*
X3684Y3542*
X3690Y3546*
X3696*
X3702Y3542*
X3705Y3539*
X3709Y3533*
X3685Y988D02*
Y1026D01*
X3716*
X3710Y1007D02*
X3685D01*
Y988D02*
X3716D01*
X3685Y1087D02*
Y1124D01*
X3716*
X3710Y1106D02*
X3685D01*
Y1087D02*
X3716D01*
X3732Y2311D02*
Y2349D01*
X3764*
X3757Y2330D02*
X3732D01*
Y2311D02*
X3764D01*
X3748Y2439D02*
Y2402D01*
X3779*
X3764Y988D02*
Y1026D01*
X3795*
X3789Y1007D02*
X3764D01*
Y988D02*
X3795D01*
X3764Y1087D02*
Y1124D01*
X3795*
X3789Y1106D02*
X3764D01*
Y1087D02*
X3795D01*
X3831Y3050D02*
Y3087D01*
X3862*
X3856Y3069D02*
X3831D01*
Y3050D02*
X3862D01*
X3831Y3150D02*
Y3187D01*
X3862*
X3856Y3169D02*
X3831D01*
Y3150D02*
X3862D01*
X3831Y3366D02*
Y3404D01*
X3862*
X3856Y3385D02*
X3831D01*
Y3366D02*
X3862D01*
X3831Y3510D02*
Y3548D01*
X3862*
X3856Y3529D02*
X3831D01*
Y3510D02*
X3862D01*
X3831Y3610D02*
Y3648D01*
X3862*
X3856Y3629D02*
X3831D01*
Y3610D02*
X3862D01*
X3854Y2311D02*
Y2349D01*
X3886*
X3879Y2330D02*
X3854D01*
Y2311D02*
X3886D01*
X3870Y801D02*
Y839D01*
Y820D02*
X3901D01*
Y801D02*
Y839D01*
X3870Y1274D02*
Y1312D01*
Y1293D02*
X3901D01*
Y1274D02*
Y1312D01*
D02*
D86*
X317Y2504D03*
Y2701D03*
X357Y1016D03*
X457D03*
X506Y724D03*
X557Y1016D03*
X593Y1362D03*
Y3716D03*
X657Y1016D03*
X757D03*
X790Y3996D03*
X979Y909D03*
X1046Y4264D03*
X1133Y1228D03*
X1188Y850D03*
X1233Y1128D03*
X1288Y850D03*
X1333Y1228D03*
X1337Y2496D03*
X1345Y2402D03*
X1388Y850D03*
X1388Y2689D03*
X1488Y850D03*
X1518Y1713D03*
Y2815D03*
X1520Y1848D03*
Y1948D03*
Y2048D03*
X1577Y3996D03*
X1588Y850D03*
X1620Y1848D03*
Y1948D03*
Y2048D03*
X1621Y2642D03*
X1688Y850D03*
X1707Y1114D03*
Y1350D03*
X1766Y2335D03*
X1788Y850D03*
X1810Y2555D03*
X1871Y3756D03*
X1884Y1114D03*
Y1350D03*
X1888Y850D03*
X1904Y1772D03*
X1908Y1197D03*
X1924Y2000D03*
X1971Y3756D03*
X1975Y2720D03*
Y3220D03*
X1988Y850D03*
X2062Y2402D03*
X2065Y1358D03*
Y2000D03*
X2071Y3756D03*
X2088Y850D03*
X2101Y2177D03*
X2113Y2579D03*
X2188Y850D03*
X2199Y1504D03*
Y2000D03*
X2239Y1457D03*
X2247Y2862D03*
Y3161D03*
X2288Y850D03*
X2345Y1894D03*
X2349Y3831D03*
X2357Y2720D03*
Y3114D03*
X2365Y3996D03*
X2388Y850D03*
X2416Y1736D03*
X2463Y2150D03*
X2467Y1701D03*
X2488Y850D03*
X2522Y1583D03*
Y2496D03*
X2550Y1370D03*
Y2150D03*
X2565Y1583D03*
X2585Y1894D03*
X2588Y850D03*
X2589Y2346D03*
X2597Y2248D03*
X2617Y1583D03*
X2628Y4264D03*
X2636Y2150D03*
Y3398D03*
Y3473D03*
Y3548D03*
X2668Y1583D03*
X2688Y850D03*
X2707Y1559D03*
X2723Y1311D03*
Y1520D03*
X2758Y1618D03*
X2766Y1504D03*
X2770Y2720D03*
X2778Y1909D03*
X2790Y1457D03*
X2794Y1413D03*
X2833Y1386D03*
Y1606D03*
X2841Y2402D03*
X2873Y2811D03*
X2877Y776D03*
X2892Y3374D03*
X2916Y1689D03*
Y2638D03*
X2995Y3161D03*
X3034Y3031D03*
X3050Y1779D03*
X3058Y2216D03*
X3077Y3449D03*
X3081Y2476D03*
X3121Y2862D03*
X3152Y3996D03*
X3180Y3358D03*
X3184Y1779D03*
X3247Y3161D03*
X3317Y1961D03*
X3321Y1161D03*
Y1779D03*
X3345Y1071D03*
Y1657D03*
X3349Y748D03*
Y1362D03*
Y3716D03*
X3357Y1512D03*
X3361Y1587D03*
X3365Y2177D03*
X3377Y2386D03*
X3404Y902D03*
Y980D03*
X3428Y2272D03*
X3436Y2177D03*
X3475Y1917D03*
X3491Y1854D03*
X3562Y1827D03*
Y3315D03*
X3565Y2094D03*
X3577Y3449D03*
X3585Y929D03*
Y1027D03*
X3632Y2252D03*
X3648Y2342D03*
X3664Y929D03*
Y1027D03*
X3731Y2990D03*
Y3090D03*
Y3307D03*
Y3451D03*
Y3551D03*
X3754Y2252D03*
X3770Y742D03*
Y1215D03*
X0Y0D02*
M02*
