%FSLAX23Y23*%
%MOIN*%
G04 EasyPC Gerber Version 16.0.6 Build 3249 *
%ADD83O,0.06600X0.11600*%
%ADD76R,0.02750X0.08000*%
%ADD19R,0.03100X0.08600*%
%ADD29R,0.04537X0.04891*%
%ADD25R,0.04600X0.05400*%
%ADD71R,0.06100X0.06600*%
%ADD77R,0.06100X0.08600*%
%ADD82R,0.06600X0.11600*%
%ADD72R,0.07600X0.13200*%
%ADD20R,0.06600X0.06600*%
%ADD79R,0.06900X0.06900*%
%ADD80R,0.08100X0.08100*%
%ADD87C,0.03800*%
%ADD85C,0.05400*%
%ADD86C,0.06200*%
%ADD21C,0.06600*%
%ADD73C,0.06600*%
%ADD84C,0.07600*%
%ADD18C,0.07600*%
%ADD81C,0.08100*%
%ADD26C,0.08474*%
%ADD27C,0.09200*%
%ADD28C,0.13986*%
%ADD17C,0.16348*%
%ADD74R,0.05200X0.02000*%
%ADD75R,0.08000X0.02750*%
%ADD22R,0.08400X0.02800*%
%ADD23R,0.06600X0.06100*%
%ADD24R,0.08600X0.06100*%
%ADD70R,0.12800X0.07700*%
%ADD78R,0.22254X0.08474*%
X0Y0D02*
D02*
D17*
X440Y576D03*
X593Y3485D03*
X790Y3765D03*
X1577D03*
X2365D03*
X3152D03*
X3349Y3481D03*
X3503Y580D03*
D02*
D18*
X1871Y3525D03*
X1971D03*
X2071D03*
D02*
D19*
X754Y1958D03*
Y2178D03*
X804Y1958D03*
Y2178D03*
X854Y1958D03*
Y2178D03*
X904Y1958D03*
Y2178D03*
X954Y1958D03*
Y2178D03*
X1004Y1958D03*
Y2178D03*
X1054Y1958D03*
Y2178D03*
D02*
D70*
X1778Y3045D03*
Y3265D03*
X1975Y3045D03*
Y3265D03*
X2172Y3045D03*
Y3265D03*
X2369Y3045D03*
Y3265D03*
X2565Y3045D03*
Y3265D03*
X2762Y3045D03*
Y3265D03*
X2959Y3045D03*
Y3265D03*
X3156Y3045D03*
Y3265D03*
X3353Y3045D03*
Y3265D03*
X3550Y3045D03*
Y3265D03*
D02*
D71*
X251Y1917D03*
Y2007D03*
X254Y2121D03*
Y2211D03*
X310Y649D03*
Y739D03*
X384Y1917D03*
Y2007D03*
Y2121D03*
Y2211D03*
X514Y1917D03*
Y2007D03*
Y2121D03*
Y2211D03*
X640Y2121D03*
Y2211D03*
X751Y921D03*
Y1011D03*
X841Y779D03*
Y869D03*
X959Y779D03*
Y869D03*
X1077Y779D03*
Y869D03*
X1168Y2031D03*
Y2121D03*
X1191Y779D03*
Y869D03*
X1223Y3361D03*
Y3451D03*
X1306Y779D03*
Y869D03*
X1314Y2031D03*
Y2121D03*
X1341Y3361D03*
Y3451D03*
X1420Y2031D03*
Y2121D03*
X1542Y1676D03*
Y1766D03*
Y2031D03*
Y2121D03*
X1849Y1676D03*
Y1766D03*
X2109Y759D03*
Y849D03*
X2396Y1302D03*
Y1392D03*
X2530Y665D03*
Y755D03*
X2597Y2428D03*
Y2518D03*
Y2649D03*
Y2739D03*
X2754Y2428D03*
Y2518D03*
Y2649D03*
Y2739D03*
X2904Y2428D03*
Y2518D03*
Y2649D03*
Y2739D03*
X3278Y665D03*
Y755D03*
X3369Y2267D03*
Y2357D03*
X3384Y1495D03*
Y1585D03*
D02*
D20*
X223Y2469D03*
X900Y1009D03*
X3707Y2552D03*
X3751Y3206D03*
D02*
D21*
X223Y2569D03*
X396Y1363D03*
Y1462D03*
X475Y1363D03*
Y1462D03*
X1000Y1009D03*
X1100D03*
X1200D03*
X1300D03*
X3707Y2652D03*
X3751Y3106D03*
D02*
D22*
X1217Y1260D03*
Y1310D03*
Y1360D03*
Y1410D03*
Y1460D03*
Y1510D03*
Y1560D03*
X1403Y1260D03*
Y1310D03*
Y1360D03*
Y1410D03*
Y1460D03*
Y1510D03*
Y1560D03*
X1965Y1245D03*
Y1295D03*
Y1345D03*
Y1395D03*
Y1445D03*
Y1495D03*
Y1545D03*
X2151Y1245D03*
Y1295D03*
Y1345D03*
Y1395D03*
Y1445D03*
Y1495D03*
Y1545D03*
D02*
D23*
X395Y2588D03*
X485D03*
X749Y1359D03*
Y1477D03*
X839Y1359D03*
Y1477D03*
X839Y580D03*
X929D03*
X1217D03*
X1276Y1702D03*
X1307Y580D03*
X1366Y1702D03*
X1725Y1505D03*
X1815D03*
X2725Y836D03*
X2815D03*
X3087Y1714D03*
X3177D03*
D02*
D24*
X668Y2589D03*
X778Y2588D03*
X1999Y1699D03*
X2109Y1698D03*
D02*
D25*
X1655Y1768D03*
X1695Y1681D03*
X1735Y1768D03*
D02*
D26*
X243Y2824D03*
X369Y3123D03*
X495Y2824D03*
X1243D03*
Y3123D03*
D02*
D27*
X1471Y2714D03*
Y3214D03*
X3085Y2737D03*
X3585D03*
D02*
D28*
X290Y1176D03*
Y1649D03*
D02*
D29*
X743Y1190D03*
Y1260D03*
Y1576D03*
Y1646D03*
D02*
D72*
X249Y954D03*
X449D03*
D02*
D73*
X2169Y2462D03*
X2269Y2362D03*
X2369Y2462D03*
X3293Y2548D03*
X3368D03*
X3443D03*
D02*
D74*
X1142Y3857D03*
Y3883D03*
Y3908D03*
X1225Y3857D03*
Y3908D03*
X2717Y3857D03*
Y3883D03*
Y3908D03*
X2800Y3857D03*
Y3908D03*
D02*
D75*
X2628Y1087D03*
Y1125D03*
Y1166D03*
Y1205D03*
Y1245D03*
Y1284D03*
Y1323D03*
Y1363D03*
Y1402D03*
Y1441D03*
Y1481D03*
X3232Y1087D03*
Y1125D03*
Y1166D03*
Y1205D03*
Y1245D03*
Y1284D03*
Y1323D03*
Y1363D03*
Y1402D03*
Y1441D03*
Y1481D03*
D02*
D76*
X2733Y982D03*
Y1585D03*
X2772Y982D03*
Y1585D03*
X2812Y982D03*
Y1585D03*
X2851Y982D03*
Y1585D03*
X2891Y982D03*
Y1585D03*
X2930Y982D03*
Y1585D03*
X2969Y982D03*
Y1585D03*
X3009Y982D03*
Y1585D03*
X3048Y982D03*
Y1585D03*
X3088Y982D03*
Y1585D03*
X3127Y982D03*
Y1585D03*
D02*
D77*
X215Y627D03*
X216Y737D03*
D02*
D78*
X2723Y666D03*
X3097D03*
D02*
D79*
X2243Y714D03*
Y848D03*
D02*
D80*
X1615Y896D03*
D02*
D81*
Y996D03*
X1715Y896D03*
Y996D03*
X1815Y896D03*
Y996D03*
D02*
D82*
X2188Y2013D03*
D02*
D83*
X2288D03*
X2388D03*
X2488D03*
X2588D03*
X2688D03*
X2788D03*
X2888D03*
X2988D03*
X3088D03*
X3188D03*
X3288D03*
X3388D03*
X3488D03*
X3588D03*
X3688D03*
D02*
D84*
X1573Y544D03*
Y721D03*
X1810Y544D03*
Y721D03*
D02*
D85*
X317Y2123D03*
X632Y2021D03*
X664Y1745D03*
X715Y2942D03*
X766Y2879D03*
X810Y1639D03*
X825Y1194D03*
X884Y2560D03*
X908Y1477D03*
X1042D03*
X1046Y3910D03*
X1065Y580D03*
X1125Y1241D03*
X1132Y1954D03*
X1239Y1969D03*
X1243Y2135D03*
X1302Y1592D03*
X1306Y1178D03*
X1314Y1792D03*
X1384Y1186D03*
X1388Y875D03*
X1503Y1592D03*
X1514Y1072D03*
X1546Y1336D03*
X1636Y1603D03*
X1656Y1454D03*
X1691Y3993D03*
X1695Y3879D03*
X1699Y2399D03*
X1794Y1245D03*
X1955Y757D03*
X1999Y599D03*
X2054Y1603D03*
X2093Y576D03*
X2148Y1599D03*
X2195Y966D03*
X2199Y3875D03*
X2203Y1690D03*
X2234Y1401D03*
X2243Y3950D03*
X2262Y1210D03*
X2467Y1410D03*
X2487Y1040D03*
X2518Y1363D03*
X2613Y3903D03*
X2684Y757D03*
X2715Y1422D03*
X2754Y2182D03*
X2782Y1056D03*
X2900Y1702D03*
X2967D03*
X2975Y867D03*
X2983Y2265D03*
X2999Y1119D03*
X3018Y816D03*
X3113Y1796D03*
X3117Y1257D03*
Y1324D03*
Y1391D03*
X3239Y1843D03*
X3262Y2174D03*
X3337Y1056D03*
Y1206D03*
X3384Y1166D03*
Y1324D03*
X3396Y773D03*
X3440Y1682D03*
D02*
D86*
X199Y1084D03*
X644Y1107D03*
X1597Y1899D03*
X1790Y1903D03*
X1802Y2820D03*
X2058Y989D03*
X2314Y1261D03*
D02*
D87*
X802Y2253D03*
X806Y1843D03*
X955Y1875D03*
X979Y1698D03*
X1132Y1729D03*
X2085Y1261D03*
X0Y0D02*
M02*
