%FSLAX23Y23*%
%MOIN*%
G04 EasyPC Gerber Version 16.0.6 Build 3249 *
%ADD114O,0.06000X0.11000*%
%ADD113R,0.06000X0.11000*%
%ADD93R,0.06000X0.06000*%
%ADD111R,0.07500X0.07500*%
%ADD10C,0.00500*%
%ADD13C,0.01000*%
%ADD116C,0.01500*%
%ADD123C,0.02000*%
%ADD121C,0.02500*%
%ADD120C,0.03200*%
%ADD118C,0.04800*%
%ADD122C,0.05000*%
%ADD119C,0.05600*%
%ADD94C,0.06000*%
%ADD104C,0.06000*%
%ADD115C,0.07000*%
%ADD89C,0.07000*%
%ADD112C,0.07500*%
%ADD99C,0.07874*%
%ADD100C,0.08600*%
%ADD101C,0.13386*%
%ADD88C,0.15748*%
X0Y0D02*
D02*
D10*
X28Y365D02*
X3915D01*
Y4252*
X28*
Y365*
X98Y1132D02*
G75*
G02X87Y1158I26J27D01*
G01*
Y2710*
G75*
G02X98Y2736I38*
G01*
X191Y2829*
G75*
G02X295Y2824I52J-5*
G01*
G75*
G02X240Y2772I-52*
G01*
X162Y2694*
Y1174*
X215Y1121*
G75*
G02X231Y1109I-16J-37*
G01*
X248*
G75*
G02X290Y1255I42J67*
G01*
G75*
G02X333Y1109J-79*
G01*
X604*
G75*
G02X685Y1107I40J-1*
G01*
G75*
G02X639Y1067I-41*
G01*
X638Y1066*
G75*
G02X621Y1059I-18J18*
G01*
X231*
G75*
G02X162Y1068I-32J25*
G01*
X98Y1132*
X223Y2527D02*
G75*
G02Y2612J43D01*
G01*
G75*
G02Y2527J-43*
G01*
X265Y2427D02*
X180D01*
Y2512*
X265*
Y2427*
X294Y2151D02*
G75*
G02X354Y2123I23J-28D01*
G01*
G75*
G02X337Y2092I-37*
G01*
Y1871*
X393Y1816*
X797*
G75*
G02X777Y1843I8J27*
G01*
G75*
G02X826Y1863I29*
G01*
X833*
G75*
G02X847Y1858J-20*
G01*
X979Y1726*
G75*
G02X992Y1723I0J-29*
G01*
X941Y1774*
G75*
G02X935Y1788I14J14*
G01*
Y1855*
G75*
G02X927Y1875I20J20*
G01*
G75*
G02X984I29*
G01*
G75*
G02X975Y1855I-29*
G01*
Y1797*
X1062Y1710*
X1112*
X1111Y1710*
G75*
G02X1103Y1715I5J19*
G01*
X1024Y1794*
G75*
G02X1018Y1808I14J14*
G01*
Y2253*
X990Y2280*
X857*
X830Y2253*
Y2253*
G75*
G02X773I-29*
G01*
G75*
G02X802Y2281I29*
G01*
X835Y2314*
G75*
G02X849Y2320I14J-14*
G01*
X999*
G75*
G02X1013Y2314J-20*
G01*
X1052Y2275*
G75*
G02X1058Y2261I-14J-14*
G01*
Y1816*
X1120Y1755*
G75*
G02X1153Y1710I13J-25*
G01*
X2125*
G75*
G02X2139Y1704J-20*
G01*
X2173Y1670*
G75*
G02X2167Y1690I31J20*
G01*
G75*
G02X2240I37*
G01*
G75*
G02X2184Y1659I-37*
G01*
X2248Y1595*
G75*
G02X2254Y1581I-14J-14*
G01*
Y1432*
G75*
G02X2259Y1375I-20J-31*
G01*
X2404*
X2431Y1403*
G75*
G02X2431Y1410I36J7*
G01*
G75*
G02X2504I37*
G01*
G75*
G02X2500Y1395I-37J0*
G01*
G75*
G02X2555Y1363I18J-32*
G01*
G75*
G02X2511Y1327I-37*
G01*
X2493Y1310*
G75*
G02X2479Y1304I-14J14*
G01*
X2203*
G75*
G02X2189Y1310J20*
G01*
X2136Y1363*
X1570*
G75*
G02X1578Y1353I-24J-27*
G01*
X1703*
G75*
G02X1716Y1348J-18*
G01*
X1784Y1280*
G75*
G02X1830Y1245I10J-35*
G01*
G75*
G02X1763Y1225I-37*
G01*
X1571Y1033*
Y1019*
G75*
G02X1607Y1045I44J-23*
G01*
G75*
G02X1610Y1047I9J-18*
G01*
X1648Y1084*
G75*
G02X1660Y1089I12J-12*
G01*
X1888*
G75*
G02X1901Y1084J-18*
G01*
X1964Y1021*
G75*
G02X1969Y1009I-12J-12*
G01*
Y791*
G75*
G02X1969Y723I-14J-34*
G01*
X2346*
X2754Y1131*
G75*
G02X2766Y1137I12J-12*
G01*
X2967*
G75*
G02X3035Y1119I32J-18*
G01*
G75*
G02X2967Y1102I-37*
G01*
X2774*
X2365Y693*
G75*
G02X2353Y688I-12J12*
G01*
X1908*
G75*
G02X1896Y693J18*
G01*
X1856Y733*
G75*
G02X1857Y721I-46J-12*
G01*
G75*
G02X1762I-48*
G01*
G75*
G02X1787Y763I48*
G01*
X1596*
G75*
G02X1621Y721I-23J-42*
G01*
G75*
G02X1526I-48*
G01*
G75*
G02X1550Y763I48*
G01*
X1542*
G75*
G02X1529Y768J18*
G01*
X1440Y857*
X1420*
G75*
G02X1352Y875I-32J18*
G01*
G75*
G02X1420Y892I37*
G01*
X1447*
G75*
G02X1460Y887J-18*
G01*
X1549Y798*
X1833*
G75*
G02X1846Y793J-18*
G01*
X1915Y723*
X1941*
G75*
G02X1934Y786I14J34*
G01*
Y1002*
X1881Y1054*
X1667*
X1647Y1035*
G75*
G02X1615Y946I-32J-38*
G01*
G75*
G02X1571Y973J50*
G01*
Y953*
X1578Y946*
X1665*
Y846*
X1565*
Y909*
X1541Y933*
G75*
G02X1536Y946I12J12*
G01*
Y1040*
G75*
G02X1536Y1043I17J0*
G01*
G75*
G02X1478Y1068I-22J29*
G01*
X1395Y1151*
G75*
G02X1348Y1186I-10J35*
G01*
G75*
G02X1421I37*
G01*
G75*
G02X1419Y1176I-37*
G01*
X1493Y1102*
G75*
G02X1549Y1060I21J-30*
G01*
X1750Y1261*
G75*
G02X1751Y1263I12J-12*
G01*
X1696Y1318*
X1578*
G75*
G02X1509Y1336I-32J18*
G01*
G75*
G02X1522Y1363I37*
G01*
X1058*
G75*
G02X1043Y1369J20*
G01*
X955Y1457*
X939*
G75*
G02X872Y1477I-31J20*
G01*
G75*
G02X939Y1497I37*
G01*
X963*
G75*
G02X977Y1491J-20*
G01*
X1011Y1458*
G75*
G02X1072Y1497I31J20*
G01*
X1542*
G75*
G02X1556Y1491J-20*
G01*
X1617Y1430*
X1628*
G75*
G02X1620Y1454I28J23*
G01*
G75*
G02X1693I37*
G01*
G75*
G02X1684Y1430I-37*
G01*
X2164*
G75*
G02X2178Y1425J-20*
G01*
X2197Y1405*
G75*
G02X2214Y1432I36J-4*
G01*
Y1573*
X2185Y1602*
G75*
G02X2185Y1599I-36J-2*
G01*
G75*
G02X2112I-37*
G01*
G75*
G02X2112Y1603I36J0*
G01*
X2085Y1631*
X2078*
G75*
G02X2090Y1603I-24J-27*
G01*
G75*
G02X2023Y1583I-37*
G01*
X1667*
G75*
G02X1600Y1603I-31J20*
G01*
G75*
G02X1612Y1631I37*
G01*
X1287*
G75*
G02X1294Y1627I-5J-19*
G01*
G75*
G02X1338Y1592I8J-36*
G01*
G75*
G02X1265Y1591I-37*
G01*
X947*
G75*
G02X933Y1597J20*
G01*
X849Y1682*
X373*
G75*
G02X361Y1686J20*
G01*
G75*
G02X290Y1570I-70J-37*
G01*
G75*
G02Y1728J79*
G01*
G75*
G02X326Y1720J-79*
G01*
X209Y1837*
G75*
G02X203Y1851I14J14*
G01*
Y2174*
G75*
G02X209Y2188I20*
G01*
X695Y2675*
Y2911*
G75*
G02X679Y2942I20J31*
G01*
G75*
G02X752I37*
G01*
G75*
G02X735Y2911I-37*
G01*
Y2898*
G75*
G02X803Y2879I31J-19*
G01*
G75*
G02X786Y2848I-37*
G01*
Y2666*
G75*
G02X780Y2652I-20*
G01*
X294Y2166*
Y2151*
X348Y576D02*
G75*
G02X531I91D01*
G01*
G75*
G02X348I-91*
G01*
X414Y3098D02*
G75*
G02X317Y3123I-45J25D01*
G01*
G75*
G02X414Y3148I52*
G01*
X892*
G75*
G02X910Y3141J-25*
G01*
X1150Y2901*
G75*
G02X1157Y2883I-18J-18*
G01*
Y2551*
X1259Y2449*
X1674*
G75*
G02X1691Y2442J-25*
G01*
X1698Y2435*
G75*
G02X1736Y2399I1J-36*
G01*
G75*
G02X1663I-37*
G01*
X1276Y2399*
Y2151*
G75*
G02X1279Y2135I-33J-16*
G01*
G75*
G02X1206I-37*
G01*
G75*
G02X1226Y2167I37*
G01*
Y2411*
G75*
G02X1224Y2413I23J13*
G01*
X1115Y2523*
G75*
G02X1107Y2540I18J18*
G01*
Y2873*
X882Y3098*
X414*
X436Y1347D02*
G75*
G02X396Y1321I-39J16D01*
G01*
G75*
G02Y1406J43*
G01*
G75*
G02X436Y1379J-43*
G01*
G75*
G02X475Y1406I39J-16*
G01*
G75*
G02Y1321J-43*
G01*
G75*
G02X436Y1347J43*
G01*
Y1446D02*
G75*
G02X396Y1419I-39J16D01*
G01*
G75*
G02Y1504J43*
G01*
G75*
G02X436Y1478J-43*
G01*
G75*
G02X475Y1504I39J-16*
G01*
G75*
G02Y1419J-43*
G01*
G75*
G02X436Y1446J43*
G01*
X502Y3485D02*
G75*
G02X684I91D01*
G01*
G75*
G02X502I-91*
G01*
X546Y2824D02*
G75*
G02X443I-52D01*
G01*
G75*
G02X546I52*
G01*
X596Y2021D02*
G75*
G02X669I37D01*
G01*
G75*
G02X596I-37*
G01*
X699Y3765D02*
G75*
G02X881I91D01*
G01*
G75*
G02X699I-91*
G01*
X773Y1639D02*
G75*
G02X846I37D01*
G01*
G75*
G02X773I-37*
G01*
X789Y1194D02*
G75*
G02X862I37D01*
G01*
G75*
G02X789I-37*
G01*
X848Y2560D02*
G75*
G02X921I37D01*
G01*
G75*
G02X848I-37*
G01*
X858Y966D02*
Y1051D01*
X943*
Y966*
X858*
X958Y1009D02*
G75*
G02X1043I43D01*
G01*
G75*
G02X958I-43*
G01*
X1009Y3910D02*
G75*
G02X1082I37D01*
G01*
G75*
G02X1009I-37*
G01*
X1029Y580D02*
G75*
G02X1102I37D01*
G01*
G75*
G02X1029I-37*
G01*
X1058Y1009D02*
G75*
G02X1143I43D01*
G01*
G75*
G02X1058I-43*
G01*
X1096Y1954D02*
G75*
G02X1169I37D01*
G01*
G75*
G02X1096I-37*
G01*
X1158Y1009D02*
G75*
G02X1243I43D01*
G01*
G75*
G02X1158I-43*
G01*
X1249Y2004D02*
X1319Y2074D01*
G75*
G02X1333Y2080I14J-14*
G01*
X2041*
X2126Y2165*
G75*
G02X2140Y2171I14J-14*
G01*
X2597*
X2705Y2279*
G75*
G02X2719Y2285I14J-14*
G01*
X2952*
G75*
G02X3019Y2265I31J-20*
G01*
G75*
G02X2952Y2245I-37*
G01*
X2727*
X2619Y2136*
G75*
G02X2605Y2131I-14J14*
G01*
X2149*
X2064Y2046*
G75*
G02X2050Y2040I-14J14*
G01*
X1341*
X1275Y1974*
G75*
G02X1275Y1969I-36J-4*
G01*
G75*
G02X1202I-37*
G01*
G75*
G02X1249Y2004I37*
G01*
X1258Y1009D02*
G75*
G02X1343I43D01*
G01*
G75*
G02X1258I-43*
G01*
X1277Y1792D02*
G75*
G02X1350I37D01*
G01*
G75*
G02X1277I-37*
G01*
X1295Y2824D02*
G75*
G02X1191I-52D01*
G01*
G75*
G02X1295I52*
G01*
Y3123D02*
G75*
G02X1191I-52D01*
G01*
G75*
G02X1295I52*
G01*
X1316Y1143D02*
G75*
G02X1269Y1178I-10J35D01*
G01*
G75*
G02X1342I37*
G01*
G75*
G02X1341Y1168I-37*
G01*
X1413Y1096*
G75*
G02X1418Y1084I-12J-12*
G01*
Y989*
X1569Y837*
X1676*
X1691Y852*
G75*
G02X1715Y946I24J44*
G01*
G75*
G02X1733Y849J-50*
G01*
G75*
G02X1728Y839I-17J3*
G01*
X1696Y807*
G75*
G02X1684Y802I-12J12*
G01*
X1562*
G75*
G02X1549Y807J18*
G01*
X1388Y969*
G75*
G02X1383Y981I12J12*
G01*
Y1076*
X1316Y1143*
X1466Y1592D02*
G75*
G02X1539I37D01*
G01*
G75*
G02X1466I-37*
G01*
X1471Y2769D02*
G75*
G02Y2658J-56D01*
G01*
G75*
G02Y2769J56*
G01*
Y3269D02*
G75*
G02Y3158J-56D01*
G01*
G75*
G02Y3269J56*
G01*
X1486Y3765D02*
G75*
G02X1669I91D01*
G01*
G75*
G02X1486I-91*
G01*
X1621Y544D02*
G75*
G02X1526I-48D01*
G01*
G75*
G02X1621I48*
G01*
X1629Y1874D02*
G75*
G02X1556Y1899I-32J25D01*
G01*
G75*
G02X1629Y1924I41*
G01*
X1755*
G75*
G02X1830Y1903I35J-21*
G01*
G75*
G02X1762Y1874I-41*
G01*
X1629*
X1665Y996D02*
G75*
G02X1715Y1046I50D01*
G01*
G75*
G02X1765Y996J-50*
G01*
G75*
G02X1715Y946I-50*
G01*
G75*
G02X1665Y996J50*
G01*
X1722Y3973D02*
G75*
G02X1655Y3993I-31J20D01*
G01*
G75*
G02X1722Y4013I37*
G01*
X2199*
G75*
G02X2213Y4007J-20*
G01*
X2235Y3986*
G75*
G02X2279Y3950I7J-36*
G01*
G75*
G02X2206I-37*
G01*
G75*
G02X2207Y3957I37*
G01*
X2191Y3973*
X1722*
X1727Y3861D02*
G75*
G02X1659Y3879I-32J18D01*
G01*
G75*
G02X1727Y3896I37*
G01*
X2170*
G75*
G02X2236Y3875I30J-21*
G01*
G75*
G02X2165Y3861I-37*
G01*
X1727*
X1761Y2820D02*
G75*
G02X1842I41D01*
G01*
G75*
G02X1761I-41*
G01*
X1765Y896D02*
G75*
G02X1815Y946I50D01*
G01*
G75*
G02Y846J-50*
G01*
G75*
G02X1765Y896J50*
G01*
Y996D02*
G75*
G02X1815Y1046I50D01*
G01*
G75*
G02Y946J-50*
G01*
G75*
G02X1765Y996J50*
G01*
X1857Y544D02*
G75*
G02X1762I-48D01*
G01*
G75*
G02X1857I48*
G01*
X1871Y3572D02*
G75*
G02Y3477J-48D01*
G01*
G75*
G02Y3572J48*
G01*
X1971D02*
G75*
G02Y3477J-48D01*
G01*
G75*
G02Y3572J48*
G01*
X2002Y636D02*
X2037Y671D01*
G75*
G02X2050Y676I12J-12*
G01*
X2759*
X2940Y857*
G75*
G02X2938Y867I35J10*
G01*
G75*
G02X3011I37*
G01*
G75*
G02X3008Y851I-37*
G01*
G75*
G02X3055Y816I11J-35*
G01*
G75*
G02X3008Y781I-37*
G01*
X2790Y563*
G75*
G02X2778Y558I-12J12*
G01*
X2125*
G75*
G02X2057Y576I-32J18*
G01*
G75*
G02X2125Y593I37*
G01*
X2771*
X2983Y806*
G75*
G02X2986Y832I35J10*
G01*
G75*
G02X2965Y832I-11J35*
G01*
X2779Y646*
G75*
G02X2766Y641I-12J12*
G01*
X2057*
X2031Y615*
G75*
G02X2035Y599I-33J-16*
G01*
G75*
G02X1962I-37*
G01*
G75*
G02X2002Y636I37*
G01*
X2057Y1261D02*
G75*
G02X2114I29D01*
G01*
G75*
G02X2057I-29*
G01*
X2059Y1030D02*
X2143Y1114D01*
Y1206*
G75*
G02X2150Y1223I25*
G01*
X2213Y1286*
G75*
G02X2231Y1294I18J-18*
G01*
X2290*
G75*
G02X2354Y1261I24J-33*
G01*
G75*
G02X2336Y1227I-41*
G01*
X2995*
X3082Y1314*
G75*
G02X3080Y1322I35J10*
G01*
X2999Y1241*
G75*
G02X2987Y1235I-12J12*
G01*
X2644*
G75*
G02X2632Y1241J18*
G01*
X2585Y1288*
G75*
G02X2579Y1300I12J12*
G01*
Y1896*
X2518Y1958*
G75*
G02X2445Y1988I-30J30*
G01*
Y2038*
G75*
G02X2530I43*
G01*
Y1995*
X2546Y1979*
G75*
G02X2545Y1988I42J9*
G01*
Y2038*
G75*
G02X2623Y2062I43*
G01*
Y2068*
G75*
G02X2628Y2080I18*
G01*
X2719Y2172*
G75*
G02X2718Y2182I35J10*
G01*
G75*
G02X2791I37*
G01*
G75*
G02X2744Y2147I-37*
G01*
X2676Y2079*
G75*
G02X2730Y2038I12J-41*
G01*
Y1988*
G75*
G02X2701Y1948I-43*
G01*
Y1571*
X2793Y1479*
X3152*
G75*
G02X3164Y1474J-18*
G01*
X3166Y1472*
Y1951*
G75*
G02X3145Y1988I21J37*
G01*
Y2038*
G75*
G02X3219Y2067I43*
G01*
Y2143*
G75*
G02X3225Y2157I20*
G01*
X3228Y2161*
G75*
G02X3226Y2174I34J14*
G01*
G75*
G02X3299I37*
G01*
G75*
G02X3262Y2138I-37*
G01*
X3259Y2134*
Y2069*
G75*
G02X3330Y2038I29J-31*
G01*
Y1988*
G75*
G02X3259Y1957I-43*
G01*
Y1874*
G75*
G02X3275Y1843I-20J-31*
G01*
G75*
G02X3202I-37*
G01*
G75*
G02X3219Y1874I37*
G01*
Y1959*
G75*
G02X3201Y1948I-31J29*
G01*
Y1473*
X3348Y1326*
G75*
G02X3367Y1356I36J-2*
G01*
Y1951*
G75*
G02X3345Y1988I21J37*
G01*
Y2038*
G75*
G02X3430I43*
G01*
Y1988*
G75*
G02X3402Y1948I-43*
G01*
Y1356*
G75*
G02X3387Y1287I-18J-32*
G01*
X3397Y1277*
G75*
G02X3402Y1265I-12J-12*
G01*
Y1198*
G75*
G02X3421Y1166I-18J-32*
G01*
G75*
G02X3348I-37*
G01*
G75*
G02X3348Y1171I37J0*
G01*
G75*
G02X3320Y1238I-11J35*
G01*
Y1269*
X3145Y1444*
X2786*
G75*
G02X2774Y1449J18*
G01*
X2671Y1552*
G75*
G02X2666Y1564I12J12*
G01*
Y1951*
G75*
G02X2658Y1957I21J37*
G01*
Y1563*
X2727Y1494*
G75*
G02X2733Y1481I-12J-12*
G01*
Y1454*
G75*
G02X2752Y1422I-18J-32*
G01*
G75*
G02X2679I-37*
G01*
G75*
G02X2698Y1454I37*
G01*
Y1474*
X2628Y1544*
G75*
G02X2623Y1556I12J12*
G01*
Y1964*
G75*
G02X2579Y1946I-35J24*
G01*
X2609Y1916*
G75*
G02X2614Y1903I-12J-12*
G01*
Y1307*
X2651Y1270*
X2980*
X3084Y1375*
G75*
G02X3080Y1391I33J16*
G01*
G75*
G02X3153I37*
G01*
G75*
G02X3131Y1357I-37*
G01*
G75*
G02Y1290I-15J-33*
G01*
G75*
G02X3106Y1222I-15J-33*
G01*
X3050Y1166*
G75*
G02X3038Y1161I-12J12*
G01*
X2718*
X2586Y1028*
G75*
G02X2573Y1023I-12J12*
G01*
X2519*
G75*
G02X2450Y1040I-32J18*
G01*
G75*
G02X2519Y1058I37*
G01*
X2566*
X2699Y1191*
G75*
G02X2701Y1192I12J-12*
G01*
X2294*
G75*
G02X2226Y1210I-32J18*
G01*
G75*
G02X2249Y1244I37*
G01*
X2241*
X2193Y1195*
Y1103*
G75*
G02X2186Y1086I-25*
G01*
X2097Y997*
G75*
G02X2098Y989I-40J-8*
G01*
G75*
G02X2017I-41*
G01*
G75*
G02X2059Y1030I41*
G01*
X2071Y3572D02*
G75*
G02Y3477J-48D01*
G01*
G75*
G02Y3572J48*
G01*
X2145Y1945D02*
Y2080D01*
X2230*
Y1945*
X2145*
X2211Y2462D02*
G75*
G02X2126I-43D01*
G01*
G75*
G02X2211I43*
G01*
X2245Y1988D02*
Y2038D01*
G75*
G02X2330I43*
G01*
Y1988*
G75*
G02X2245I-43*
G01*
X2273Y3765D02*
G75*
G02X2456I91D01*
G01*
G75*
G02X2273I-91*
G01*
X2311Y2362D02*
G75*
G02X2226I-43D01*
G01*
G75*
G02X2311I43*
G01*
X2345Y1988D02*
Y2038D01*
G75*
G02X2430I43*
G01*
Y1988*
G75*
G02X2345I-43*
G01*
X2411Y2462D02*
G75*
G02X2326I-43D01*
G01*
G75*
G02X2411I43*
G01*
X2576Y3903D02*
G75*
G02X2649I37D01*
G01*
G75*
G02X2576I-37*
G01*
X2647Y757D02*
G75*
G02X2720I37D01*
G01*
G75*
G02X2647I-37*
G01*
X2745Y1988D02*
Y2038D01*
G75*
G02X2830I43*
G01*
Y1988*
G75*
G02X2745I-43*
G01*
X2814Y1039D02*
G75*
G02X2746Y1056I-32J18D01*
G01*
G75*
G02X2814Y1074I37*
G01*
X3305*
G75*
G02X3374Y1056I32J-18*
G01*
G75*
G02X3305Y1039I-37*
G01*
X2814*
X2883Y1734D02*
Y1745D01*
G75*
G02X2888Y1757I18*
G01*
X2922Y1792*
Y1963*
G75*
G02X2845Y1988I-34J25*
G01*
Y2038*
G75*
G02X2922Y2063I43*
G01*
Y2064*
G75*
G02X2927Y2076I18*
G01*
X2963Y2112*
G75*
G02X2975Y2117I12J-12*
G01*
X3026*
G75*
G02X3038Y2112J-18*
G01*
X3073Y2078*
G75*
G02X3130Y2038I15J-40*
G01*
Y2015*
G75*
G02Y2010I-17J-3*
G01*
Y1988*
G75*
G02X3045I-43*
G01*
Y2038*
G75*
G02X3048Y2053I42J0*
G01*
X3019Y2082*
X2982*
X2980Y2080*
G75*
G02X3030Y2038I8J-42*
G01*
Y1988*
G75*
G02X3006Y1949I-43*
G01*
Y1781*
G75*
G02X3000Y1767I-19*
G01*
X2986Y1753*
Y1733*
G75*
G02X3004Y1702I-19J-31*
G01*
G75*
G02X2934Y1687I-37*
G01*
G75*
G02X2864Y1702I-33J15*
G01*
G75*
G02X2883Y1734I37*
G01*
X3061Y3765D02*
G75*
G02X3243I91D01*
G01*
G75*
G02X3061I-91*
G01*
X3076Y1796D02*
G75*
G02X3149I37D01*
G01*
G75*
G02X3076I-37*
G01*
X3141Y2737D02*
G75*
G02X3030I-56D01*
G01*
G75*
G02X3141I56*
G01*
X3258Y3481D02*
G75*
G02X3440I91D01*
G01*
G75*
G02X3258I-91*
G01*
X3331Y2528D02*
G75*
G02X3251Y2548I-38J20D01*
G01*
G75*
G02X3331Y2568I43*
G01*
G75*
G02X3406I38J-20*
G01*
G75*
G02X3486Y2548I38J-20*
G01*
G75*
G02X3406Y2528I-43*
G01*
G75*
G02X3331I-38J20*
G01*
X3360Y773D02*
G75*
G02X3433I37D01*
G01*
G75*
G02X3360I-37*
G01*
X3403Y1682D02*
G75*
G02X3476I37D01*
G01*
G75*
G02X3403I-37*
G01*
X3411Y580D02*
G75*
G02X3594I91D01*
G01*
G75*
G02X3411I-91*
G01*
X3445Y1988D02*
Y2038D01*
G75*
G02X3530I43*
G01*
Y1988*
G75*
G02X3445I-43*
G01*
X3545D02*
Y2038D01*
G75*
G02X3630I43*
G01*
Y1988*
G75*
G02X3545I-43*
G01*
X3641Y2737D02*
G75*
G02X3530I-56D01*
G01*
G75*
G02X3641I56*
G01*
X3645Y1988D02*
Y2038D01*
G75*
G02X3730I43*
G01*
Y1988*
G75*
G02X3645I-43*
G01*
X3707Y2610D02*
G75*
G02Y2695J43D01*
G01*
G75*
G02Y2610J-43*
G01*
X3708Y3248D02*
X3793D01*
Y3163*
X3708*
Y3248*
X3750Y2510D02*
X3665D01*
Y2595*
X3750*
Y2510*
X3751Y3148D02*
G75*
G02Y3063J-43D01*
G01*
G75*
G02Y3148J43*
G01*
X28Y1959D02*
G36*
Y1901D01*
X87*
Y1959*
X28*
G37*
X87D02*
G36*
Y2021D01*
X28*
Y1959*
X87*
G37*
X162D02*
G36*
Y1901D01*
X203*
Y1959*
X162*
G37*
X203D02*
G36*
Y2021D01*
X162*
Y1959*
X203*
G37*
X1058D02*
G36*
Y1901D01*
X1557*
G75*
G02X1629Y1924I40J-2*
G01*
X1755*
G75*
G02X1830Y1903I35J-21*
G01*
G75*
G02X1830Y1901I-41J0*
G01*
X2575*
X2518Y1958*
G75*
G02X2456Y1959I-30J30*
G01*
X2419*
G75*
G02X2356I-32J28*
G01*
X2319*
G75*
G02X2256I-32J28*
G01*
X2230*
Y1945*
X2145*
Y1959*
X1274*
G75*
G02X1204I-35J10*
G01*
X1168*
G75*
G02X1169Y1954I-36J-6*
G01*
G75*
G02X1096I-37*
G01*
G75*
G02X1096Y1959I36J0*
G01*
X1058*
G37*
X1096D02*
G36*
G75*
G02X1168I36J-6D01*
G01*
X1204*
G75*
G02X1202Y1969I35J10*
G01*
G75*
G02X1249Y2004I37*
G01*
X1266Y2021*
X1058*
Y1959*
X1096*
G37*
X2145D02*
G36*
Y2021D01*
X1322*
X1275Y1974*
G75*
G02X1275Y1969I-36J-4*
G01*
G75*
G02X1274Y1959I-37J0*
G01*
X2145*
G37*
X2256D02*
G36*
G75*
G02X2245Y1988I32J28D01*
G01*
Y2021*
X2230*
Y1959*
X2256*
G37*
X2356D02*
G36*
G75*
G02X2345Y1988I32J28D01*
G01*
Y2021*
X2330*
Y1988*
G75*
G02X2319Y1959I-43*
G01*
X2356*
G37*
X2456D02*
G36*
G75*
G02X2445Y1988I32J28D01*
G01*
Y2021*
X2430*
Y1988*
G75*
G02X2419Y1959I-43*
G01*
X2456*
G37*
X2719D02*
G36*
G75*
G02X2701Y1948I-32J28D01*
G01*
Y1901*
X2922*
Y1963*
G75*
G02X2856Y1959I-34J25*
G01*
X2819*
G75*
G02X2756I-32J28*
G01*
X2719*
G37*
X2756D02*
G36*
G75*
G02X2745Y1988I32J28D01*
G01*
Y2021*
X2730*
Y1988*
G75*
G02X2719Y1959I-43*
G01*
X2756*
G37*
X2856D02*
G36*
G75*
G02X2845Y1988I32J28D01*
G01*
Y2021*
X2830*
Y1988*
G75*
G02X2819Y1959I-43*
G01*
X2856*
G37*
X3119D02*
G36*
G75*
G02X3045Y1988I-32J28D01*
G01*
Y2038*
G75*
G02X3048Y2053I42J0*
G01*
X3019Y2082*
X2982*
X2980Y2080*
G75*
G02X3030Y2038I8J-42*
G01*
Y1988*
G75*
G02X3006Y1949I-43*
G01*
Y1901*
X3166*
Y1951*
G75*
G02X3156Y1959I21J37*
G01*
X3119*
G37*
X3156D02*
G36*
G75*
G02X3145Y1988I32J28D01*
G01*
Y2021*
X3130*
Y2015*
G75*
G02Y2010I-17J-3*
G01*
Y1988*
G75*
G02X3119Y1959I-43*
G01*
X3156*
G37*
X3419D02*
G36*
G75*
G02X3402Y1948I-32J28D01*
G01*
Y1901*
X3915*
Y1959*
X3719*
G75*
G02X3656I-32J28*
G01*
X3619*
G75*
G02X3556I-32J28*
G01*
X3519*
G75*
G02X3456I-32J28*
G01*
X3419*
G37*
X3456D02*
G36*
G75*
G02X3445Y1988I32J28D01*
G01*
Y2021*
X3430*
Y1988*
G75*
G02X3419Y1959I-43*
G01*
X3456*
G37*
X3556D02*
G36*
G75*
G02X3545Y1988I32J28D01*
G01*
Y2021*
X3530*
Y1988*
G75*
G02X3519Y1959I-43*
G01*
X3556*
G37*
X3656D02*
G36*
G75*
G02X3645Y1988I32J28D01*
G01*
Y2021*
X3630*
Y1988*
G75*
G02X3619Y1959I-43*
G01*
X3656*
G37*
X3915D02*
G36*
Y2021D01*
X3730*
Y1988*
G75*
G02X3719Y1959I-43*
G01*
X3915*
G37*
X28Y2569D02*
G36*
Y2469D01*
X87*
Y2569*
X28*
G37*
X87D02*
G36*
Y2652D01*
X28*
Y2569*
X87*
G37*
X162D02*
G36*
Y2469D01*
X180*
Y2512*
X265*
Y2469*
X490*
X590Y2569*
X265*
G75*
G02X223Y2527I-43*
G01*
G75*
G02X180Y2569J43*
G01*
X162*
G37*
X180D02*
G36*
G75*
G02X223Y2612I43D01*
G01*
G75*
G02X265Y2569J-43*
G01*
X590*
X673Y2652*
X162*
Y2569*
X180*
G37*
X698D02*
G36*
X598Y2469D01*
X1168*
X1115Y2523*
G75*
G02X1107Y2540I18J18*
G01*
Y2569*
X920*
G75*
G02X921Y2560I-35J-9*
G01*
G75*
G02X848I-37*
G01*
G75*
G02X849Y2569I36*
G01*
X698*
G37*
X849D02*
G36*
G75*
G02X920I35J-9D01*
G01*
X1107*
Y2652*
X780*
X698Y2569*
X849*
G37*
X1157D02*
G36*
Y2551D01*
X1239Y2469*
X2127*
G75*
G02X2210I42J-8*
G01*
X2327*
G75*
G02X2410I42J-8*
G01*
X3915*
Y2569*
X3750*
Y2510*
X3665*
Y2569*
X3480*
G75*
G02X3486Y2548I-37J-21*
G01*
G75*
G02X3406Y2528I-43*
G01*
G75*
G02X3331I-38J20*
G01*
G75*
G02X3251Y2548I-38J20*
G01*
G75*
G02X3257Y2569I43*
G01*
X1157*
G37*
X3257D02*
G36*
G75*
G02X3331Y2568I37J-21D01*
G01*
G75*
G02X3406I38J-20*
G01*
G75*
G02X3480Y2569I38J-20*
G01*
X3665*
Y2595*
X3750*
Y2569*
X3915*
Y2652*
X3750*
G75*
G02X3707Y2610I-43*
G01*
G75*
G02X3665Y2652J43*
G01*
X1157*
Y2569*
X3257*
G37*
X28Y2469D02*
G36*
Y2362D01*
X87*
Y2469*
X28*
G37*
X162D02*
G36*
Y2362D01*
X382*
X490Y2469*
X265*
Y2427*
X180*
Y2469*
X162*
G37*
X598D02*
G36*
X490Y2362D01*
X1226*
Y2411*
G75*
G02X1224Y2413I23J13*
G01*
X1168Y2469*
X598*
G37*
X1239D02*
G36*
X1259Y2449D01*
X1674*
G75*
G02X1691Y2442J-25*
G01*
X1698Y2435*
G75*
G02X1736Y2399I1J-36*
G01*
G75*
G02X1663I-37*
G01*
X1276Y2399*
Y2362*
X2226*
G75*
G02X2311I43*
G01*
X3915*
Y2469*
X2410*
G75*
G02X2411Y2462I-42J-8*
G01*
G75*
G02X2326I-43*
G01*
G75*
G02X2327Y2469I42*
G01*
X2210*
G75*
G02X2211Y2462I-42J-8*
G01*
G75*
G02X2126I-43*
G01*
G75*
G02X2127Y2469I42*
G01*
X1239*
G37*
X28Y576D02*
G36*
Y365D01*
X3915*
Y576*
X3594*
G75*
G02X3411I-91J4*
G01*
X2803*
X2790Y563*
G75*
G02X2778Y558I-12J12*
G01*
X2125*
G75*
G02X2057Y576I-32J18*
G01*
G75*
G02X2125Y593I37*
G01*
X2771*
X2983Y806*
G75*
G02X2986Y832I35J10*
G01*
G75*
G02X2965Y832I-11J35*
G01*
X2779Y646*
G75*
G02X2766Y641I-12J12*
G01*
X2057*
X2031Y615*
G75*
G02X2035Y599I-33J-16*
G01*
G75*
G02X1971Y576I-37*
G01*
X1845*
G75*
G02X1857Y544I-36J-31*
G01*
G75*
G02X1762I-48*
G01*
G75*
G02X1774Y576I48*
G01*
X1609*
G75*
G02X1621Y544I-36J-31*
G01*
G75*
G02X1526I-48*
G01*
G75*
G02X1538Y576I48*
G01*
X1102*
G75*
G02X1029I-36J4*
G01*
X531*
G75*
G02X348I-91*
G01*
X28*
G37*
X348D02*
G36*
G75*
G02X531I91D01*
G01*
X1029*
G75*
G02X1029Y580I36J4*
G01*
G75*
G02X1102I37*
G01*
G75*
G02X1102Y576I-37J0*
G01*
X1538*
G75*
G02X1609I36J-31*
G01*
X1774*
G75*
G02X1845I36J-31*
G01*
X1971*
G75*
G02X1962Y599I28J24*
G01*
G75*
G02X2002Y636I37*
G01*
X2037Y671*
G75*
G02X2050Y676I12J-12*
G01*
X2759*
X2840Y757*
X2720*
G75*
G02X2647I-37*
G01*
X2429*
X2365Y693*
G75*
G02X2353Y688I-12J12*
G01*
X1908*
G75*
G02X1896Y693J18*
G01*
X1856Y733*
G75*
G02X1857Y721I-46J-12*
G01*
G75*
G02X1762I-48*
G01*
G75*
G02X1787Y763I48*
G01*
X1596*
G75*
G02X1621Y721I-23J-42*
G01*
G75*
G02X1526I-48*
G01*
G75*
G02X1542Y757I48*
G01*
X28*
Y576*
X348*
G37*
X3411D02*
G36*
G75*
G02X3411Y580I91J4D01*
G01*
G75*
G02X3594I91*
G01*
G75*
G02X3594Y576I-91J0*
G01*
X3915*
Y757*
X3429*
G75*
G02X3363I-33J16*
G01*
X2984*
X2803Y576*
X3411*
G37*
X28Y1363D02*
G36*
Y1261D01*
X87*
Y1363*
X28*
G37*
X87D02*
G36*
Y1462D01*
X28*
Y1363*
X87*
G37*
X162D02*
G36*
Y1261D01*
X1749*
X1750Y1261*
G75*
G02X1751Y1263I12J-12*
G01*
X1696Y1318*
X1578*
G75*
G02X1509Y1336I-32J18*
G01*
G75*
G02X1522Y1363I37*
G01*
X1058*
G75*
G02X1054Y1363J20*
G01*
X517*
G75*
G02X475Y1321I-43*
G01*
G75*
G02X436Y1347J43*
G01*
G75*
G02X396Y1321I-39J16*
G01*
G75*
G02X354Y1363J43*
G01*
X162*
G37*
X354D02*
G36*
G75*
G02X396Y1406I43D01*
G01*
G75*
G02X436Y1379J-43*
G01*
G75*
G02X475Y1406I39J-16*
G01*
G75*
G02X517Y1363J-43*
G01*
X1054*
G75*
G02X1043Y1369I4J20*
G01*
X955Y1457*
X939*
G75*
G02X875Y1462I-31J20*
G01*
X517*
G75*
G02X475Y1419I-43*
G01*
G75*
G02X436Y1446J43*
G01*
G75*
G02X396Y1419I-39J16*
G01*
G75*
G02X354Y1462J43*
G01*
X162*
Y1363*
X354*
G37*
X2555D02*
G36*
G75*
G02X2511Y1327I-37D01*
G01*
X2493Y1310*
G75*
G02X2479Y1304I-14J14*
G01*
X2203*
G75*
G02X2189Y1310J20*
G01*
X2136Y1363*
X1570*
G75*
G02X1578Y1353I-24J-27*
G01*
X1703*
G75*
G02X1716Y1348J-18*
G01*
X1784Y1280*
G75*
G02X1827Y1261I10J-35*
G01*
X2057*
G75*
G02X2114I29*
G01*
X2188*
X2213Y1286*
G75*
G02X2231Y1294I18J-18*
G01*
X2290*
G75*
G02X2354Y1261I24J-33*
G01*
G75*
G02X2336Y1227I-41*
G01*
X2995*
X3082Y1314*
G75*
G02X3080Y1322I35J10*
G01*
X2999Y1241*
G75*
G02X2987Y1235I-12J12*
G01*
X2644*
G75*
G02X2632Y1241J18*
G01*
X2585Y1288*
G75*
G02X2579Y1300I12J12*
G01*
Y1363*
X2555*
G37*
X2579D02*
G36*
Y1462D01*
X2254*
Y1432*
G75*
G02X2259Y1375I-20J-31*
G01*
X2404*
X2431Y1403*
G75*
G02X2431Y1410I36J7*
G01*
G75*
G02X2504I37*
G01*
G75*
G02X2500Y1395I-37J0*
G01*
G75*
G02X2555Y1363I18J-32*
G01*
X2579*
G37*
X3402D02*
G36*
Y1356D01*
G75*
G02X3387Y1287I-18J-32*
G01*
X3397Y1277*
G75*
G02X3402Y1265I-12J-12*
G01*
Y1261*
X3915*
Y1363*
X3402*
G37*
X3915D02*
G36*
Y1462D01*
X3402*
Y1363*
X3915*
G37*
X87Y1462D02*
G36*
Y1592D01*
X28*
Y1462*
X87*
G37*
X354D02*
G36*
G75*
G02X396Y1504I43D01*
G01*
G75*
G02X436Y1478J-43*
G01*
G75*
G02X475Y1504I39J-16*
G01*
G75*
G02X517Y1462J-43*
G01*
X875*
G75*
G02X872Y1477I33J16*
G01*
G75*
G02X939Y1497I37*
G01*
X963*
G75*
G02X977Y1491J-20*
G01*
X1011Y1458*
G75*
G02X1072Y1497I31J20*
G01*
X1542*
G75*
G02X1556Y1491J-20*
G01*
X1617Y1430*
X1628*
G75*
G02X1620Y1454I28J23*
G01*
G75*
G02X1693I37*
G01*
G75*
G02X1684Y1430I-37*
G01*
X2164*
G75*
G02X2178Y1425J-20*
G01*
X2197Y1405*
G75*
G02X2214Y1432I36J-4*
G01*
Y1573*
X2185Y1602*
G75*
G02X2185Y1599I-36J-2*
G01*
G75*
G02X2112I-37*
G01*
G75*
G02X2112Y1603I36J0*
G01*
X2085Y1631*
X2078*
G75*
G02X2090Y1603I-24J-27*
G01*
G75*
G02X2023Y1583I-37*
G01*
X1667*
G75*
G02X1602Y1592I-31J20*
G01*
X1539*
G75*
G02X1466I-37*
G01*
X1338*
G75*
G02X1265Y1591I-37*
G01*
X947*
G75*
G02X933Y1597J20*
G01*
X892Y1639*
X846*
G75*
G02X773I-37*
G01*
X369*
G75*
G02X290Y1570I-79J10*
G01*
G75*
G02X235Y1592J79*
G01*
X162*
Y1462*
X354*
G37*
X2579D02*
G36*
Y1592D01*
X2251*
G75*
G02X2254Y1581I-17J-11*
G01*
Y1462*
X2579*
G37*
X3915D02*
G36*
Y1592D01*
X3402*
Y1462*
X3915*
G37*
X28Y3485D02*
G36*
Y3214D01*
X1416*
G75*
G02X1471Y3269I56*
G01*
G75*
G02X1527Y3214J-56*
G01*
X3708*
Y3248*
X3793*
Y3214*
X3915*
Y3485*
X3440*
G75*
G02X3440Y3481I-91J-4*
G01*
G75*
G02X3258I-91*
G01*
G75*
G02X3258Y3485I91J0*
G01*
X2098*
G75*
G02X2071Y3477I-27J39*
G01*
G75*
G02X2044Y3485J48*
G01*
X1998*
G75*
G02X1971Y3477I-27J39*
G01*
G75*
G02X1944Y3485J48*
G01*
X1898*
G75*
G02X1871Y3477I-27J39*
G01*
G75*
G02X1844Y3485J48*
G01*
X684*
G75*
G02X502I-91*
G01*
X28*
G37*
X502D02*
G36*
G75*
G02X684I91D01*
G01*
X1844*
G75*
G02X1871Y3572I27J39*
G01*
G75*
G02X1898Y3485J-48*
G01*
X1944*
G75*
G02X1971Y3572I27J39*
G01*
G75*
G02X1998Y3485J-48*
G01*
X2044*
G75*
G02X2071Y3572I27J39*
G01*
G75*
G02X2098Y3485J-48*
G01*
X3258*
G75*
G02X3440I91J-4*
G01*
X3915*
Y3765*
X3243*
G75*
G02X3061I-91*
G01*
X2456*
G75*
G02X2273I-91*
G01*
X1669*
G75*
G02X1486I-91*
G01*
X881*
G75*
G02X699I-91*
G01*
X28*
Y3485*
X502*
G37*
X28Y2824D02*
G36*
Y2714D01*
X87*
G75*
G02X98Y2736I37J-4*
G01*
X186Y2824*
X28*
G37*
X186D02*
G36*
X191Y2829D01*
G75*
G02X295Y2824I52J-5*
G01*
X443*
G75*
G02X546I52*
G01*
X695*
Y2911*
G75*
G02X679Y2942I20J31*
G01*
G75*
G02X752I37*
G01*
G75*
G02X735Y2911I-37*
G01*
Y2898*
G75*
G02X803Y2879I31J-19*
G01*
G75*
G02X786Y2848I-37*
G01*
Y2824*
X1107*
Y2873*
X882Y3098*
X414*
G75*
G02X317Y3123I-45J25*
G01*
X28*
Y2824*
X186*
G37*
X295D02*
G36*
G75*
G02X240Y2772I-52D01*
G01*
X182Y2714*
X695*
Y2824*
X546*
G75*
G02X443I-52*
G01*
X295*
G37*
X786D02*
G36*
Y2714D01*
X1107*
Y2824*
X786*
G37*
X1157D02*
G36*
Y2714D01*
X1416*
G75*
G02X1471Y2769I56*
G01*
G75*
G02X1527Y2714J-56*
G01*
X3035*
G75*
G02X3030Y2737I50J24*
G01*
G75*
G02X3141I56*
G01*
G75*
G02X3135Y2714I-56J0*
G01*
X3535*
G75*
G02X3530Y2737I50J24*
G01*
G75*
G02X3641I56*
G01*
G75*
G02X3635Y2714I-56J0*
G01*
X3915*
Y2824*
X1842*
G75*
G02X1842Y2820I-40J-4*
G01*
G75*
G02X1761I-41*
G01*
G75*
G02X1761Y2824I40J0*
G01*
X1295*
G75*
G02X1191I-52*
G01*
X1157*
G37*
X1191D02*
G36*
G75*
G02X1295I52D01*
G01*
X1761*
G75*
G02X1842I40J-4*
G01*
X3915*
Y3123*
X3789*
G75*
G02X3751Y3063I-39J-17*
G01*
G75*
G02X3712Y3123J43*
G01*
X1295*
G75*
G02X1191I-52*
G01*
X928*
X1150Y2901*
G75*
G02X1157Y2883I-18J-18*
G01*
Y2824*
X1191*
G37*
X87Y2021D02*
G36*
Y2362D01*
X28*
Y2021*
X87*
G37*
X203D02*
G36*
Y2174D01*
G75*
G02X209Y2188I20*
G01*
X382Y2362*
X162*
Y2021*
X203*
G37*
X337D02*
G36*
Y1871D01*
X393Y1816*
X797*
G75*
G02X777Y1843I8J27*
G01*
G75*
G02X826Y1863I29*
G01*
X833*
G75*
G02X847Y1858J-20*
G01*
X979Y1726*
G75*
G02X992Y1723I0J-29*
G01*
X941Y1774*
G75*
G02X935Y1788I14J14*
G01*
Y1855*
G75*
G02X927Y1875I20J20*
G01*
G75*
G02X984I29*
G01*
G75*
G02X975Y1855I-29*
G01*
Y1797*
X1062Y1710*
X1112*
X1111Y1710*
G75*
G02X1103Y1715I5J19*
G01*
X1024Y1794*
G75*
G02X1018Y1808I14J14*
G01*
Y2021*
X669*
G75*
G02X596I-37*
G01*
X337*
G37*
X596D02*
G36*
G75*
G02X669I37D01*
G01*
X1018*
Y2253*
X990Y2280*
X857*
X830Y2253*
Y2253*
G75*
G02X773I-29*
G01*
G75*
G02X802Y2281I29*
G01*
X835Y2314*
G75*
G02X849Y2320I14J-14*
G01*
X999*
G75*
G02X1013Y2314J-20*
G01*
X1052Y2275*
G75*
G02X1058Y2261I-14J-14*
G01*
Y2021*
X1266*
X1319Y2074*
G75*
G02X1333Y2080I14J-14*
G01*
X2041*
X2126Y2165*
G75*
G02X2140Y2171I14J-14*
G01*
X2597*
X2705Y2279*
G75*
G02X2719Y2285I14J-14*
G01*
X2952*
G75*
G02X3019Y2265I31J-20*
G01*
G75*
G02X2952Y2245I-37*
G01*
X2727*
X2619Y2136*
G75*
G02X2605Y2131I-14J14*
G01*
X2149*
X2064Y2046*
G75*
G02X2050Y2040I-14J14*
G01*
X1341*
X1322Y2021*
X2145*
Y2080*
X2230*
Y2021*
X2245*
Y2038*
G75*
G02X2330I43*
G01*
Y2021*
X2345*
Y2038*
G75*
G02X2430I43*
G01*
Y2021*
X2445*
Y2038*
G75*
G02X2530I43*
G01*
Y1995*
X2546Y1979*
G75*
G02X2545Y1988I42J9*
G01*
Y2038*
G75*
G02X2623Y2062I43*
G01*
Y2068*
G75*
G02X2628Y2080I18*
G01*
X2719Y2172*
G75*
G02X2718Y2182I35J10*
G01*
G75*
G02X2791I37*
G01*
G75*
G02X2744Y2147I-37*
G01*
X2676Y2079*
G75*
G02X2730Y2038I12J-41*
G01*
Y2021*
X2745*
Y2038*
G75*
G02X2830I43*
G01*
Y2021*
X2845*
Y2038*
G75*
G02X2922Y2063I43*
G01*
Y2064*
G75*
G02X2927Y2076I18*
G01*
X2963Y2112*
G75*
G02X2975Y2117I12J-12*
G01*
X3026*
G75*
G02X3038Y2112J-18*
G01*
X3073Y2078*
G75*
G02X3130Y2038I15J-40*
G01*
Y2021*
X3145*
Y2038*
G75*
G02X3219Y2067I43*
G01*
Y2143*
G75*
G02X3225Y2157I20*
G01*
X3228Y2161*
G75*
G02X3226Y2174I34J14*
G01*
G75*
G02X3299I37*
G01*
G75*
G02X3262Y2138I-37*
G01*
X3259Y2134*
Y2069*
G75*
G02X3330Y2038I29J-31*
G01*
Y1988*
G75*
G02X3259Y1957I-43*
G01*
Y1874*
G75*
G02X3275Y1843I-20J-31*
G01*
G75*
G02X3202I-37*
G01*
G75*
G02X3219Y1874I37*
G01*
Y1959*
G75*
G02X3201Y1948I-31J29*
G01*
Y1473*
X3348Y1326*
G75*
G02X3367Y1356I36J-2*
G01*
Y1951*
G75*
G02X3345Y1988I21J37*
G01*
Y2038*
G75*
G02X3430I43*
G01*
Y2021*
X3445*
Y2038*
G75*
G02X3530I43*
G01*
Y2021*
X3545*
Y2038*
G75*
G02X3630I43*
G01*
Y2021*
X3645*
Y2038*
G75*
G02X3730I43*
G01*
Y2021*
X3915*
Y2362*
X2311*
G75*
G02X2226I-43*
G01*
X1276*
Y2151*
G75*
G02X1279Y2135I-33J-16*
G01*
G75*
G02X1206I-37*
G01*
G75*
G02X1226Y2167I37*
G01*
Y2362*
X490*
X294Y2166*
Y2151*
G75*
G02X354Y2123I23J-28*
G01*
G75*
G02X337Y2092I-37*
G01*
Y2021*
X596*
G37*
X699Y3765D02*
G36*
G75*
G02X881I91D01*
G01*
X1486*
G75*
G02X1669I91*
G01*
X2273*
G75*
G02X2456I91*
G01*
X3061*
G75*
G02X3243I91*
G01*
X3915*
Y3910*
X2648*
G75*
G02X2649Y3903I-36J-8*
G01*
G75*
G02X2576I-37*
G01*
G75*
G02X2577Y3910I37J0*
G01*
X2208*
G75*
G02X2236Y3875I-9J-35*
G01*
G75*
G02X2165Y3861I-37*
G01*
X1727*
G75*
G02X1659Y3879I-32J18*
G01*
G75*
G02X1677Y3910I37*
G01*
X1082*
G75*
G02X1009I-37*
G01*
X28*
Y3765*
X699*
G37*
X28Y1639D02*
G36*
Y1592D01*
X87*
Y1639*
X28*
G37*
X87D02*
G36*
Y1682D01*
X28*
Y1639*
X87*
G37*
X162D02*
G36*
Y1592D01*
X235*
G75*
G02X212Y1639I55J57*
G01*
X162*
G37*
X212D02*
G36*
G75*
G02X218Y1682I79J10D01*
G01*
X162*
Y1639*
X212*
G37*
X773D02*
G36*
G75*
G02X846I37D01*
G01*
X892*
X849Y1682*
X373*
G75*
G02X361Y1686J20*
G01*
G75*
G02X369Y1639I-70J-37*
G01*
X773*
G37*
X2204D02*
G36*
X2248Y1595D01*
G75*
G02X2251Y1592I-14J-14*
G01*
X2579*
Y1639*
X2204*
G37*
X2579D02*
G36*
Y1682D01*
X2239*
G75*
G02X2184Y1659I-36J8*
G01*
X2204Y1639*
X2579*
G37*
X3402D02*
G36*
Y1592D01*
X3915*
Y1639*
X3402*
G37*
X3915D02*
G36*
Y1682D01*
X3476*
G75*
G02X3403I-37*
G01*
X3402*
Y1639*
X3915*
G37*
X28Y1194D02*
G36*
Y1056D01*
X170*
G75*
G02X162Y1068I30J28*
G01*
X98Y1132*
G75*
G02X87Y1158I26J27*
G01*
Y1194*
X28*
G37*
X87D02*
G36*
Y1261D01*
X28*
Y1194*
X87*
G37*
X368D02*
G36*
G75*
G02X333Y1109I-77J-18D01*
G01*
X604*
G75*
G02X685Y1107I40J-1*
G01*
G75*
G02X639Y1067I-41*
G01*
X638Y1066*
G75*
G02X621Y1059I-18J18*
G01*
X231*
G75*
G02X229Y1056I-32J25*
G01*
X1383*
Y1076*
X1316Y1143*
G75*
G02X1269Y1178I-10J35*
G01*
G75*
G02X1273Y1194I37J0*
G01*
X862*
G75*
G02X789I-37*
G01*
X368*
G37*
X789D02*
G36*
G75*
G02X862I37D01*
G01*
X1273*
G75*
G02X1339I33J-16*
G01*
X1349*
G75*
G02X1421Y1186I36J-8*
G01*
G75*
G02X1419Y1176I-37*
G01*
X1493Y1102*
G75*
G02X1549Y1060I21J-30*
G01*
X1749Y1261*
X162*
Y1174*
X215Y1121*
G75*
G02X231Y1109I-16J-37*
G01*
X248*
G75*
G02X290Y1255I42J67*
G01*
G75*
G02X368Y1194J-79*
G01*
X789*
G37*
X1339D02*
G36*
G75*
G02X1342Y1178I-33J-16D01*
G01*
G75*
G02X1341Y1168I-37*
G01*
X1413Y1096*
G75*
G02X1418Y1084I-12J-12*
G01*
Y1056*
X1481*
G75*
G02X1478Y1068I33J16*
G01*
X1395Y1151*
G75*
G02X1348Y1186I-10J35*
G01*
G75*
G02X1349Y1194I37J0*
G01*
X1339*
G37*
X1732D02*
G36*
X1571Y1033D01*
Y1019*
G75*
G02X1607Y1045I44J-23*
G01*
G75*
G02X1610Y1047I9J-18*
G01*
X1648Y1084*
G75*
G02X1660Y1089I12J-12*
G01*
X1888*
G75*
G02X1901Y1084J-18*
G01*
X1929Y1056*
X2085*
X2143Y1114*
Y1194*
X1732*
G37*
X2143D02*
G36*
Y1206D01*
G75*
G02X2150Y1223I25*
G01*
X2188Y1261*
X2114*
G75*
G02X2057I-29*
G01*
X1827*
G75*
G02X1830Y1245I-33J-16*
G01*
G75*
G02X1763Y1225I-37*
G01*
X1732Y1194*
X2143*
G37*
X3408D02*
G36*
G75*
G02X3421Y1166I-24J-28D01*
G01*
G75*
G02X3348I-37*
G01*
G75*
G02X3348Y1171I37J0*
G01*
G75*
G02X3320Y1238I-11J35*
G01*
Y1269*
X3145Y1444*
X2786*
G75*
G02X2774Y1449J18*
G01*
X2671Y1552*
G75*
G02X2666Y1564I12J12*
G01*
Y1951*
G75*
G02X2658Y1957I21J37*
G01*
Y1563*
X2727Y1494*
G75*
G02X2733Y1481I-12J-12*
G01*
Y1454*
G75*
G02X2752Y1422I-18J-32*
G01*
G75*
G02X2679I-37*
G01*
G75*
G02X2698Y1454I37*
G01*
Y1474*
X2628Y1544*
G75*
G02X2623Y1556I12J12*
G01*
Y1964*
G75*
G02X2579Y1946I-35J24*
G01*
X2609Y1916*
G75*
G02X2614Y1903I-12J-12*
G01*
Y1307*
X2651Y1270*
X2980*
X3084Y1375*
G75*
G02X3080Y1391I33J16*
G01*
G75*
G02X3153I37*
G01*
G75*
G02X3131Y1357I-37*
G01*
G75*
G02Y1290I-15J-33*
G01*
G75*
G02X3106Y1222I-15J-33*
G01*
X3050Y1166*
G75*
G02X3038Y1161I-12J12*
G01*
X2718*
X2614Y1056*
X2679*
X2754Y1131*
G75*
G02X2766Y1137I12J-12*
G01*
X2967*
G75*
G02X3035Y1119I32J-18*
G01*
G75*
G02X2967Y1102I-37*
G01*
X2774*
X2728Y1056*
X2746*
G75*
G02X2814Y1074I37*
G01*
X3305*
G75*
G02X3374Y1056I32J-18*
G01*
X3915*
Y1194*
X3408*
G37*
X3915D02*
G36*
Y1261D01*
X3402*
Y1198*
G75*
G02X3408Y1194I-18J-32*
G01*
X3915*
G37*
X28Y1009D02*
G36*
Y896D01*
X1359*
G75*
G02X1418I30J-21*
G01*
X1461*
X1388Y969*
G75*
G02X1383Y981I12J12*
G01*
Y1009*
X1343*
G75*
G02X1258I-43*
G01*
X1243*
G75*
G02X1158I-43*
G01*
X1143*
G75*
G02X1058I-43*
G01*
X1043*
G75*
G02X958I-43*
G01*
X943*
Y966*
X858*
Y1009*
X28*
G37*
X858D02*
G36*
Y1051D01*
X943*
Y1009*
X958*
G75*
G02X1043I43*
G01*
X1058*
G75*
G02X1143I43*
G01*
X1158*
G75*
G02X1243I43*
G01*
X1258*
G75*
G02X1343I43*
G01*
X1383*
Y1056*
X229*
G75*
G02X170I-30J28*
G01*
X28*
Y1009*
X858*
G37*
X1418D02*
G36*
Y989D01*
X1510Y896*
X1565*
Y909*
X1541Y933*
G75*
G02X1536Y946I12J12*
G01*
Y1009*
X1418*
G37*
X1536D02*
G36*
Y1040D01*
G75*
G02X1536Y1043I17J0*
G01*
G75*
G02X1481Y1056I-22J29*
G01*
X1418*
Y1009*
X1536*
G37*
X1664D02*
G36*
G75*
G02X1615Y946I-48J-13D01*
G01*
G75*
G02X1571Y973J50*
G01*
Y953*
X1578Y946*
X1665*
Y896*
G75*
G02X1715Y946I50*
G01*
G75*
G02X1765Y896J-50*
G01*
G75*
G02X1815Y946I50*
G01*
G75*
G02X1865Y896J-50*
G01*
X1934*
Y1002*
X1927Y1009*
X1864*
G75*
G02X1815Y946I-48J-13*
G01*
G75*
G02X1765Y996J50*
G01*
G75*
G02X1767Y1009I50*
G01*
X1764*
G75*
G02X1765Y996I-48J-13*
G01*
G75*
G02X1715Y946I-50*
G01*
G75*
G02X1665Y996J50*
G01*
G75*
G02X1667Y1009I50*
G01*
X1664*
G37*
X1667D02*
G36*
G75*
G02X1715Y1046I48J-13D01*
G01*
G75*
G02X1764Y1009J-50*
G01*
X1767*
G75*
G02X1815Y1046I48J-13*
G01*
G75*
G02X1864Y1009J-50*
G01*
X1927*
X1881Y1054*
X1667*
X1647Y1035*
G75*
G02X1664Y1009I-32J-38*
G01*
X1667*
G37*
X1969D02*
G36*
Y791D01*
G75*
G02X1969Y723I-14J-34*
G01*
X2346*
X2631Y1009*
X2505*
G75*
G02X2450Y1040I-18J31*
G01*
G75*
G02X2519Y1058I37*
G01*
X2566*
X2699Y1191*
G75*
G02X2701Y1192I12J-12*
G01*
X2294*
G75*
G02X2226Y1210I-32J18*
G01*
G75*
G02X2249Y1244I37*
G01*
X2241*
X2193Y1195*
Y1103*
G75*
G02X2186Y1086I-25*
G01*
X2097Y997*
G75*
G02X2098Y989I-40J-8*
G01*
G75*
G02X2017I-41*
G01*
G75*
G02X2022Y1009I41*
G01*
X1969*
G37*
X2022D02*
G36*
G75*
G02X2059Y1030I35J-20D01*
G01*
X2085Y1056*
X1929*
X1964Y1021*
G75*
G02X1969Y1009I-12J-12*
G01*
X2022*
G37*
X2631D02*
G36*
X2679Y1056D01*
X2614*
X2586Y1028*
G75*
G02X2573Y1023I-12J12*
G01*
X2519*
G75*
G02X2505Y1009I-32J18*
G01*
X2631*
G37*
X2681D02*
G36*
X2568Y896D01*
X2953*
G75*
G02X2997I22J-29*
G01*
X3915*
Y1009*
X2681*
G37*
X3915D02*
G36*
Y1056D01*
X3374*
G75*
G02X3305Y1039I-37*
G01*
X2814*
G75*
G02X2746Y1056I-32J18*
G01*
X2728*
X2681Y1009*
X3915*
G37*
X1009Y3910D02*
G36*
G75*
G02X1082I37D01*
G01*
X1677*
G75*
G02X1727Y3896I18J-31*
G01*
X2170*
G75*
G02X2208Y3910I30J-21*
G01*
X2577*
G75*
G02X2648I36J-8*
G01*
X3915*
Y3971*
X2272*
G75*
G02X2279Y3950I-29J-22*
G01*
G75*
G02X2206I-37*
G01*
G75*
G02X2207Y3957I37*
G01*
X2191Y3973*
X1722*
G75*
G02X1662Y3971I-31J20*
G01*
X28*
Y3910*
X1009*
G37*
X28Y1792D02*
G36*
Y1682D01*
X87*
Y1792*
X28*
G37*
X87D02*
G36*
Y1901D01*
X28*
Y1792*
X87*
G37*
X162D02*
G36*
Y1682D01*
X218*
G75*
G02X290Y1728I72J-33*
G01*
G75*
G02X326Y1720J-79*
G01*
X254Y1792*
X162*
G37*
X254D02*
G36*
X209Y1837D01*
G75*
G02X203Y1851I14J14*
G01*
Y1901*
X162*
Y1792*
X254*
G37*
X1082D02*
G36*
X1120Y1755D01*
G75*
G02X1153Y1710I13J-25*
G01*
X2125*
G75*
G02X2139Y1704J-20*
G01*
X2173Y1670*
G75*
G02X2167Y1690I31J20*
G01*
G75*
G02X2240I37*
G01*
G75*
G02X2239Y1682I-37J0*
G01*
X2579*
Y1792*
X1350*
G75*
G02X1277I-37*
G01*
X1082*
G37*
X1277D02*
G36*
G75*
G02X1350I37D01*
G01*
X2579*
Y1896*
X2575Y1901*
X1830*
G75*
G02X1762Y1874I-40J2*
G01*
X1629*
G75*
G02X1556Y1899I-32J25*
G01*
G75*
G02X1557Y1901I41J0*
G01*
X1058*
Y1816*
X1082Y1792*
X1277*
G37*
X2701D02*
G36*
Y1682D01*
X2869*
G75*
G02X2864Y1702I31J20*
G01*
G75*
G02X2883Y1734I37*
G01*
Y1745*
G75*
G02X2888Y1757I18*
G01*
X2922Y1792*
Y1792*
X2701*
G37*
X2922D02*
G36*
Y1901D01*
X2701*
Y1792*
X2922*
G37*
X3006D02*
G36*
Y1781D01*
G75*
G02X3000Y1767I-19*
G01*
X2986Y1753*
Y1733*
G75*
G02X3004Y1702I-19J-31*
G01*
G75*
G02X2998Y1682I-37*
G01*
X3166*
Y1792*
X3149*
G75*
G02X3076I-36J4*
G01*
X3006*
G37*
X3076D02*
G36*
G75*
G02X3076Y1796I36J4D01*
G01*
G75*
G02X3149I37*
G01*
G75*
G02X3149Y1792I-37J0*
G01*
X3166*
Y1901*
X3006*
Y1792*
X3076*
G37*
X3402D02*
G36*
Y1682D01*
X3403*
G75*
G02X3476I37*
G01*
X3915*
Y1792*
X3402*
G37*
X3915D02*
G36*
Y1901D01*
X3402*
Y1792*
X3915*
G37*
X317Y3123D02*
G36*
G75*
G02X414Y3148I52D01*
G01*
X892*
G75*
G02X910Y3141J-25*
G01*
X928Y3123*
X1191*
G75*
G02X1295I52*
G01*
X3712*
G75*
G02X3751Y3148I39J-17*
G01*
G75*
G02X3789Y3123J-43*
G01*
X3915*
Y3214*
X3793*
Y3163*
X3708*
Y3214*
X1527*
G75*
G02X1471Y3158I-56*
G01*
G75*
G02X1416Y3214J56*
G01*
X28*
Y3123*
X317*
G37*
X1466Y1592D02*
G36*
G75*
G02X1539I37D01*
G01*
X1602*
G75*
G02X1600Y1603I35J12*
G01*
G75*
G02X1612Y1631I37*
G01*
X1287*
G75*
G02X1294Y1627I-5J-19*
G01*
G75*
G02X1338Y1592I8J-36*
G01*
X1466*
G37*
X28Y2714D02*
G36*
Y2652D01*
X87*
Y2710*
G75*
G02X87Y2714I37J0*
G01*
X28*
G37*
X182D02*
G36*
X162Y2694D01*
Y2652*
X673*
X695Y2675*
Y2714*
X182*
G37*
X786D02*
G36*
Y2666D01*
G75*
G02X780Y2652I-20J0*
G01*
X1107*
Y2714*
X786*
G37*
X1157D02*
G36*
Y2652D01*
X3665*
G75*
G02X3707Y2695I43*
G01*
G75*
G02X3750Y2652J-43*
G01*
X3915*
Y2714*
X3635*
G75*
G02X3535I-50J24*
G01*
X3135*
G75*
G02X3035I-50J24*
G01*
X1527*
G75*
G02X1471Y2658I-56*
G01*
G75*
G02X1416Y2714J56*
G01*
X1157*
G37*
X1662Y3971D02*
G36*
G75*
G02X1655Y3993I29J22D01*
G01*
G75*
G02X1722Y4013I37*
G01*
X2199*
G75*
G02X2213Y4007J-20*
G01*
X2235Y3986*
G75*
G02X2272Y3971I7J-36*
G01*
X3915*
Y4252*
X28*
Y3971*
X1662*
G37*
X28Y896D02*
G36*
Y757D01*
X1542*
G75*
G02X1550Y763I32J-35*
G01*
X1542*
G75*
G02X1529Y768J18*
G01*
X1440Y857*
X1420*
G75*
G02X1352Y875I-32J18*
G01*
G75*
G02X1359Y896I37J0*
G01*
X28*
G37*
X1418D02*
G36*
G75*
G02X1420Y892I-30J-21D01*
G01*
X1447*
G75*
G02X1460Y887J-18*
G01*
X1549Y798*
X1833*
G75*
G02X1846Y793J-18*
G01*
X1915Y723*
X1941*
G75*
G02X1934Y786I14J34*
G01*
Y896*
X1865*
G75*
G02X1815Y846I-50*
G01*
G75*
G02X1765Y896J50*
G01*
G75*
G02X1733Y849I-50*
G01*
G75*
G02X1728Y839I-17J3*
G01*
X1696Y807*
G75*
G02X1684Y802I-12J12*
G01*
X1562*
G75*
G02X1549Y807J18*
G01*
X1461Y896*
X1418*
G37*
X1510D02*
G36*
X1569Y837D01*
X1676*
X1691Y852*
G75*
G02X1665Y896I24J44*
G01*
Y846*
X1565*
Y896*
X1510*
G37*
X2568D02*
G36*
X2429Y757D01*
X2647*
G75*
G02X2720I37*
G01*
X2840*
X2940Y857*
G75*
G02X2938Y867I35J10*
G01*
G75*
G02X2953Y896I37*
G01*
X2568*
G37*
X2997D02*
G36*
G75*
G02X3011Y867I-22J-29D01*
G01*
G75*
G02X3008Y851I-37*
G01*
G75*
G02X3055Y816I11J-35*
G01*
G75*
G02X3008Y781I-37*
G01*
X2984Y757*
X3363*
G75*
G02X3360Y773I33J16*
G01*
G75*
G02X3433I37*
G01*
G75*
G02X3429Y757I-37J0*
G01*
X3915*
Y896*
X2997*
G37*
X2701Y1682D02*
G36*
Y1571D01*
X2793Y1479*
X3152*
G75*
G02X3164Y1474J-18*
G01*
X3166Y1472*
Y1682*
X2998*
G75*
G02X2934Y1687I-31J20*
G01*
G75*
G02X2869Y1682I-33J15*
G01*
X2701*
G37*
D02*
D13*
X613Y2021D02*
X593D01*
X632Y2002D02*
Y1982D01*
Y2040D02*
Y2060D01*
X651Y2021D02*
X671D01*
X791Y1639D02*
X771D01*
X806Y1194D02*
X786D01*
X810Y1620D02*
Y1600D01*
Y1658D02*
Y1678D01*
X825Y1175D02*
Y1155D01*
Y1213D02*
Y1233D01*
X829Y1639D02*
X849D01*
X844Y1194D02*
X864D01*
X865Y2560D02*
X845D01*
X875Y1009D02*
X855D01*
X884Y2541D02*
Y2521D01*
Y2579D02*
Y2599D01*
X900Y984D02*
Y964D01*
Y1034D02*
Y1054D01*
X903Y2560D02*
X923D01*
X925Y1009D02*
X945D01*
X1027Y3910D02*
X1007D01*
X1046Y3891D02*
Y3871D01*
Y3929D02*
Y3949D01*
X1046Y580D02*
X1026D01*
X1065Y3910D02*
X1085D01*
X1065Y561D02*
Y541D01*
Y599D02*
Y619D01*
X1084Y580D02*
X1104D01*
X1113Y1954D02*
X1093D01*
X1132Y1935D02*
Y1915D01*
Y1973D02*
Y1993D01*
X1151Y1954D02*
X1171D01*
X1295Y1792D02*
X1275D01*
X1314Y1773D02*
Y1753D01*
Y1811D02*
Y1831D01*
X1333Y1792D02*
X1353D01*
X1388Y875D02*
X1447D01*
X1542Y781*
X1833*
X1908Y706*
X2353*
X2766Y1119*
X2999*
X1433Y3214D02*
X1413D01*
X1471Y3176D02*
Y3156D01*
Y3252D02*
Y3272D01*
X1489Y1578D02*
X1475Y1564D01*
X1489Y1605D02*
X1475Y1619D01*
X1509Y3214D02*
X1529D01*
X1514Y1072D02*
X1499D01*
X1384Y1186*
X1516Y1578D02*
X1530Y1564D01*
X1516Y1605D02*
X1530Y1619D01*
X1546Y1336D02*
X1703D01*
X1794Y1245*
X1603Y896D02*
X1554Y946D01*
Y1040*
X1762Y1249*
X1790*
X1615Y1027D02*
X1660Y1072D01*
X1888*
X1951Y1009*
Y761*
X1637Y1454D02*
X1617D01*
X1656Y1473D02*
Y1493D01*
X1675Y1454D02*
X1695D01*
X1695Y3879D02*
X2199D01*
Y3875*
X1715Y896D02*
Y852D01*
X1684Y820*
X1562*
X1400Y981*
Y1084*
X1306Y1178*
X1779Y2820D02*
X1759D01*
X1802Y2797D02*
Y2777D01*
Y2843D02*
Y2863D01*
X1825Y2820D02*
X1845D01*
X1999Y599D02*
Y607D01*
X2050Y658*
X2766*
X2975Y867*
X2074Y1261D02*
X2054D01*
X2085Y1250D02*
Y1230D01*
Y1272D02*
Y1292D01*
X2093Y576D02*
X2778D01*
X3018Y816*
X2096Y1261D02*
X2116D01*
X2184Y1690D02*
X2164D01*
X2203Y1671D02*
Y1651D01*
Y1709D02*
Y1729D01*
X2222Y1690D02*
X2242D01*
X2262Y1210D02*
X3003D01*
X3117Y1324*
X2487Y1040D02*
X2573D01*
X2711Y1178*
X3038*
X3117Y1257*
X2563Y2013D02*
X2543D01*
X2588Y1963D02*
Y1943D01*
Y2063D02*
Y2083D01*
X2594Y3903D02*
X2574D01*
X2613Y3884D02*
Y3864D01*
Y3922D02*
Y3942D01*
X2632Y3903D02*
X2652D01*
X2665Y757D02*
X2645D01*
X2684Y738D02*
Y718D01*
Y776D02*
Y796D01*
X2703Y757D02*
X2723D01*
X2715Y1422D02*
Y1481D01*
X2640Y1556*
Y2068*
X2754Y2182*
X2900Y1702D02*
Y1745D01*
X2940Y1784*
Y2064*
X2975Y2099*
X3026*
X3113Y2013*
X3088*
X2967Y1702D02*
Y1761D01*
X2987Y1781*
Y2012*
X2988Y2013*
X3094Y1796D02*
X3074D01*
X3113Y1777D02*
Y1757D01*
Y1815D02*
Y1835D01*
X3117Y1391D02*
Y1383D01*
X2987Y1253*
X2644*
X2597Y1300*
Y1903*
X2488Y2013*
X3132Y1796D02*
X3152D01*
X3337Y1056D02*
X2782D01*
X3337Y1206D02*
Y1277D01*
X3152Y1462*
X2786*
X2684Y1564*
Y2009*
X2688Y2013*
X3377Y773D02*
X3357D01*
X3384Y1166D02*
Y1265D01*
X3184Y1466*
Y2009*
X3188Y2013*
X3384Y1324D02*
Y2010D01*
X3388Y2013*
X3396Y754D02*
Y734D01*
Y792D02*
Y812D01*
X3415Y773D02*
X3435D01*
X3426Y1669D02*
X3412Y1654D01*
X3426Y1696D02*
X3412Y1710D01*
X3453Y1669D02*
X3467Y1654D01*
X3453Y1696D02*
X3467Y1710D01*
X3726Y3106D02*
X3706D01*
X3751Y3081D02*
Y3061D01*
Y3131D02*
Y3151D01*
X3776Y3106D02*
X3796D01*
D02*
D88*
X440Y576D03*
X593Y3485D03*
X790Y3765D03*
X1577D03*
X2365D03*
X3152D03*
X3349Y3481D03*
X3503Y580D03*
D02*
D89*
X1871Y3525D03*
X1971D03*
X2071D03*
D02*
D93*
X223Y2469D03*
X900Y1009D03*
X3707Y2552D03*
X3751Y3206D03*
D02*
D94*
X223Y2569D03*
X396Y1363D03*
Y1462D03*
X475Y1363D03*
Y1462D03*
X1000Y1009D03*
X1100D03*
X1200D03*
X1300D03*
X3707Y2652D03*
X3751Y3106D03*
D02*
D99*
X243Y2824D03*
X369Y3123D03*
X495Y2824D03*
X1243D03*
Y3123D03*
D02*
D100*
X1471Y2714D03*
Y3214D03*
X3085Y2737D03*
X3585D03*
D02*
D101*
X290Y1176D03*
Y1649D03*
D02*
D104*
X2169Y2462D03*
X2269Y2362D03*
X2369Y2462D03*
X3293Y2548D03*
X3368D03*
X3443D03*
D02*
D111*
X1615Y896D03*
D02*
D112*
Y996D03*
X1715Y896D03*
Y996D03*
X1815Y896D03*
Y996D03*
D02*
D113*
X2188Y2013D03*
D02*
D114*
X2288D03*
X2388D03*
X2488D03*
X2588D03*
X2688D03*
X2788D03*
X2888D03*
X2988D03*
X3088D03*
X3188D03*
X3288D03*
X3388D03*
X3488D03*
X3588D03*
X3688D03*
D02*
D115*
X1573Y544D03*
Y721D03*
X1810Y544D03*
Y721D03*
D02*
D116*
X664Y1745D02*
X384D01*
X274Y1855*
Y2174*
X766Y2666*
Y2879*
X908Y1477D02*
X963D01*
X1058Y1383*
X2144*
X2203Y1324*
X2479*
X2518Y1363*
X979Y1698D02*
X833Y1843D01*
X806*
X1042Y1477D02*
X1542D01*
X1609Y1410*
X2164*
X2219Y1355*
X2412*
X2467Y1410*
X1065Y580D02*
Y615D01*
X1125Y1241D02*
X1132Y1729*
X1117D01*
X1038Y1808*
Y2261*
X999Y2300*
X849*
X802Y2253*
X1200Y1009D02*
Y1077D01*
X1211Y1088*
X1239Y1969D02*
X1243D01*
X1333Y2060*
X2050*
X2140Y2151*
X2605*
X2719Y2265*
X2983*
X1251Y2143D02*
X1243Y2135D01*
X1302Y1592D02*
X1282Y1611D01*
X947*
X857Y1702*
X373*
X223Y1851*
Y2174*
X715Y2666*
Y2942*
X1573Y721D02*
X1491D01*
X1483Y714*
X1615Y896D02*
X1603D01*
X1615Y996D02*
Y1027D01*
X1636Y1603D02*
X2054D01*
X1691Y3993D02*
X2199D01*
X2243Y3950*
X1770Y954D02*
X1773D01*
X1815Y996*
X1790Y1249D02*
X1794Y1245D01*
X1815Y996D02*
X1834D01*
X1841Y989*
X1951Y761D02*
X1955Y757D01*
X2148Y1599D02*
X2144D01*
X2093Y1651*
X975*
X829Y1796*
X384*
X317Y1863*
Y2123*
X2169Y2462D02*
X2081D01*
X2195Y966D02*
X2203Y1690*
X2207D01*
X2211Y1686*
X2234Y1401D02*
Y1581D01*
X2125Y1690*
X1054*
X955Y1788*
Y1875*
X2684Y757D02*
X2672D01*
X3195Y2548D02*
X3191Y2552D01*
X3262Y2174D02*
Y2166D01*
X3239Y2143*
Y1843*
X3293Y2548D02*
X3282D01*
X3699Y1938D02*
Y2001D01*
X3688Y2013*
D02*
D118*
X317Y2123D03*
X632Y2021D03*
X664Y1745D03*
X715Y2942D03*
X766Y2879D03*
X810Y1639D03*
X825Y1194D03*
X884Y2560D03*
X908Y1477D03*
X1042D03*
X1046Y3910D03*
X1065Y580D03*
X1125Y1241D03*
X1132Y1954D03*
X1239Y1969D03*
X1243Y2135D03*
X1302Y1592D03*
X1306Y1178D03*
X1314Y1792D03*
X1384Y1186D03*
X1388Y875D03*
X1503Y1592D03*
X1514Y1072D03*
X1546Y1336D03*
X1636Y1603D03*
X1656Y1454D03*
X1691Y3993D03*
X1695Y3879D03*
X1699Y2399D03*
X1794Y1245D03*
X1955Y757D03*
X1999Y599D03*
X2054Y1603D03*
X2093Y576D03*
X2148Y1599D03*
X2195Y966D03*
X2199Y3875D03*
X2203Y1690D03*
X2234Y1401D03*
X2243Y3950D03*
X2262Y1210D03*
X2467Y1410D03*
X2487Y1040D03*
X2518Y1363D03*
X2613Y3903D03*
X2684Y757D03*
X2715Y1422D03*
X2754Y2182D03*
X2782Y1056D03*
X2900Y1702D03*
X2967D03*
X2975Y867D03*
X2983Y2265D03*
X2999Y1119D03*
X3018Y816D03*
X3113Y1796D03*
X3117Y1257D03*
Y1324D03*
Y1391D03*
X3239Y1843D03*
X3262Y2174D03*
X3337Y1056D03*
Y1206D03*
X3384Y1166D03*
Y1324D03*
X3396Y773D03*
X3440Y1682D03*
D02*
D119*
X199Y1084D03*
X644Y1107D03*
X1597Y1899D03*
X1790Y1903D03*
X1802Y2820D03*
X2058Y989D03*
X2314Y1261D03*
D02*
D120*
X802Y2253D03*
X806Y1843D03*
X955Y1875D03*
X979Y1698D03*
X1132Y1729D03*
X2085Y1261D03*
D02*
D121*
X199Y1084D02*
X621D01*
X644Y1107*
X369Y3123D02*
X892D01*
X1132Y2883*
Y2540*
X1249Y2424*
X1674*
X1699Y2399*
X1249Y2424D02*
X1251Y2422D01*
Y2143*
X1597Y1899D02*
X1786D01*
X1790Y1903*
X2058Y989D02*
Y993D01*
X2168Y1103*
Y1206*
X2231Y1269*
X2306*
X2314Y1261*
X3293Y2548D02*
X3195D01*
D02*
D122*
X199Y1084D02*
X125Y1158D01*
Y2710*
X247Y2832*
Y2824*
X243*
X290Y1176D02*
Y1300D01*
X266Y1324*
X290Y1649D02*
Y1572D01*
X251Y1532*
X1164Y3119D02*
X1239D01*
X1243Y3123*
X2184Y1891D02*
Y2009D01*
X2188Y2013*
D02*
D123*
X198Y2569D02*
X178D01*
X223Y2544D02*
Y2524D01*
Y2594D02*
Y2614D01*
X248Y2569D02*
X268D01*
X0Y0D02*
M02*
