%FSLAX23Y23*%
%MOIN*%
G04 EasyPC Gerber Version 16.0.6 Build 3249 *
%ADD10C,0.00500*%
%ADD137C,0.10000*%
X0Y0D02*
D02*
D10*
X309Y1143D02*
X321D01*
X315D02*
Y1181D01*
X309D02*
X321D01*
X323Y2529D02*
Y2566D01*
X354*
X348Y2548D02*
X323D01*
Y2529D02*
X354D01*
X323Y2629D02*
Y2666D01*
X354*
X348Y2648D02*
X323D01*
Y2629D02*
X354D01*
X343Y2883D02*
Y2921D01*
X374*
X368Y2902D02*
X343D01*
X390Y1235D02*
Y1273D01*
Y1254D02*
X422D01*
Y1235D02*
Y1273D01*
X390Y1708D02*
Y1746D01*
Y1727D02*
X422D01*
Y1708D02*
Y1746D01*
X417Y2220D02*
Y2182D01*
X449*
X469Y3182D02*
Y3220D01*
X500*
X494Y3201D02*
X469D01*
X496Y1423D02*
Y1460D01*
X527*
X521Y1441D02*
X496D01*
Y1423D02*
X527D01*
X496Y1521D02*
Y1558D01*
X527*
X521Y1540D02*
X496D01*
Y1521D02*
X527D01*
X571Y641D02*
X568Y638D01*
X561Y635*
X552*
X546Y638*
X543Y641*
X540Y648*
Y660*
X543Y666*
X546Y670*
X552Y673*
X561*
X568Y670*
X571Y666*
X575Y1423D02*
Y1460D01*
X606*
X600Y1441D02*
X575D01*
Y1423D02*
X606D01*
X575Y1521D02*
Y1558D01*
X606*
X600Y1540D02*
X575D01*
Y1521D02*
X606D01*
X595Y2883D02*
Y2921D01*
X626*
X620Y2902D02*
X595D01*
X724Y3551D02*
X721Y3548D01*
X715Y3545*
X706*
X699Y3548*
X696Y3551*
X693Y3557*
Y3570*
X696Y3576*
X699Y3579*
X706Y3582*
X715*
X721Y3579*
X724Y3576*
X732Y2118D02*
Y2080D01*
X764*
X754Y1167D02*
X766D01*
X760D02*
Y1204D01*
X754D02*
X766D01*
X764Y1842D02*
Y1804D01*
X795*
X815Y3039D02*
Y3001D01*
X846*
X866Y2976D02*
Y2938D01*
X898*
X890Y3824D02*
X906Y3862D01*
X921Y3824*
X896Y3840D02*
X915D01*
X902Y2312D02*
Y2350D01*
X917Y2331*
X933Y2350*
Y2312*
X906Y1903D02*
Y1940D01*
X921Y1922*
X937Y1940*
Y1903*
X910Y1736D02*
Y1698D01*
X941*
X925Y1291D02*
Y1253D01*
X957*
X984Y2657D02*
Y2619D01*
X1016*
X1000Y1068D02*
Y1106D01*
X1031*
X1025Y1087D02*
X1000D01*
Y1068D02*
X1031D01*
X1008Y1574D02*
Y1537D01*
X1039*
X1055Y1934D02*
Y1972D01*
X1071Y1953*
X1087Y1972*
Y1934*
X1079Y1757D02*
Y1795D01*
X1095Y1776*
X1110Y1795*
Y1757*
X1100Y1068D02*
Y1106D01*
X1131*
X1125Y1087D02*
X1100D01*
Y1068D02*
X1131D01*
X1142Y1574D02*
Y1537D01*
X1173*
X1146Y4007D02*
Y3970D01*
X1177*
X1165Y677D02*
Y639D01*
X1197*
X1200Y1068D02*
Y1106D01*
X1231*
X1225Y1087D02*
X1200D01*
Y1068D02*
X1231D01*
X1225Y1338D02*
Y1301D01*
X1256*
X1232Y1789D02*
Y1826D01*
X1248Y1807*
X1264Y1826*
Y1789*
X1232Y2051D02*
Y2013D01*
X1264*
X1300Y1068D02*
Y1106D01*
X1331*
X1325Y1087D02*
X1300D01*
Y1068D02*
X1331D01*
X1339Y2066D02*
Y2029D01*
X1370*
X1343Y2232D02*
Y2194D01*
X1374*
X1343Y2883D02*
Y2921D01*
X1374*
X1368Y2902D02*
X1343D01*
Y3182D02*
Y3220D01*
X1374*
X1368Y3201D02*
X1343D01*
X1400Y1068D02*
Y1106D01*
X1431*
X1425Y1087D02*
X1400D01*
Y1068D02*
X1431D01*
X1402Y1688D02*
Y1651D01*
X1433*
X1406Y1275D02*
Y1238D01*
X1437*
X1414Y1889D02*
Y1852D01*
X1445*
X1484Y1283D02*
Y1245D01*
X1516*
X1488Y972D02*
Y934D01*
X1520*
X1593Y2789D02*
X1602D01*
Y2785*
X1599Y2779*
X1596Y2776*
X1590Y2773*
X1584*
X1577Y2776*
X1574Y2779*
X1571Y2785*
Y2798*
X1574Y2804*
X1577Y2807*
X1584Y2810*
X1590*
X1596Y2807*
X1599Y2804*
X1602Y2798*
X1593Y3289D02*
X1602D01*
Y3285*
X1599Y3279*
X1596Y3276*
X1590Y3273*
X1584*
X1577Y3276*
X1574Y3279*
X1571Y3285*
Y3298*
X1574Y3304*
X1577Y3307*
X1584Y3310*
X1590*
X1596Y3307*
X1599Y3304*
X1602Y3298*
X1603Y1688D02*
Y1651D01*
X1634*
X1614Y1169D02*
Y1131D01*
X1646*
X1646Y1432D02*
Y1395D01*
X1677*
X1673Y604D02*
Y641D01*
Y622D02*
X1683D01*
X1705Y641*
X1683Y622D02*
X1705Y604D01*
X1673Y781D02*
Y818D01*
Y800D02*
X1683D01*
X1705Y818*
X1683Y800D02*
X1705Y781D01*
X1699Y3843D02*
X1705Y3840D01*
X1709Y3834*
X1705Y3827*
X1699Y3824*
X1677*
Y3862*
X1699*
X1705Y3859*
X1709Y3852*
X1705Y3846*
X1699Y3843*
X1677*
X1706Y1958D02*
X1719D01*
X1713D02*
Y1995D01*
X1706D02*
X1719D01*
X1715Y962D02*
X1719Y959D01*
X1725Y955*
X1731Y959*
X1734Y962*
Y993*
X1740*
X1734D02*
X1722D01*
X1715Y1062D02*
X1719Y1059D01*
X1725Y1055*
X1731Y1059*
X1734Y1062*
Y1093*
X1740*
X1734D02*
X1722D01*
X1736Y1700D02*
Y1663D01*
X1768*
X1756Y1551D02*
Y1513D01*
X1787*
X1791Y4090D02*
Y4052D01*
X1823*
X1795Y3976D02*
Y3938D01*
X1827*
X1799Y2495D02*
Y2458D01*
X1831*
X1815Y962D02*
X1819Y959D01*
X1825Y955*
X1831Y959*
X1834Y962*
Y993*
X1840*
X1834D02*
X1822D01*
X1815Y1062D02*
X1819Y1059D01*
X1825Y1055*
X1831Y1059*
X1834Y1062*
Y1093*
X1840*
X1834D02*
X1822D01*
X1899Y1962D02*
X1912D01*
X1906D02*
Y1999D01*
X1899D02*
X1912D01*
X1894Y1342D02*
Y1304D01*
X1925*
X1911Y2879D02*
X1924D01*
X1917D02*
Y2917D01*
X1911D02*
X1924D01*
X1910Y604D02*
Y641D01*
Y622D02*
X1919D01*
X1941Y641*
X1919Y622D02*
X1941Y604D01*
X1910Y781D02*
Y818D01*
Y800D02*
X1919D01*
X1941Y818*
X1919Y800D02*
X1941Y781D01*
X1915Y962D02*
X1919Y959D01*
X1925Y955*
X1931Y959*
X1934Y962*
Y993*
X1940*
X1934D02*
X1922D01*
X1915Y1062D02*
X1919Y1059D01*
X1925Y1055*
X1931Y1059*
X1934Y1062*
Y1093*
X1940*
X1934D02*
X1922D01*
X1971Y3584D02*
Y3621D01*
X1990*
X1996Y3618*
X1999Y3615*
X2002Y3609*
Y3596*
X1999Y3590*
X1996Y3587*
X1990Y3584*
X1971*
X2055Y854D02*
Y816D01*
X2087*
X2071Y3584D02*
Y3621D01*
X2090*
X2096Y3618*
X2099Y3615*
X2102Y3609*
Y3596*
X2099Y3590*
X2096Y3587*
X2090Y3584*
X2071*
X2099Y696D02*
Y659D01*
X2130*
X2154Y1700D02*
Y1663D01*
X2185*
X2167Y1049D02*
X2179D01*
X2173D02*
Y1086D01*
X2167D02*
X2179D01*
X2171Y3584D02*
Y3621D01*
X2190*
X2196Y3618*
X2199Y3615*
X2202Y3609*
Y3596*
X2199Y3590*
X2196Y3587*
X2190Y3584*
X2171*
X2185Y1320D02*
Y1358D01*
X2201Y1339*
X2216Y1358*
Y1320*
X2193Y673D02*
Y635D01*
X2224*
X2248Y1696D02*
Y1659D01*
X2279*
X2278Y2521D02*
X2291D01*
X2284D02*
Y2558D01*
X2278D02*
X2291D01*
X2297Y2072D02*
X2309D01*
X2303D02*
Y2110D01*
X2297D02*
X2309D01*
X2295Y1062D02*
Y1025D01*
X2327*
X2299Y3972D02*
Y3934D01*
X2331*
X2303Y1787D02*
Y1749D01*
X2335*
X2334Y1498D02*
Y1461D01*
X2365*
X2343Y4047D02*
Y4009D01*
X2374*
X2362Y1307D02*
Y1269D01*
X2394*
X2378Y2421D02*
X2391D01*
X2384D02*
Y2458D01*
X2378D02*
X2391D01*
X2397Y2072D02*
X2409D01*
X2403D02*
Y2110D01*
X2397D02*
X2409D01*
X2423Y1320D02*
X2435D01*
X2429D02*
Y1358D01*
X2423D02*
X2435D01*
X2487Y3843D02*
X2493Y3840D01*
X2496Y3834*
X2493Y3827*
X2487Y3824*
X2465*
Y3862*
X2487*
X2493Y3859*
X2496Y3852*
X2493Y3846*
X2487Y3843*
X2465*
X2478Y2521D02*
X2491D01*
X2484D02*
Y2558D01*
X2478D02*
X2491D01*
X2497Y2072D02*
X2509D01*
X2503D02*
Y2110D01*
X2497D02*
X2509D01*
X2567Y1507D02*
Y1470D01*
X2598*
X2587Y1137D02*
Y1100D01*
X2618*
X2597Y2072D02*
X2609D01*
X2603D02*
Y2110D01*
X2597D02*
X2609D01*
X2618Y1460D02*
Y1423D01*
X2650*
X2697Y2072D02*
X2709D01*
X2703D02*
Y2110D01*
X2697D02*
X2709D01*
X2713Y3999D02*
Y3962D01*
X2744*
X2784Y854D02*
Y816D01*
X2815*
X2797Y2072D02*
X2809D01*
X2803D02*
Y2110D01*
X2797D02*
X2809D01*
X2815Y1519D02*
Y1482D01*
X2846*
X2854Y2279D02*
Y2241D01*
X2886*
X2882Y1153D02*
Y1115D01*
X2913*
X2897Y2072D02*
X2909D01*
X2903D02*
Y2110D01*
X2897D02*
X2909D01*
X2997Y2072D02*
X3009D01*
X3003D02*
Y2110D01*
X2997D02*
X3009D01*
X3000Y1799D02*
Y1761D01*
X3031*
X3067Y1799D02*
Y1761D01*
X3098*
X3075Y964D02*
Y926D01*
X3106*
X3083Y2362D02*
Y2324D01*
X3114*
X3097Y2072D02*
X3109D01*
X3103D02*
Y2110D01*
X3097D02*
X3109D01*
X3099Y1216D02*
Y1178D01*
X3130*
X3118Y913D02*
Y875D01*
X3150*
X3207Y2812D02*
X3216D01*
Y2809*
X3213Y2803*
X3210Y2800*
X3204Y2797*
X3198*
X3191Y2800*
X3188Y2803*
X3185Y2809*
Y2822*
X3188Y2828*
X3191Y2831*
X3198Y2834*
X3204*
X3210Y2831*
X3213Y2828*
X3216Y2822*
X3197Y2072D02*
X3209D01*
X3203D02*
Y2110D01*
X3197D02*
X3209D01*
X3213Y1893D02*
Y1856D01*
X3244*
X3217Y1354D02*
Y1316D01*
X3248*
X3217Y1421D02*
Y1383D01*
X3248*
X3217Y1488D02*
Y1450D01*
X3248*
X3274Y3843D02*
X3280Y3840D01*
X3283Y3834*
X3280Y3827*
X3274Y3824*
X3252*
Y3862*
X3274*
X3280Y3859*
X3283Y3852*
X3280Y3846*
X3274Y3843*
X3252*
X3297Y2072D02*
X3309D01*
X3303D02*
Y2110D01*
X3297D02*
X3309D01*
X3339Y1940D02*
Y1903D01*
X3370*
X3362Y2271D02*
Y2234D01*
X3394*
X3397Y2072D02*
X3409D01*
X3403D02*
Y2110D01*
X3397D02*
X3409D01*
X3403Y2608D02*
X3415D01*
X3409D02*
Y2645D01*
X3403D02*
X3415D01*
X3437Y1153D02*
Y1115D01*
X3468*
X3437Y1303D02*
Y1265D01*
X3468*
X3480Y3547D02*
X3477Y3544D01*
X3471Y3541*
X3461*
X3455Y3544*
X3452Y3547*
X3449Y3553*
Y3566*
X3452Y3572*
X3455Y3575*
X3461Y3578*
X3471*
X3477Y3575*
X3480Y3572*
X3478Y2608D02*
X3490D01*
X3484D02*
Y2645D01*
X3478D02*
X3490D01*
X3484Y1263D02*
Y1226D01*
X3516*
X3484Y1421D02*
Y1383D01*
X3516*
X3497Y2072D02*
X3509D01*
X3503D02*
Y2110D01*
X3497D02*
X3509D01*
X3496Y870D02*
Y832D01*
X3527*
X3540Y1779D02*
Y1741D01*
X3571*
X3553Y2608D02*
X3565D01*
X3559D02*
Y2645D01*
X3553D02*
X3565D01*
X3597Y2072D02*
X3609D01*
X3603D02*
Y2110D01*
X3597D02*
X3609D01*
X3634Y645D02*
X3631Y642D01*
X3624Y639*
X3615*
X3609Y642*
X3606Y645*
X3603Y652*
Y664*
X3606Y670*
X3609Y673*
X3615Y677*
X3624*
X3631Y673*
X3634Y670*
X3707Y2812D02*
X3716D01*
Y2809*
X3713Y2803*
X3710Y2800*
X3704Y2797*
X3698*
X3691Y2800*
X3688Y2803*
X3685Y2809*
Y2822*
X3688Y2828*
X3691Y2831*
X3698Y2834*
X3704*
X3710Y2831*
X3713Y2828*
X3716Y2822*
X3697Y2072D02*
X3709D01*
X3703D02*
Y2110D01*
X3697D02*
X3709D01*
X3797Y2072D02*
X3809D01*
X3803D02*
Y2110D01*
X3797D02*
X3809D01*
X3807Y2612D02*
Y2649D01*
X3838*
X3832Y2630D02*
X3807D01*
Y2612D02*
X3838D01*
X3807Y2712D02*
Y2749D01*
X3838*
X3832Y2730D02*
X3807D01*
Y2712D02*
X3838D01*
X3851Y3165D02*
Y3203D01*
X3882*
X3876Y3184D02*
X3851D01*
Y3165D02*
X3882D01*
X3851Y3265D02*
Y3303D01*
X3882*
X3876Y3284D02*
X3851D01*
Y3265D02*
X3882D01*
D02*
D137*
X199Y1084D03*
X223Y2469D03*
Y2569D03*
X243Y2824D03*
X290Y1176D03*
Y1649D03*
X317Y2123D03*
X369Y3123D03*
X396Y1363D03*
Y1462D03*
X440Y576D03*
X475Y1363D03*
Y1462D03*
X495Y2824D03*
X593Y3485D03*
X632Y2021D03*
X644Y1107D03*
X664Y1745D03*
X715Y2942D03*
X766Y2879D03*
X790Y3765D03*
X802Y2253D03*
X806Y1843D03*
X810Y1639D03*
X825Y1194D03*
X884Y2560D03*
X900Y1009D03*
X908Y1477D03*
X955Y1875D03*
X979Y1698D03*
X1000Y1009D03*
X1042Y1477D03*
X1046Y3910D03*
X1065Y580D03*
X1100Y1009D03*
X1125Y1241D03*
X1132Y1729D03*
Y1954D03*
X1200Y1009D03*
X1239Y1969D03*
X1243Y2135D03*
Y2824D03*
Y3123D03*
X1300Y1009D03*
X1302Y1592D03*
X1306Y1178D03*
X1314Y1792D03*
X1384Y1186D03*
X1388Y875D03*
X1471Y2714D03*
Y3214D03*
X1503Y1592D03*
X1514Y1072D03*
X1546Y1336D03*
X1573Y544D03*
Y721D03*
X1577Y3765D03*
X1597Y1899D03*
X1615Y896D03*
Y996D03*
X1636Y1603D03*
X1656Y1454D03*
X1691Y3993D03*
X1695Y3879D03*
X1699Y2399D03*
X1715Y896D03*
Y996D03*
X1790Y1903D03*
X1794Y1245D03*
X1802Y2820D03*
X1810Y544D03*
Y721D03*
X1815Y896D03*
Y996D03*
X1871Y3525D03*
X1955Y757D03*
X1971Y3525D03*
X1999Y599D03*
X2054Y1603D03*
X2058Y989D03*
X2071Y3525D03*
X2085Y1261D03*
X2093Y576D03*
X2148Y1599D03*
X2169Y2462D03*
X2188Y2013D03*
X2195Y966D03*
X2199Y3875D03*
X2203Y1690D03*
X2234Y1401D03*
X2243Y3950D03*
X2262Y1210D03*
X2269Y2362D03*
X2288Y2013D03*
X2314Y1261D03*
X2365Y3765D03*
X2369Y2462D03*
X2388Y2013D03*
X2467Y1410D03*
X2487Y1040D03*
X2488Y2013D03*
X2518Y1363D03*
X2588Y2013D03*
X2613Y3903D03*
X2684Y757D03*
X2688Y2013D03*
X2715Y1422D03*
X2754Y2182D03*
X2782Y1056D03*
X2788Y2013D03*
X2888D03*
X2900Y1702D03*
X2967D03*
X2975Y867D03*
X2983Y2265D03*
X2988Y2013D03*
X2999Y1119D03*
X3018Y816D03*
X3085Y2737D03*
X3088Y2013D03*
X3113Y1796D03*
X3117Y1257D03*
Y1324D03*
Y1391D03*
X3152Y3765D03*
X3188Y2013D03*
X3239Y1843D03*
X3262Y2174D03*
X3288Y2013D03*
X3293Y2548D03*
X3337Y1056D03*
Y1206D03*
X3349Y3481D03*
X3368Y2548D03*
X3384Y1166D03*
Y1324D03*
X3388Y2013D03*
X3396Y773D03*
X3440Y1682D03*
X3443Y2548D03*
X3488Y2013D03*
X3503Y580D03*
X3585Y2737D03*
X3588Y2013D03*
X3688D03*
X3707Y2552D03*
Y2652D03*
X3751Y3106D03*
Y3206D03*
X0Y0D02*
M02*
