%FSLAX23Y23*%
%MOIN*%
G04 EasyPC Gerber Version 16.0.6 Build 3249 *
%ADD135O,0.07000X0.12000*%
%ADD134R,0.07000X0.12000*%
%ADD126R,0.07000X0.07000*%
%ADD132R,0.08500X0.08500*%
%ADD127C,0.07000*%
%ADD131C,0.07000*%
%ADD136C,0.08000*%
%ADD125C,0.08000*%
%ADD133C,0.08500*%
%ADD128C,0.08874*%
%ADD129C,0.09600*%
%ADD130C,0.14386*%
%ADD124C,0.16748*%
X0Y0D02*
D02*
D124*
X440Y576D03*
X593Y3485D03*
X790Y3765D03*
X1577D03*
X2365D03*
X3152D03*
X3349Y3481D03*
X3503Y580D03*
D02*
D125*
X1871Y3525D03*
X1971D03*
X2071D03*
D02*
D126*
X223Y2469D03*
X900Y1009D03*
X3707Y2552D03*
X3751Y3206D03*
D02*
D127*
X223Y2569D03*
X396Y1363D03*
Y1462D03*
X475Y1363D03*
Y1462D03*
X1000Y1009D03*
X1100D03*
X1200D03*
X1300D03*
X3707Y2652D03*
X3751Y3106D03*
D02*
D128*
X243Y2824D03*
X369Y3123D03*
X495Y2824D03*
X1243D03*
Y3123D03*
D02*
D129*
X1471Y2714D03*
Y3214D03*
X3085Y2737D03*
X3585D03*
D02*
D130*
X290Y1176D03*
Y1649D03*
D02*
D131*
X2169Y2462D03*
X2269Y2362D03*
X2369Y2462D03*
X3293Y2548D03*
X3368D03*
X3443D03*
D02*
D132*
X1615Y896D03*
D02*
D133*
Y996D03*
X1715Y896D03*
Y996D03*
X1815Y896D03*
Y996D03*
D02*
D134*
X2188Y2013D03*
D02*
D135*
X2288D03*
X2388D03*
X2488D03*
X2588D03*
X2688D03*
X2788D03*
X2888D03*
X2988D03*
X3088D03*
X3188D03*
X3288D03*
X3388D03*
X3488D03*
X3588D03*
X3688D03*
D02*
D136*
X1573Y544D03*
Y721D03*
X1810Y544D03*
Y721D03*
X0Y0D02*
M02*
