%FSLAX23Y23*%
%MOIN*%
G04 EasyPC Gerber Version 16.0.6 Build 3249 *
%ADD11C,0.00100*%
%ADD15C,0.00300*%
%ADD10C,0.00500*%
%ADD14C,0.00600*%
%ADD12C,0.00800*%
%ADD13C,0.01000*%
%ADD16C,0.01600*%
X0Y0D02*
D02*
D10*
X10Y4269D02*
X3932D01*
Y3639*
X10*
Y4269*
X38Y932D02*
Y969D01*
X69*
X63Y950D02*
X38D01*
X88Y941D02*
X91Y935D01*
X97Y932*
X110*
X116Y935*
X119Y941*
X116Y947*
X110Y950*
X97*
X91Y953*
X88Y960*
X91Y966*
X97Y969*
X110*
X116Y966*
X119Y960*
X144Y932D02*
X157D01*
X150D02*
Y969D01*
X144Y963*
X176Y2640D02*
Y2678D01*
X198*
X204Y2675*
X207Y2668*
X204Y2662*
X198Y2659*
X176*
X226Y2678D02*
Y2640D01*
X257*
X301D02*
X276D01*
X298Y2662*
X301Y2668*
X298Y2675*
X291Y2678*
X282*
X276Y2675*
X180Y785D02*
Y579D01*
X250*
Y785*
X180*
X203Y525D02*
X200Y528D01*
X197Y534*
Y544*
X200Y550*
X203Y553*
X209Y556*
X222*
X228Y553*
X231Y550*
X234Y544*
Y534*
X231Y528*
X228Y525*
X197Y500D02*
Y487D01*
Y494D02*
X234D01*
X228Y500*
X216Y447D02*
Y440D01*
X219Y434*
X225Y431*
X231Y434*
X234Y440*
Y447*
X231Y453*
X225Y456*
X219Y453*
X216Y447*
X213Y453*
X206Y456*
X200Y453*
X197Y447*
Y440*
X200Y434*
X206Y431*
X213Y434*
X216Y440*
X199Y1651D02*
X530D01*
Y1174*
X199*
Y1651*
X228Y1859D02*
X266D01*
Y1837*
X263Y1831*
X257Y1828*
X250Y1831*
X247Y1837*
Y1859*
Y1837D02*
X228Y1828D01*
Y1803D02*
Y1790D01*
Y1797D02*
X266D01*
X260Y1803*
X228Y1753D02*
Y1740D01*
Y1747D02*
X266D01*
X260Y1753*
X236Y2391D02*
X274D01*
Y2369*
X271Y2363*
X264Y2359*
X258Y2363*
X255Y2369*
Y2391*
Y2369D02*
X236Y2359D01*
Y2334D02*
Y2322D01*
Y2328D02*
X274D01*
X268Y2334*
X255Y2281D02*
Y2275D01*
X258Y2269*
X264Y2266*
X271Y2269*
X274Y2275*
Y2281*
X271Y2288*
X264Y2291*
X258Y2288*
X255Y2281*
X252Y2288*
X246Y2291*
X239Y2288*
X236Y2281*
Y2275*
X239Y2269*
X246Y2266*
X252Y2269*
X255Y2275*
X254Y1521D02*
X251Y1518D01*
X248Y1511*
X251Y1505*
X254Y1502*
X286*
Y1496*
Y1502D02*
Y1514D01*
X248Y1464D02*
Y1452D01*
Y1458D02*
X286D01*
X279Y1464*
X294Y560D02*
X291Y563D01*
X287Y570*
Y579*
X291Y585*
X294Y588*
X300Y592*
X312*
X319Y588*
X322Y585*
X325Y579*
Y570*
X322Y563*
X319Y560*
X287Y535D02*
Y523D01*
Y529D02*
X325D01*
X319Y535*
X287Y492D02*
X325Y467D01*
Y492*
X286Y1882D02*
Y2042D01*
X216*
Y1882*
X286*
X289Y2086D02*
Y2246D01*
X219*
Y2086*
X289*
X345Y614D02*
Y774D01*
X275*
Y614*
X345*
X366Y1855D02*
X404D01*
Y1833*
X401Y1827*
X394Y1824*
X388Y1827*
X385Y1833*
Y1855*
Y1833D02*
X366Y1824D01*
Y1799D02*
Y1787D01*
Y1793D02*
X404D01*
X397Y1799*
X366Y1730D02*
Y1755D01*
X388Y1733*
X394Y1730*
X401Y1733*
X404Y1740*
Y1749*
X401Y1755*
X366Y2391D02*
X404D01*
Y2369*
X401Y2363*
X394Y2359*
X388Y2363*
X385Y2369*
Y2391*
Y2369D02*
X366Y2359D01*
Y2334D02*
Y2322D01*
Y2328D02*
X404D01*
X397Y2334*
X366Y2291D02*
X404Y2266D01*
Y2291*
X388Y2509D02*
X385Y2506D01*
X379Y2502*
X369*
X363Y2506*
X360Y2509*
X357Y2515*
Y2527*
X360Y2534*
X363Y2537*
X369Y2540*
X379*
X385Y2537*
X388Y2534*
X413Y2502D02*
X426D01*
X419D02*
Y2540D01*
X413Y2534*
X460Y2506D02*
X466Y2502D01*
X472*
X479Y2506*
X482Y2512*
X479Y2518*
X472Y2521*
X466*
X472D02*
X479Y2524D01*
X482Y2531*
X479Y2537*
X472Y2540*
X466*
X460Y2537*
X360Y2553D02*
X520D01*
Y2623*
X360*
Y2553*
X419Y1882D02*
Y2042D01*
X349*
Y1882*
X419*
Y2086D02*
Y2246D01*
X349*
Y2086*
X419*
X479Y2042D02*
Y1882D01*
X549*
Y2042*
X479*
Y2246D02*
Y2086D01*
X549*
Y2246*
X479*
X502Y2308D02*
X499Y2311D01*
X496Y2318*
Y2327*
X499Y2333*
X502Y2336*
X509Y2340*
X521*
X527Y2336*
X531Y2333*
X534Y2327*
Y2318*
X531Y2311*
X527Y2308*
X496Y2274D02*
X534D01*
X509Y2290*
Y2265*
X491Y1024D02*
X207D01*
Y884*
X491*
Y1024*
X628Y2300D02*
X625Y2304D01*
X622Y2310*
Y2319*
X625Y2325*
X628Y2329*
X635Y2332*
X647*
X653Y2329*
X656Y2325*
X660Y2319*
Y2310*
X656Y2304*
X653Y2300*
X622Y2275D02*
Y2263D01*
Y2269D02*
X660D01*
X653Y2275*
X620Y2553D02*
X826D01*
Y2623*
X620*
Y2553*
X656Y2501D02*
X653Y2498D01*
X646Y2495*
X637*
X631Y2498*
X628Y2501*
X625Y2507*
Y2520*
X628Y2526*
X631Y2529*
X637Y2532*
X646*
X653Y2529*
X656Y2526*
X681Y2495D02*
X693D01*
X687D02*
Y2532D01*
X681Y2526*
X740Y2495D02*
Y2532D01*
X725Y2507*
X750*
X695Y564D02*
X692Y561D01*
X686Y558*
X676*
X670Y561*
X667Y564*
X664Y570*
Y583*
X667Y589*
X670Y592*
X676Y595*
X686*
X692Y592*
X695Y589*
X720Y558D02*
X733D01*
X726D02*
Y595D01*
X720Y589*
X770Y558D02*
X783D01*
X776D02*
Y595D01*
X770Y589*
X675Y2086D02*
Y2246D01*
X605*
Y2086*
X675*
X703Y2951D02*
Y2989D01*
X725*
X731Y2986*
X735Y2979*
X731Y2973*
X725Y2970*
X703*
X725D02*
X735Y2951D01*
X753Y2989D02*
Y2951D01*
X785*
X810D02*
X822D01*
X816D02*
Y2989D01*
X810Y2983*
X758Y1757D02*
Y1726D01*
X721Y1757*
Y1726*
Y1701D02*
Y1688D01*
Y1694D02*
X758D01*
X752Y1701*
X714Y1324D02*
X874D01*
Y1394*
X714*
Y1324*
Y1442D02*
X874D01*
Y1512*
X714*
Y1442*
X762Y1151D02*
Y1119D01*
X724Y1151*
Y1119*
Y1076D02*
Y1101D01*
X746Y1079*
X753Y1076*
X759Y1079*
X762Y1085*
Y1094*
X759Y1101*
X716Y1046D02*
Y886D01*
X786*
Y1046*
X716*
X716Y1673D02*
X769D01*
Y1550*
X716*
Y1673*
X770Y871D02*
X732D01*
Y840*
Y815D02*
Y802D01*
Y809D02*
X770D01*
X764Y815*
X735Y1898D02*
Y1870D01*
X738Y1864*
X744Y1861*
X757*
X763Y1864*
X766Y1870*
Y1898*
X810Y1861D02*
X785D01*
X807Y1883*
X810Y1889*
X807Y1895*
X800Y1898*
X791*
X785Y1895*
X766Y691D02*
Y729D01*
X788*
X794Y726*
X798Y720*
X794Y713*
X788Y710*
X766*
X788D02*
X798Y691D01*
X841D02*
X816D01*
X838Y713*
X841Y720*
X838Y726*
X832Y729*
X823*
X816Y726*
X869Y695D02*
X876Y691D01*
X882*
X888Y695*
X891Y701*
Y720*
X888Y726*
X882Y729*
X876*
X869Y726*
X866Y720*
Y701*
X869Y695*
X888Y726*
X769Y1164D02*
X716D01*
Y1287*
X769*
Y1164*
X804Y545D02*
X964D01*
Y615*
X804*
Y545*
X806Y904D02*
Y744D01*
X876*
Y904*
X806*
X829Y1522D02*
Y1560D01*
X851*
X857Y1557*
X861Y1550*
X857Y1544*
X851Y1541*
X829*
X851D02*
X861Y1522D01*
X904D02*
X879D01*
X901Y1544*
X904Y1550*
X901Y1557*
X895Y1560*
X886*
X879Y1557*
X945Y1522D02*
Y1560D01*
X929Y1535*
X954*
X857Y1081D02*
Y1119D01*
X888*
X882Y1100D02*
X857D01*
Y1081D02*
X888D01*
X907D02*
Y1119D01*
X938Y1081*
Y1119*
X988Y1087D02*
X985Y1084D01*
X979Y1081*
X969*
X963Y1084*
X960Y1087*
X957Y1094*
Y1106*
X960Y1112*
X963Y1116*
X969Y1119*
X979*
X985Y1116*
X988Y1112*
X1013Y1081D02*
X1026D01*
X1019D02*
Y1119D01*
X1013Y1112*
X892Y1341D02*
Y1379D01*
X914*
X920Y1375*
X924Y1369*
X920Y1363*
X914Y1360*
X892*
X914D02*
X924Y1341D01*
X967D02*
X942D01*
X964Y1363*
X967Y1369*
X964Y1375*
X958Y1379*
X949*
X942Y1375*
X995Y1344D02*
X1002Y1341D01*
X1008*
X1014Y1344*
X1017Y1350*
X1014Y1357*
X1008Y1360*
X1002*
X1008D02*
X1014Y1363D01*
X1017Y1369*
X1014Y1375*
X1008Y1379*
X1002*
X995Y1375*
X916Y691D02*
Y729D01*
X938*
X944Y726*
X947Y720*
X944Y713*
X938Y710*
X916*
X938D02*
X947Y691D01*
X991D02*
X966D01*
X988Y713*
X991Y720*
X988Y726*
X982Y729*
X972*
X966Y726*
X1022Y691D02*
X1035D01*
X1028D02*
Y729D01*
X1022Y723*
X994Y744D02*
Y904D01*
X924*
Y744*
X994*
X1042Y904D02*
Y744D01*
X1112*
Y904*
X1042*
X1059Y733D02*
X1097D01*
Y711*
X1093Y705*
X1087Y702*
X1081Y705*
X1078Y711*
Y733*
Y711D02*
X1059Y702D01*
Y658D02*
Y683D01*
X1081Y661*
X1087Y658*
X1093Y661*
X1097Y668*
Y677*
X1093Y683*
X1059Y608D02*
Y633D01*
X1081Y611*
X1087Y608*
X1093Y611*
X1097Y618*
Y627*
X1093Y633*
X1074Y2023D02*
G75*
G02X1029Y2068J45D01*
G01*
G75*
G02X1074Y2113I45*
G01*
Y2228D02*
X734D01*
Y1908*
X1074*
Y2228*
X1133Y2156D02*
Y1996D01*
X1203*
Y2156*
X1133*
X1136Y691D02*
Y729D01*
X1158*
X1164Y726*
X1168Y720*
X1164Y713*
X1158Y710*
X1136*
X1158D02*
X1168Y691D01*
X1193D02*
X1205D01*
X1199D02*
Y729D01*
X1193Y723*
X1246Y691D02*
X1252Y695D01*
X1258Y701*
X1261Y710*
Y720*
X1258Y726*
X1252Y729*
X1246*
X1239Y726*
X1236Y720*
X1239Y713*
X1246Y710*
X1252*
X1258Y713*
X1261Y720*
X1152Y2218D02*
X1149Y2221D01*
X1146Y2227*
Y2237*
X1149Y2243*
X1152Y2246*
X1158Y2249*
X1171*
X1177Y2246*
X1180Y2243*
X1183Y2237*
Y2227*
X1180Y2221*
X1177Y2218*
X1149Y2199D02*
X1146Y2193D01*
Y2183*
X1149Y2177*
X1155Y2174*
X1158*
X1164Y2177*
X1168Y2183*
Y2199*
X1183*
Y2174*
X1179Y1690D02*
X1176Y1687D01*
X1170Y1684*
X1161*
X1154Y1687*
X1151Y1690*
X1148Y1696*
Y1709*
X1151Y1715*
X1154Y1718*
X1161Y1721*
X1170*
X1176Y1718*
X1179Y1715*
X1198Y1693D02*
X1201Y1699D01*
X1208Y1702*
X1214*
X1220Y1699*
X1223Y1693*
X1220Y1687*
X1214Y1684*
X1208*
X1201Y1687*
X1198Y1693*
Y1702*
X1201Y1712*
X1208Y1718*
X1214Y1721*
X1148Y3808D02*
Y3780D01*
X1151Y3773*
X1158Y3770*
X1170*
X1176Y3773*
X1179Y3780*
Y3808*
X1198Y3770D02*
X1223Y3808D01*
X1198*
X1156Y904D02*
Y744D01*
X1226*
Y904*
X1156*
X1182Y545D02*
X1342D01*
Y615*
X1182*
Y545*
X1205Y3619D02*
X1242D01*
Y3597*
X1239Y3591*
X1233Y3588*
X1227Y3591*
X1224Y3597*
Y3619*
Y3597D02*
X1205Y3588D01*
Y3563D02*
Y3550D01*
Y3557D02*
X1242D01*
X1236Y3563*
X1205Y3503D02*
X1242D01*
X1217Y3519*
Y3494*
X1258Y3326D02*
Y3486D01*
X1188*
Y3326*
X1258*
X1271Y904D02*
Y744D01*
X1341*
Y904*
X1271*
X1274Y1209D02*
Y1181D01*
X1277Y1175*
X1284Y1172*
X1296*
X1302Y1175*
X1305Y1181*
Y1209*
X1327Y1175D02*
X1334Y1172D01*
X1340*
X1346Y1175*
X1349Y1181*
X1346Y1187*
X1340Y1191*
X1334*
X1340D02*
X1346Y1194D01*
X1349Y1200*
X1346Y1206*
X1340Y1209*
X1334*
X1327Y1206*
X1279Y2156D02*
Y1996D01*
X1349*
Y2156*
X1279*
X1286Y691D02*
Y729D01*
X1308*
X1314Y726*
X1317Y720*
X1314Y713*
X1308Y710*
X1286*
X1308D02*
X1317Y691D01*
X1339Y695D02*
X1345Y691D01*
X1352*
X1358Y695*
X1361Y701*
X1358Y707*
X1352Y710*
X1345*
X1352D02*
X1358Y713D01*
X1361Y720*
X1358Y726*
X1352Y729*
X1345*
X1339Y726*
X1411Y691D02*
X1386D01*
X1408Y713*
X1411Y720*
X1408Y726*
X1402Y729*
X1392*
X1386Y726*
X1299Y2296D02*
X1337D01*
Y2274*
X1334Y2268*
X1327Y2265*
X1321Y2268*
X1318Y2274*
Y2296*
Y2274D02*
X1299Y2265D01*
Y2240D02*
Y2227D01*
Y2234D02*
X1337D01*
X1331Y2240*
X1309Y2196D02*
X1315Y2193D01*
X1318Y2187*
Y2181*
X1315Y2174*
X1309Y2171*
X1302Y2174*
X1299Y2181*
Y2187*
X1302Y2193*
X1309Y2196*
X1318*
X1327Y2193*
X1334Y2187*
X1337Y2181*
X1329Y3541D02*
X1326Y3544D01*
X1323Y3550*
Y3559*
X1326Y3566*
X1329Y3569*
X1335Y3572*
X1348*
X1354Y3569*
X1357Y3566*
X1360Y3559*
Y3550*
X1357Y3544*
X1354Y3541*
X1323Y3497D02*
Y3522D01*
X1345Y3500*
X1351Y3497*
X1357Y3500*
X1360Y3506*
Y3516*
X1357Y3522*
X1345Y2737D02*
X144D01*
Y3210*
X1345*
Y2737*
X1404Y568D02*
X1401Y565D01*
X1394Y562*
X1385*
X1379Y565*
X1376Y568*
X1373Y574*
Y587*
X1376Y593*
X1379Y596*
X1385Y599*
X1394*
X1401Y596*
X1404Y593*
X1429Y562D02*
X1441D01*
X1435D02*
Y599D01*
X1429Y593*
X1498Y562D02*
X1473D01*
X1494Y583*
X1498Y590*
X1494Y596*
X1488Y599*
X1479*
X1473Y596*
X1376Y3326D02*
Y3486D01*
X1306*
Y3326*
X1376*
X1385Y2156D02*
Y1996D01*
X1455*
Y2156*
X1385*
X1408Y2214D02*
X1405Y2217D01*
X1402Y2223*
Y2233*
X1405Y2239*
X1408Y2242*
X1414Y2245*
X1427*
X1433Y2242*
X1436Y2239*
X1439Y2233*
Y2223*
X1436Y2217*
X1433Y2214*
X1405Y2192D02*
X1402Y2186D01*
Y2179*
X1405Y2173*
X1411Y2170*
X1417Y2173*
X1420Y2179*
Y2186*
Y2179D02*
X1424Y2173D01*
X1430Y2170*
X1436Y2173*
X1439Y2179*
Y2186*
X1436Y2192*
X1401Y1737D02*
X1241D01*
Y1667*
X1401*
Y1737*
X1453Y3005D02*
X1490D01*
Y2986*
X1487Y2980*
X1484Y2977*
X1478Y2974*
X1465*
X1459Y2977*
X1456Y2980*
X1453Y2986*
Y3005*
Y2949D02*
Y2936D01*
Y2942D02*
X1490D01*
X1484Y2949*
X1530Y1911D02*
X1527Y1914D01*
X1524Y1920*
Y1929*
X1527Y1936*
X1530Y1939*
X1536Y1942*
X1549*
X1555Y1939*
X1558Y1936*
X1561Y1929*
Y1920*
X1558Y1914*
X1555Y1911*
X1524Y1886D02*
Y1873D01*
Y1879D02*
X1561D01*
X1555Y1886*
X1527Y1839D02*
X1524Y1833D01*
Y1826*
X1527Y1820*
X1533Y1817*
X1552*
X1558Y1820*
X1561Y1826*
Y1833*
X1558Y1839*
X1552Y1842*
X1533*
X1527Y1839*
X1558Y1820*
X1524Y2296D02*
X1561D01*
Y2274*
X1558Y2268*
X1552Y2265*
X1546Y2268*
X1542Y2274*
Y2296*
Y2274D02*
X1524Y2265D01*
Y2240D02*
Y2227D01*
Y2234D02*
X1561D01*
X1555Y2240*
X1527Y2196D02*
X1524Y2190D01*
Y2181*
X1527Y2174*
X1533Y2171*
X1536*
X1542Y2174*
X1546Y2181*
Y2196*
X1561*
Y2171*
X1577Y1641D02*
Y1801D01*
X1507*
Y1641*
X1577*
Y1996D02*
Y2156D01*
X1507*
Y1996*
X1577*
X1632Y1493D02*
X1629Y1490D01*
X1623Y1487*
X1613*
X1607Y1490*
X1604Y1493*
X1601Y1499*
Y1512*
X1604Y1518*
X1607Y1521*
X1613Y1524*
X1623*
X1629Y1521*
X1632Y1518*
X1660Y1505D02*
X1667D01*
X1673Y1509*
X1676Y1515*
X1673Y1521*
X1667Y1524*
X1660*
X1654Y1521*
X1651Y1515*
X1654Y1509*
X1660Y1505*
X1654Y1502*
X1651Y1496*
X1654Y1490*
X1660Y1487*
X1667*
X1673Y1490*
X1676Y1496*
X1673Y1502*
X1667Y1505*
X1640Y504D02*
X1643Y498D01*
X1650Y495*
X1662*
X1668Y498*
X1672Y504*
X1668Y510*
X1662Y513*
X1650*
X1643Y516*
X1640Y523*
X1643Y529*
X1650Y532*
X1662*
X1668Y529*
X1672Y523*
X1690Y532D02*
X1693Y495D01*
X1706Y513*
X1718Y495*
X1722Y532*
X1747Y495D02*
X1759D01*
X1753D02*
Y532D01*
X1747Y526*
X1664Y1855D02*
Y1827D01*
X1667Y1821*
X1673Y1817*
X1686*
X1692Y1821*
X1695Y1827*
Y1855*
X1720Y1817D02*
X1733D01*
X1726D02*
Y1855D01*
X1720Y1849*
X1690Y1470D02*
X1850D01*
Y1540*
X1690*
Y1470*
X1691Y574D02*
G75*
G03Y692J59D01*
G01*
G75*
G03Y574J-59*
G01*
X1711Y2939D02*
Y2977D01*
X1733*
X1739Y2974*
X1742Y2968*
X1739Y2961*
X1733Y2958*
X1711*
X1733D02*
X1742Y2939D01*
X1767D02*
X1780D01*
X1774D02*
Y2977D01*
X1767Y2971*
X1746Y712D02*
X1637D01*
G75*
G03X1608Y682J-30*
G01*
Y584*
G75*
G03X1637Y554I30*
G01*
X1746*
G75*
G03X1775Y584J30*
G01*
Y682*
G75*
G03X1746Y712I-30*
G01*
X1765Y1650D02*
Y1800D01*
X1625*
Y1650*
X1764*
X1771Y3585D02*
X2171D01*
X1771Y3635D02*
Y3465D01*
X2171*
Y3635*
X1771*
X1778Y771D02*
Y796D01*
X1665*
Y771*
X1778*
X1837Y1863D02*
X1834Y1867D01*
X1831Y1873*
Y1882*
X1834Y1888*
X1837Y1892*
X1843Y1895*
X1856*
X1862Y1892*
X1865Y1888*
X1868Y1882*
Y1873*
X1865Y1867*
X1862Y1863*
X1831Y1835D02*
X1834Y1829D01*
X1840Y1823*
X1850Y1820*
X1859*
X1865Y1823*
X1868Y1829*
Y1835*
X1865Y1842*
X1859Y1845*
X1853Y1842*
X1850Y1835*
Y1829*
X1853Y1823*
X1859Y1820*
X1884Y1641D02*
Y1801D01*
X1814*
Y1641*
X1884*
X1908Y2939D02*
Y2977D01*
X1930*
X1936Y2974*
X1939Y2968*
X1936Y2961*
X1930Y2958*
X1908*
X1930D02*
X1939Y2939D01*
X1983D02*
X1958D01*
X1980Y2961*
X1983Y2968*
X1980Y2974*
X1974Y2977*
X1964*
X1958Y2974*
X1951Y1663D02*
X2157D01*
Y1733*
X1951*
Y1663*
X1950Y877D02*
X1953Y874D01*
X1956Y868*
Y859*
X1953Y852*
X1950Y849*
X1944Y846*
X1931*
X1925Y849*
X1922Y852*
X1919Y859*
Y868*
X1922Y874*
X1925Y877*
X1944Y896D02*
X1931D01*
X1925Y899*
X1922Y902*
X1919Y909*
Y915*
X1922Y921*
X1925Y924*
X1931Y927*
X1944*
X1950Y924*
X1953Y921*
X1956Y915*
Y909*
X1953Y902*
X1950Y899*
X1944Y896*
X1956Y946D02*
X1919D01*
X1956Y977*
X1919*
X1956Y996D02*
X1919D01*
X1956Y1027*
X1919*
X1956Y1052D02*
Y1065D01*
Y1059D02*
X1919D01*
X1925Y1052*
X2015Y771D02*
Y1121D01*
X1415*
Y771*
X2015*
X2030Y1197D02*
Y1169D01*
X2033Y1163*
X2039Y1160*
X2052*
X2058Y1163*
X2061Y1169*
Y1197*
X2096Y1160D02*
Y1197D01*
X2080Y1172*
X2105*
X2074Y884D02*
Y724D01*
X2144*
Y884*
X2074*
X2091Y1017D02*
X2128D01*
Y995*
X2125Y989*
X2119Y985*
X2112Y989*
X2109Y995*
Y1017*
Y995D02*
X2091Y985D01*
Y942D02*
Y967D01*
X2112Y945*
X2119Y942*
X2125Y945*
X2128Y951*
Y960*
X2125Y967*
X2100Y917D02*
X2106Y914D01*
X2109Y907*
Y901*
X2106Y895*
X2100Y892*
X2094Y895*
X2091Y901*
Y907*
X2094Y914*
X2100Y917*
X2109*
X2119Y914*
X2125Y907*
X2128Y901*
X2105Y2939D02*
Y2977D01*
X2127*
X2133Y2974*
X2136Y2968*
X2133Y2961*
X2127Y2958*
X2105*
X2127D02*
X2136Y2939D01*
X2158Y2943D02*
X2164Y2939D01*
X2170*
X2177Y2943*
X2180Y2949*
X2177Y2955*
X2170Y2958*
X2164*
X2170D02*
X2177Y2961D01*
X2180Y2968*
X2177Y2974*
X2170Y2977*
X2164*
X2158Y2974*
X2121Y2632D02*
Y2670D01*
X2142*
X2149Y2667*
X2152Y2661*
X2149Y2654*
X2142Y2651*
X2121*
X2142D02*
X2152Y2632D01*
X2174Y2636D02*
X2180Y2632D01*
X2186*
X2192Y2636*
X2196Y2642*
X2192Y2648*
X2186Y2651*
X2180*
X2186D02*
X2192Y2654D01*
X2196Y2661*
X2192Y2667*
X2186Y2670*
X2180*
X2174Y2667*
X2227Y2632D02*
X2239D01*
X2233D02*
Y2670D01*
X2227Y2664*
X2138Y1913D02*
Y2113D01*
X3738*
Y1913*
X2138*
X2206Y3509D02*
Y3546D01*
X2222Y3528*
X2237Y3546*
Y3509*
X2262D02*
X2275D01*
X2269D02*
Y3546D01*
X2262Y3540*
X2224Y989D02*
X2262D01*
Y970*
X2259Y964*
X2256Y961*
X2249Y958*
X2237*
X2231Y961*
X2228Y964*
X2224Y970*
Y989*
X2228Y936D02*
X2224Y930D01*
Y924*
X2228Y917*
X2234Y914*
X2240Y917*
X2243Y924*
Y930*
Y924D02*
X2246Y917D01*
X2253Y914*
X2259Y917*
X2262Y924*
Y930*
X2259Y936*
X2274Y1879D02*
Y1841D01*
X2305*
X2355Y1847D02*
X2352Y1844D01*
X2346Y1841*
X2337*
X2330Y1844*
X2327Y1847*
X2324Y1854*
Y1866*
X2327Y1872*
X2330Y1875*
X2337Y1879*
X2346*
X2352Y1875*
X2355Y1872*
X2374Y1841D02*
Y1879D01*
X2393*
X2399Y1875*
X2402Y1872*
X2405Y1866*
Y1854*
X2402Y1847*
X2399Y1844*
X2393Y1841*
X2374*
X2430D02*
X2443D01*
X2437D02*
Y1879D01*
X2430Y1872*
X2283Y666D02*
Y901D01*
X2203*
Y666*
X2215Y656*
X2270*
X2283Y666*
X2302Y2939D02*
Y2977D01*
X2324*
X2330Y2974*
X2333Y2968*
X2330Y2961*
X2324Y2958*
X2302*
X2324D02*
X2333Y2939D01*
X2367D02*
Y2977D01*
X2352Y2952*
X2377*
X2388Y1225D02*
X2385Y1222D01*
X2379Y1219*
X2369*
X2363Y1222*
X2360Y1225*
X2357Y1232*
Y1244*
X2360Y1250*
X2363Y1253*
X2369Y1257*
X2379*
X2385Y1253*
X2388Y1250*
X2413Y1219D02*
X2426D01*
X2419D02*
Y1257D01*
X2413Y1250*
X2466Y1219D02*
X2472Y1222D01*
X2479Y1228*
X2482Y1238*
Y1247*
X2479Y1253*
X2472Y1257*
X2466*
X2460Y1253*
X2457Y1247*
X2460Y1241*
X2466Y1238*
X2472*
X2479Y1241*
X2482Y1247*
X2361Y1427D02*
Y1267D01*
X2431*
Y1427*
X2361*
X2419Y2612D02*
Y2312D01*
X2119*
Y2612*
X2419*
X2511Y580D02*
X2508Y577D01*
X2502Y574*
X2493*
X2486Y577*
X2483Y580*
X2480Y587*
Y599*
X2483Y605*
X2486Y608*
X2493Y612*
X2502*
X2508Y608*
X2511Y605*
X2555Y574D02*
X2530D01*
X2552Y596*
X2555Y602*
X2552Y608*
X2546Y612*
X2536*
X2530Y608*
X2583Y577D02*
X2589Y574D01*
X2596*
X2602Y577*
X2605Y583*
Y602*
X2602Y608*
X2596Y612*
X2589*
X2583Y608*
X2580Y602*
Y583*
X2583Y577*
X2602Y608*
X2495Y790D02*
Y630D01*
X2565*
Y790*
X2495*
X2499Y2939D02*
Y2977D01*
X2520*
X2527Y2974*
X2530Y2968*
X2527Y2961*
X2520Y2958*
X2499*
X2520D02*
X2530Y2939D01*
X2549Y2943D02*
X2555Y2939D01*
X2564*
X2570Y2943*
X2574Y2949*
Y2952*
X2570Y2958*
X2564Y2961*
X2549*
Y2977*
X2574*
X2581Y824D02*
X2578Y821D01*
X2572Y817*
X2562*
X2556Y821*
X2553Y824*
X2550Y830*
Y842*
X2553Y849*
X2556Y852*
X2562Y855*
X2572*
X2578Y852*
X2581Y849*
X2606Y817D02*
X2618D01*
X2612D02*
Y855D01*
X2606Y849*
X2650Y821D02*
X2656Y817D01*
X2665*
X2672Y821*
X2675Y827*
Y830*
X2672Y836*
X2665Y839*
X2650*
Y855*
X2675*
X2553Y1802D02*
Y1774D01*
X2556Y1768*
X2562Y1765*
X2575*
X2581Y1768*
X2584Y1774*
Y1802*
X2612Y1784D02*
X2618D01*
X2625Y1787*
X2628Y1793*
X2625Y1799*
X2618Y1802*
X2612*
X2606Y1799*
X2603Y1793*
X2606Y1787*
X2612Y1784*
X2606Y1781*
X2603Y1774*
X2606Y1768*
X2612Y1765*
X2618*
X2625Y1768*
X2628Y1774*
X2625Y1781*
X2618Y1784*
X2562Y2774D02*
Y2614D01*
X2632*
Y2774*
X2562*
X2616Y2355D02*
X2579D01*
Y2324*
Y2305D02*
X2616D01*
Y2274*
X2598Y2280D02*
Y2305D01*
X2579D02*
Y2274D01*
Y2255D02*
X2616D01*
Y2237*
X2613Y2230*
X2610Y2227*
X2604Y2224*
X2591*
X2585Y2227*
X2582Y2230*
X2579Y2237*
Y2255*
X2582Y2202D02*
X2579Y2196D01*
Y2190*
X2582Y2183*
X2588Y2180*
X2594Y2183*
X2598Y2190*
Y2196*
Y2190D02*
X2601Y2183D01*
X2607Y2180*
X2613Y2183*
X2616Y2190*
Y2196*
X2613Y2202*
X2579Y2906D02*
X2616D01*
Y2885*
X2613Y2878*
X2607Y2875*
X2601Y2878*
X2598Y2885*
Y2906*
Y2885D02*
X2579Y2875D01*
Y2831D02*
Y2856D01*
X2601Y2835*
X2607Y2831*
X2613Y2835*
X2616Y2841*
Y2850*
X2613Y2856*
X2579Y2797D02*
X2582Y2791D01*
X2588Y2785*
X2598Y2781*
X2607*
X2613Y2785*
X2616Y2791*
Y2797*
X2613Y2803*
X2607Y2806*
X2601Y2803*
X2598Y2797*
Y2791*
X2601Y2785*
X2607Y2781*
X2632Y2393D02*
Y2553D01*
X2562*
Y2393*
X2573Y2374*
X2623*
X2632Y2393*
X2695Y2939D02*
Y2977D01*
X2717*
X2724Y2974*
X2727Y2968*
X2724Y2961*
X2717Y2958*
X2695*
X2717D02*
X2727Y2939D01*
X2745Y2949D02*
X2749Y2955D01*
X2755Y2958*
X2761*
X2767Y2955*
X2770Y2949*
X2767Y2943*
X2761Y2939*
X2755*
X2749Y2943*
X2745Y2949*
Y2958*
X2749Y2968*
X2755Y2974*
X2761Y2977*
X2719Y2774D02*
Y2614D01*
X2789*
Y2774*
X2719*
X2736Y2906D02*
X2774D01*
Y2885*
X2771Y2878*
X2764Y2875*
X2758Y2878*
X2755Y2885*
Y2906*
Y2885D02*
X2736Y2875D01*
Y2831D02*
Y2856D01*
X2758Y2835*
X2764Y2831*
X2771Y2835*
X2774Y2841*
Y2850*
X2771Y2856*
X2755Y2797D02*
Y2791D01*
X2758Y2785*
X2764Y2781*
X2771Y2785*
X2774Y2791*
Y2797*
X2771Y2803*
X2764Y2806*
X2758Y2803*
X2755Y2797*
X2752Y2803*
X2746Y2806*
X2739Y2803*
X2736Y2797*
Y2791*
X2739Y2785*
X2746Y2781*
X2752Y2785*
X2755Y2791*
X2727Y3808D02*
Y3780D01*
X2730Y3773*
X2736Y3770*
X2749*
X2755Y3773*
X2758Y3780*
Y3808*
X2777Y3780D02*
X2780Y3786D01*
X2786Y3789*
X2793*
X2799Y3786*
X2802Y3780*
X2799Y3773*
X2793Y3770*
X2786*
X2780Y3773*
X2777Y3780*
Y3789*
X2780Y3798*
X2786Y3805*
X2793Y3808*
X2778Y2355D02*
X2740D01*
Y2324*
Y2305D02*
X2778D01*
Y2274*
X2759Y2280D02*
Y2305D01*
X2740D02*
Y2274D01*
Y2255D02*
X2778D01*
Y2237*
X2775Y2230*
X2771Y2227*
X2765Y2224*
X2753*
X2746Y2227*
X2743Y2230*
X2740Y2237*
Y2255*
Y2180D02*
Y2205D01*
X2762Y2183*
X2768Y2180*
X2775Y2183*
X2778Y2190*
Y2199*
X2775Y2205*
X2751Y568D02*
X3062D01*
X2751Y765D02*
X3065D01*
X2751D02*
G75*
G03Y568J-98D01*
G01*
G75*
G02Y765J98*
G01*
X2789Y2393D02*
Y2553D01*
X2719*
Y2393*
X2730Y2374*
X2780*
X2789Y2393*
X2817Y479D02*
X2849Y516D01*
X2817D02*
X2849Y479D01*
X2883D02*
Y516D01*
X2867D02*
X2899D01*
X2917Y479D02*
X2933Y516D01*
X2949Y479*
X2924Y494D02*
X2942D01*
X2967Y516D02*
Y479D01*
X2999*
X3024D02*
X3036D01*
X3030D02*
Y516D01*
X3024Y510*
X2850Y871D02*
X2690D01*
Y801*
X2850*
Y871*
X2869Y2774D02*
Y2614D01*
X2939*
Y2774*
X2869*
X2919Y2355D02*
X2882D01*
Y2324*
Y2305D02*
X2919D01*
Y2274*
X2901Y2280D02*
Y2305D01*
X2882D02*
Y2274D01*
Y2255D02*
X2919D01*
Y2237*
X2916Y2230*
X2913Y2227*
X2907Y2224*
X2894*
X2888Y2227*
X2885Y2230*
X2882Y2237*
Y2255*
Y2199D02*
Y2187D01*
Y2193D02*
X2919D01*
X2913Y2199*
X2886Y2906D02*
X2923D01*
Y2885*
X2920Y2878*
X2914Y2875*
X2908Y2878*
X2905Y2885*
Y2906*
Y2885D02*
X2886Y2875D01*
Y2831D02*
Y2856D01*
X2908Y2835*
X2914Y2831*
X2920Y2835*
X2923Y2841*
Y2850*
X2920Y2856*
X2886Y2806D02*
X2923Y2781D01*
Y2806*
X2892Y2939D02*
Y2977D01*
X2914*
X2920Y2974*
X2924Y2968*
X2920Y2961*
X2914Y2958*
X2892*
X2914D02*
X2924Y2939D01*
X2942D02*
X2967Y2977D01*
X2942*
X2939Y2393D02*
Y2553D01*
X2869*
Y2393*
X2880Y2374*
X2930*
X2939Y2393*
X3052Y1679D02*
X3212D01*
Y1749*
X3052*
Y1679*
X3065Y765D02*
G75*
G02Y568J-98D01*
G01*
G75*
G03Y765J98*
G01*
X3089Y2939D02*
Y2977D01*
X3111*
X3117Y2974*
X3120Y2968*
X3117Y2961*
X3111Y2958*
X3089*
X3111D02*
X3120Y2939D01*
X3148Y2958D02*
X3155D01*
X3161Y2961*
X3164Y2968*
X3161Y2974*
X3155Y2977*
X3148*
X3142Y2974*
X3139Y2968*
X3142Y2961*
X3148Y2958*
X3142Y2955*
X3139Y2949*
X3142Y2943*
X3148Y2939*
X3155*
X3161Y2943*
X3164Y2949*
X3161Y2955*
X3155Y2958*
X3188Y2613D02*
Y2650D01*
X3206*
X3213Y2647*
X3216Y2644*
X3219Y2638*
Y2625*
X3216Y2619*
X3213Y2616*
X3206Y2613*
X3188*
X3263D02*
X3238D01*
X3259Y2635*
X3263Y2641*
X3259Y2647*
X3253Y2650*
X3244*
X3238Y2647*
X3254Y1702D02*
X3251Y1699D01*
X3245Y1695*
X3235*
X3229Y1699*
X3226Y1702*
X3223Y1708*
Y1720*
X3226Y1727*
X3229Y1730*
X3235Y1733*
X3245*
X3251Y1730*
X3254Y1727*
X3279Y1695D02*
X3292D01*
X3285D02*
Y1733D01*
X3279Y1727*
X3323Y1705D02*
X3326Y1711D01*
X3332Y1714*
X3339*
X3345Y1711*
X3348Y1705*
X3345Y1699*
X3339Y1695*
X3332*
X3326Y1699*
X3323Y1705*
Y1714*
X3326Y1724*
X3332Y1730*
X3339Y1733*
X3259Y580D02*
X3256Y577D01*
X3250Y574*
X3241*
X3234Y577*
X3231Y580*
X3228Y587*
Y599*
X3231Y605*
X3234Y608*
X3241Y612*
X3250*
X3256Y608*
X3259Y605*
X3303Y574D02*
X3278D01*
X3300Y596*
X3303Y602*
X3300Y608*
X3294Y612*
X3284*
X3278Y608*
X3334Y574D02*
X3347D01*
X3341D02*
Y612D01*
X3334Y605*
X3243Y790D02*
Y630D01*
X3313*
Y790*
X3243*
X3286Y2939D02*
Y2977D01*
X3308*
X3314Y2974*
X3317Y2968*
X3314Y2961*
X3308Y2958*
X3286*
X3308D02*
X3317Y2939D01*
X3345D02*
X3352Y2943D01*
X3358Y2949*
X3361Y2958*
Y2968*
X3358Y2974*
X3352Y2977*
X3345*
X3339Y2974*
X3336Y2968*
X3339Y2961*
X3345Y2958*
X3352*
X3358Y2961*
X3361Y2968*
X3333Y2152D02*
Y2190D01*
X3355*
X3361Y2186*
X3364Y2180*
X3361Y2174*
X3355Y2171*
X3333*
X3355D02*
X3364Y2152D01*
X3408D02*
X3383D01*
X3405Y2174*
X3408Y2180*
X3405Y2186*
X3399Y2190*
X3389*
X3383Y2186*
X3433Y2155D02*
X3439Y2152D01*
X3449*
X3455Y2155*
X3458Y2161*
Y2165*
X3455Y2171*
X3449Y2174*
X3433*
Y2190*
X3458*
X3333Y2473D02*
Y2445D01*
X3336Y2439*
X3343Y2436*
X3355*
X3361Y2439*
X3364Y2445*
Y2473*
X3383Y2439D02*
X3389Y2436D01*
X3399*
X3405Y2439*
X3408Y2445*
Y2448*
X3405Y2454*
X3399Y2457*
X3383*
Y2473*
X3408*
X3353Y1408D02*
Y1445D01*
X3375*
X3381Y1442*
X3384Y1436*
X3381Y1430*
X3375Y1427*
X3353*
X3375D02*
X3384Y1408D01*
X3406Y1411D02*
X3412Y1408D01*
X3419*
X3425Y1411*
X3428Y1417*
X3425Y1424*
X3419Y1427*
X3412*
X3419D02*
X3425Y1430D01*
X3428Y1436*
X3425Y1442*
X3419Y1445*
X3412*
X3406Y1442*
X3456Y1411D02*
X3462Y1408D01*
X3469*
X3475Y1411*
X3478Y1417*
Y1436*
X3475Y1442*
X3469Y1445*
X3462*
X3456Y1442*
X3453Y1436*
Y1417*
X3456Y1411*
X3475Y1442*
X3404Y2232D02*
Y2392D01*
X3334*
Y2232*
X3404*
X3419Y1460D02*
Y1620D01*
X3349*
Y1460*
X3419*
X3483Y2939D02*
Y2977D01*
X3505*
X3511Y2974*
X3514Y2968*
X3511Y2961*
X3505Y2958*
X3483*
X3505D02*
X3514Y2939D01*
X3539D02*
X3552D01*
X3545D02*
Y2977D01*
X3539Y2971*
X3586Y2943D02*
X3592Y2939D01*
X3598*
X3605Y2943*
X3608Y2949*
Y2968*
X3605Y2974*
X3598Y2977*
X3592*
X3586Y2974*
X3583Y2968*
Y2949*
X3586Y2943*
X3605Y2974*
X3493Y2548D02*
G75*
G02X3368Y2423I-125D01*
G01*
G75*
G02X3243Y2548J125*
G01*
Y2563*
G75*
G02X3268Y2623I85J0*
G01*
X3468*
G75*
G02X3493Y2563I-60J-60*
G01*
Y2548*
X3660Y2439D02*
Y2477D01*
X3691*
X3685Y2458D02*
X3660D01*
X3710Y2439D02*
X3726Y2477D01*
X3741Y2439*
X3716Y2455D02*
X3735D01*
X3760Y2439D02*
Y2477D01*
X3791Y2439*
Y2477*
X3816Y2439D02*
X3829D01*
X3822D02*
Y2477D01*
X3816Y2471*
X3676Y2990D02*
Y3028D01*
X3697*
X3704Y3024*
X3707Y3018*
X3704Y3012*
X3697Y3009*
X3676*
X3726Y3028D02*
Y2990D01*
X3757*
X3782D02*
X3794D01*
X3788D02*
Y3028D01*
X3782Y3021*
D02*
D11*
X206Y808D02*
X236D01*
X221Y793D02*
Y823D01*
X597Y2579D02*
Y2608D01*
X612Y2593D02*
X582D01*
X1462Y1368D02*
Y1353D01*
X1452*
Y1368*
X1462*
X1856Y694D02*
X1851D01*
Y736*
X1856*
Y694*
X1902Y707D02*
X1899Y701D01*
X1895Y696*
X1891Y694*
X1884Y693*
X1880*
X1876Y695*
X1872Y697*
X1869Y699*
X1866Y706*
X1865Y715*
X1866Y725*
X1870Y732*
X1877Y736*
X1884Y737*
X1890Y736*
X1895Y734*
X1899Y730*
X1901Y725*
X1895Y724*
X1894Y728*
X1891Y730*
X1888Y732*
X1884Y732*
X1878Y731*
X1874Y728*
X1871Y722*
X1870Y715*
X1871Y707*
X1874Y702*
X1878Y699*
X1884Y698*
X1888Y699*
X1891Y700*
X1895Y704*
X1896Y709*
X1902Y707*
X1933Y724D02*
X1932Y728D01*
X1931Y730*
X1928Y732*
X1924Y732*
X1920Y732*
X1917Y731*
X1915Y729*
X1914Y726*
X1915Y723*
X1916Y721*
X1919Y720*
X1924Y719*
X1928Y718*
X1932Y717*
X1938Y713*
X1940Y710*
X1940Y706*
X1940Y701*
X1936Y697*
X1931Y694*
X1925Y693*
X1917Y694*
X1912Y697*
X1909Y702*
X1907Y707*
X1913Y708*
X1914Y703*
X1917Y700*
X1921Y699*
X1925Y698*
X1928Y699*
X1932Y699*
X1934Y702*
X1935Y705*
X1934Y708*
X1932Y710*
X1928Y712*
X1922Y714*
X1916Y715*
X1912Y718*
X1910Y721*
X1909Y725*
X1910Y730*
X1913Y734*
X1917Y736*
X1923Y737*
X1929Y736*
X1934Y734*
X1937Y729*
X1939Y725*
X1933Y724*
X1948Y736D02*
X1964D01*
X1971Y736*
X1976Y734*
X1980Y730*
X1980Y724*
X1980Y719*
X1977Y714*
X1972Y712*
X1965Y711*
X1954*
Y694*
X1948*
Y736*
X1954Y716D02*
X1965D01*
X1969Y717*
X1973Y718*
X1974Y721*
X1975Y724*
X1973Y729*
X1970Y731*
X1968Y732*
X1965*
X1954*
Y716*
X1880Y693D02*
X1885D01*
X1924D02*
X1925D01*
X1851Y694D02*
X1856D01*
X1877D02*
X1891D01*
X1917D02*
X1931D01*
X1948D02*
X1954D01*
X1851Y695D02*
X1856D01*
X1875D02*
X1893D01*
X1916D02*
X1933D01*
X1948D02*
X1954D01*
X1851Y696D02*
X1856D01*
X1874D02*
X1895D01*
X1914D02*
X1934D01*
X1948D02*
X1954D01*
X1851Y697D02*
X1856D01*
X1872D02*
X1896D01*
X1912D02*
X1936D01*
X1948D02*
X1954D01*
X1851Y698D02*
X1856D01*
X1871D02*
X1884D01*
X1884D02*
X1897D01*
X1911D02*
X1925D01*
X1925D02*
X1937D01*
X1948D02*
X1954D01*
X1851Y699D02*
X1856D01*
X1870D02*
X1878D01*
X1889D02*
X1898D01*
X1911D02*
X1920D01*
X1929D02*
X1938D01*
X1948D02*
X1954D01*
X1851Y700D02*
X1856D01*
X1869D02*
X1877D01*
X1890D02*
X1898D01*
X1910D02*
X1918D01*
X1933D02*
X1938D01*
X1948D02*
X1954D01*
X1851Y701D02*
X1856D01*
X1869D02*
X1876D01*
X1892D02*
X1899D01*
X1910D02*
X1916D01*
X1933D02*
X1939D01*
X1948D02*
X1954D01*
X1851Y702D02*
X1856D01*
X1868D02*
X1874D01*
X1893D02*
X1900D01*
X1909D02*
X1915D01*
X1934D02*
X1940D01*
X1948D02*
X1954D01*
X1851Y703D02*
X1856D01*
X1868D02*
X1874D01*
X1893D02*
X1900D01*
X1909D02*
X1914D01*
X1934D02*
X1940D01*
X1948D02*
X1954D01*
X1851Y703D02*
X1856D01*
X1868D02*
X1873D01*
X1894D02*
X1900D01*
X1908D02*
X1914D01*
X1934D02*
X1940D01*
X1948D02*
X1954D01*
X1851Y704D02*
X1856D01*
X1867D02*
X1873D01*
X1895D02*
X1901D01*
X1908D02*
X1913D01*
X1935D02*
X1940D01*
X1948D02*
X1954D01*
X1851Y705D02*
X1856D01*
X1867D02*
X1872D01*
X1895D02*
X1901D01*
X1908D02*
X1913D01*
X1935D02*
X1940D01*
X1948D02*
X1954D01*
X1851Y706D02*
X1856D01*
X1866D02*
X1872D01*
X1895D02*
X1901D01*
X1908D02*
X1913D01*
X1934D02*
X1940D01*
X1948D02*
X1954D01*
X1851Y707D02*
X1856D01*
X1866D02*
X1871D01*
X1896D02*
X1902D01*
X1907D02*
X1913D01*
X1934D02*
X1940D01*
X1948D02*
X1954D01*
X1851Y708D02*
X1856D01*
X1866D02*
X1871D01*
X1896D02*
X1899D01*
X1934D02*
X1940D01*
X1948D02*
X1954D01*
X1851Y709D02*
X1856D01*
X1866D02*
X1871D01*
X1933D02*
X1940D01*
X1948D02*
X1954D01*
X1851Y710D02*
X1856D01*
X1866D02*
X1871D01*
X1932D02*
X1939D01*
X1948D02*
X1954D01*
X1851Y711D02*
X1856D01*
X1865D02*
X1871D01*
X1930D02*
X1939D01*
X1948D02*
X1954D01*
X1851Y712D02*
X1856D01*
X1865D02*
X1871D01*
X1928D02*
X1938D01*
X1948D02*
X1971D01*
X1851Y713D02*
X1856D01*
X1865D02*
X1870D01*
X1925D02*
X1938D01*
X1948D02*
X1973D01*
X1851Y714D02*
X1856D01*
X1865D02*
X1870D01*
X1921D02*
X1937D01*
X1948D02*
X1975D01*
X1851Y715D02*
X1856D01*
X1865D02*
X1870D01*
X1918D02*
X1935D01*
X1948D02*
X1977D01*
X1851Y716D02*
X1856D01*
X1865D02*
X1870D01*
X1915D02*
X1934D01*
X1948D02*
X1977D01*
X1851Y717D02*
X1856D01*
X1865D02*
X1870D01*
X1914D02*
X1933D01*
X1948D02*
X1954D01*
X1968D02*
X1978D01*
X1851Y717D02*
X1856D01*
X1865D02*
X1870D01*
X1913D02*
X1928D01*
X1948D02*
X1954D01*
X1973D02*
X1979D01*
X1851Y718D02*
X1856D01*
X1865D02*
X1871D01*
X1912D02*
X1926D01*
X1948D02*
X1954D01*
X1973D02*
X1979D01*
X1851Y719D02*
X1856D01*
X1865D02*
X1871D01*
X1911D02*
X1922D01*
X1948D02*
X1954D01*
X1974D02*
X1980D01*
X1851Y720D02*
X1856D01*
X1866D02*
X1871D01*
X1910D02*
X1918D01*
X1948D02*
X1954D01*
X1974D02*
X1980D01*
X1851Y721D02*
X1856D01*
X1866D02*
X1871D01*
X1910D02*
X1916D01*
X1948D02*
X1954D01*
X1974D02*
X1980D01*
X1851Y722D02*
X1856D01*
X1866D02*
X1871D01*
X1909D02*
X1916D01*
X1948D02*
X1954D01*
X1975D02*
X1980D01*
X1851Y723D02*
X1856D01*
X1866D02*
X1872D01*
X1909D02*
X1915D01*
X1948D02*
X1954D01*
X1975D02*
X1980D01*
X1851Y724D02*
X1856D01*
X1866D02*
X1872D01*
X1895D02*
X1896D01*
X1909D02*
X1915D01*
X1933D02*
X1935D01*
X1948D02*
X1954D01*
X1975D02*
X1980D01*
X1851Y725D02*
X1856D01*
X1866D02*
X1873D01*
X1895D02*
X1900D01*
X1909D02*
X1915D01*
X1933D02*
X1939D01*
X1948D02*
X1954D01*
X1975D02*
X1980D01*
X1851Y726D02*
X1856D01*
X1867D02*
X1873D01*
X1895D02*
X1901D01*
X1909D02*
X1914D01*
X1933D02*
X1938D01*
X1948D02*
X1954D01*
X1974D02*
X1980D01*
X1851Y727D02*
X1856D01*
X1868D02*
X1874D01*
X1894D02*
X1900D01*
X1909D02*
X1915D01*
X1933D02*
X1938D01*
X1948D02*
X1954D01*
X1974D02*
X1980D01*
X1851Y728D02*
X1856D01*
X1868D02*
X1874D01*
X1894D02*
X1900D01*
X1909D02*
X1915D01*
X1932D02*
X1938D01*
X1948D02*
X1954D01*
X1974D02*
X1980D01*
X1851Y729D02*
X1856D01*
X1869D02*
X1875D01*
X1893D02*
X1899D01*
X1909D02*
X1915D01*
X1932D02*
X1937D01*
X1948D02*
X1954D01*
X1973D02*
X1980D01*
X1851Y730D02*
X1856D01*
X1869D02*
X1877D01*
X1892D02*
X1899D01*
X1910D02*
X1916D01*
X1931D02*
X1937D01*
X1948D02*
X1954D01*
X1972D02*
X1980D01*
X1851Y731D02*
X1856D01*
X1870D02*
X1878D01*
X1890D02*
X1898D01*
X1910D02*
X1916D01*
X1930D02*
X1936D01*
X1948D02*
X1954D01*
X1971D02*
X1979D01*
X1851Y732D02*
X1856D01*
X1870D02*
X1881D01*
X1889D02*
X1897D01*
X1911D02*
X1919D01*
X1928D02*
X1936D01*
X1948D02*
X1954D01*
X1968D02*
X1978D01*
X1851Y732D02*
X1856D01*
X1872D02*
X1896D01*
X1911D02*
X1935D01*
X1948D02*
X1977D01*
X1851Y733D02*
X1856D01*
X1873D02*
X1895D01*
X1912D02*
X1934D01*
X1948D02*
X1976D01*
X1851Y734D02*
X1856D01*
X1875D02*
X1894D01*
X1913D02*
X1933D01*
X1948D02*
X1975D01*
X1851Y735D02*
X1856D01*
X1876D02*
X1892D01*
X1915D02*
X1931D01*
X1948D02*
X1972D01*
X1851Y736D02*
X1856D01*
X1880D02*
X1890D01*
X1917D02*
X1930D01*
X1948D02*
X1965D01*
X1884Y737D02*
X1885D01*
X1923D02*
X1923D01*
X1928Y1689D02*
Y1718D01*
X1943Y1704D02*
X1913D01*
X1547Y3879D02*
X1525D01*
Y3961*
X1437*
Y3879*
X1415*
Y4049*
X1437*
Y3980*
X1525*
Y4049*
X1547*
Y3879*
X1711D02*
X1585D01*
Y4049*
X1708*
Y4030*
X1607*
Y3977*
X1702*
Y3958*
X1607*
Y3898*
X1711*
Y3879*
X1881D02*
X1859D01*
X1837Y3929*
X1765*
X1746Y3879*
X1724*
X1790Y4049*
X1812*
X1881Y3879*
X1831Y3948D02*
X1821Y3973D01*
X1812Y3992*
X1809Y4005*
X1806Y4011*
X1803Y4030*
X1799*
X1793Y3999*
X1774Y3948*
X1831*
X2020Y4030D02*
X1963D01*
Y3879*
X1941*
Y4030*
X1884*
Y4049*
X2020*
Y4030*
X2143Y3999D02*
X2140Y4014D01*
X2133Y4024*
X2121Y4030*
X2105Y4033*
X2089Y4030*
X2077Y4027*
X2070Y4018*
X2067Y4008*
X2070Y3995*
X2073Y3989*
X2086Y3983*
X2105Y3980*
X2124Y3973*
X2140Y3970*
X2162Y3955*
X2168Y3942*
X2171Y3926*
X2168Y3907*
X2155Y3892*
X2133Y3879*
X2108Y3876*
X2080Y3879*
X2058Y3892*
X2045Y3910*
X2039Y3932*
X2061Y3936*
X2064Y3917*
X2077Y3904*
X2092Y3898*
X2108Y3895*
X2124Y3898*
X2140Y3901*
X2146Y3910*
X2149Y3923*
X2146Y3936*
X2136Y3945*
X2121Y3951*
X2099Y3958*
X2073Y3964*
X2058Y3977*
X2048Y3989*
X2045Y4005*
X2048Y4024*
X2061Y4040*
X2080Y4049*
X2102Y4052*
X2127Y4049*
X2146Y4040*
X2158Y4021*
X2165Y4002*
X2143Y3999*
X2228Y3879D02*
X2206D01*
Y4049*
X2228*
Y3879*
X2401D02*
X2379D01*
X2291Y4011*
Y3879*
X2269*
Y4049*
X2294*
X2379Y3917*
Y4049*
X2401*
Y3879*
X2577D02*
X2552D01*
X2489Y3967*
X2461Y3939*
Y3879*
X2439*
Y4049*
X2461*
Y3967*
X2546Y4049*
X2574*
X2505Y3980*
X2577Y3879*
X2107Y3876D02*
X2109D01*
X2098Y3877D02*
X2117D01*
X2090Y3878D02*
X2124D01*
X2082Y3879D02*
X2132D01*
X1415Y3880D02*
X1437D01*
X1525D02*
X1547D01*
X1585D02*
X1711D01*
X1724D02*
X1746D01*
X1859D02*
X1881D01*
X1941D02*
X1963D01*
X2078D02*
X2134D01*
X2206D02*
X2228D01*
X2269D02*
X2291D01*
X2378D02*
X2401D01*
X2439D02*
X2461D01*
X2552D02*
X2577D01*
X1415Y3881D02*
X1437D01*
X1525D02*
X1547D01*
X1585D02*
X1711D01*
X1724D02*
X1746D01*
X1858D02*
X1881D01*
X1941D02*
X1963D01*
X2077D02*
X2136D01*
X2206D02*
X2228D01*
X2269D02*
X2291D01*
X2378D02*
X2401D01*
X2439D02*
X2461D01*
X2551D02*
X2576D01*
X1415Y3882D02*
X1437D01*
X1525D02*
X1547D01*
X1585D02*
X1711D01*
X1725D02*
X1747D01*
X1858D02*
X1880D01*
X1941D02*
X1963D01*
X2075D02*
X2138D01*
X2206D02*
X2228D01*
X2269D02*
X2291D01*
X2377D02*
X2401D01*
X2439D02*
X2461D01*
X2550D02*
X2575D01*
X1415Y3882D02*
X1437D01*
X1525D02*
X1547D01*
X1585D02*
X1711D01*
X1725D02*
X1747D01*
X1858D02*
X1880D01*
X1941D02*
X1963D01*
X2073D02*
X2139D01*
X2206D02*
X2228D01*
X2269D02*
X2291D01*
X2377D02*
X2401D01*
X2439D02*
X2461D01*
X2550D02*
X2575D01*
X1415Y3883D02*
X1437D01*
X1525D02*
X1547D01*
X1585D02*
X1711D01*
X1725D02*
X1747D01*
X1857D02*
X1879D01*
X1941D02*
X1963D01*
X2072D02*
X2141D01*
X2206D02*
X2228D01*
X2269D02*
X2291D01*
X2376D02*
X2401D01*
X2439D02*
X2461D01*
X2549D02*
X2574D01*
X1415Y3884D02*
X1437D01*
X1525D02*
X1547D01*
X1585D02*
X1711D01*
X1726D02*
X1748D01*
X1857D02*
X1879D01*
X1941D02*
X1963D01*
X2070D02*
X2143D01*
X2206D02*
X2228D01*
X2269D02*
X2291D01*
X2375D02*
X2401D01*
X2439D02*
X2461D01*
X2548D02*
X2573D01*
X1415Y3885D02*
X1437D01*
X1525D02*
X1547D01*
X1585D02*
X1711D01*
X1726D02*
X1748D01*
X1856D02*
X1879D01*
X1941D02*
X1963D01*
X2069D02*
X2144D01*
X2206D02*
X2228D01*
X2269D02*
X2291D01*
X2375D02*
X2401D01*
X2439D02*
X2461D01*
X2548D02*
X2573D01*
X1415Y3886D02*
X1437D01*
X1525D02*
X1547D01*
X1585D02*
X1711D01*
X1727D02*
X1749D01*
X1856D02*
X1878D01*
X1941D02*
X1963D01*
X2067D02*
X2146D01*
X2206D02*
X2228D01*
X2269D02*
X2291D01*
X2374D02*
X2401D01*
X2439D02*
X2461D01*
X2547D02*
X2572D01*
X1415Y3887D02*
X1437D01*
X1525D02*
X1547D01*
X1585D02*
X1711D01*
X1727D02*
X1749D01*
X1856D02*
X1878D01*
X1941D02*
X1963D01*
X2065D02*
X2148D01*
X2206D02*
X2228D01*
X2269D02*
X2291D01*
X2373D02*
X2401D01*
X2439D02*
X2461D01*
X2546D02*
X2571D01*
X1415Y3888D02*
X1437D01*
X1525D02*
X1547D01*
X1585D02*
X1711D01*
X1727D02*
X1749D01*
X1855D02*
X1878D01*
X1941D02*
X1963D01*
X2064D02*
X2149D01*
X2206D02*
X2228D01*
X2269D02*
X2291D01*
X2373D02*
X2401D01*
X2439D02*
X2461D01*
X2546D02*
X2571D01*
X1415Y3889D02*
X1437D01*
X1525D02*
X1547D01*
X1585D02*
X1711D01*
X1728D02*
X1750D01*
X1855D02*
X1877D01*
X1941D02*
X1963D01*
X2062D02*
X2151D01*
X2206D02*
X2228D01*
X2269D02*
X2291D01*
X2372D02*
X2401D01*
X2439D02*
X2461D01*
X2545D02*
X2570D01*
X1415Y3890D02*
X1437D01*
X1525D02*
X1547D01*
X1585D02*
X1711D01*
X1728D02*
X1750D01*
X1854D02*
X1877D01*
X1941D02*
X1963D01*
X2060D02*
X2153D01*
X2206D02*
X2228D01*
X2269D02*
X2291D01*
X2372D02*
X2401D01*
X2439D02*
X2461D01*
X2544D02*
X2569D01*
X1415Y3891D02*
X1437D01*
X1525D02*
X1547D01*
X1585D02*
X1711D01*
X1728D02*
X1750D01*
X1854D02*
X1876D01*
X1941D02*
X1963D01*
X2059D02*
X2154D01*
X2206D02*
X2228D01*
X2269D02*
X2291D01*
X2371D02*
X2401D01*
X2439D02*
X2461D01*
X2544D02*
X2569D01*
X1415Y3892D02*
X1437D01*
X1525D02*
X1547D01*
X1585D02*
X1711D01*
X1729D02*
X1751D01*
X1854D02*
X1876D01*
X1941D02*
X1963D01*
X2057D02*
X2156D01*
X2206D02*
X2228D01*
X2269D02*
X2291D01*
X2370D02*
X2401D01*
X2439D02*
X2461D01*
X2543D02*
X2568D01*
X1415Y3893D02*
X1437D01*
X1525D02*
X1547D01*
X1585D02*
X1711D01*
X1729D02*
X1751D01*
X1853D02*
X1876D01*
X1941D02*
X1963D01*
X2057D02*
X2156D01*
X2206D02*
X2228D01*
X2269D02*
X2291D01*
X2370D02*
X2401D01*
X2439D02*
X2461D01*
X2542D02*
X2567D01*
X1415Y3894D02*
X1437D01*
X1525D02*
X1547D01*
X1585D02*
X1711D01*
X1730D02*
X1751D01*
X1853D02*
X1875D01*
X1941D02*
X1963D01*
X2056D02*
X2157D01*
X2206D02*
X2228D01*
X2269D02*
X2291D01*
X2369D02*
X2401D01*
X2439D02*
X2461D01*
X2542D02*
X2567D01*
X1415Y3895D02*
X1437D01*
X1525D02*
X1547D01*
X1585D02*
X1711D01*
X1730D02*
X1752D01*
X1852D02*
X1875D01*
X1941D02*
X1963D01*
X2056D02*
X2158D01*
X2206D02*
X2228D01*
X2269D02*
X2291D01*
X2368D02*
X2401D01*
X2439D02*
X2461D01*
X2541D02*
X2566D01*
X1415Y3896D02*
X1437D01*
X1525D02*
X1547D01*
X1585D02*
X1711D01*
X1730D02*
X1752D01*
X1852D02*
X1874D01*
X1941D02*
X1963D01*
X2055D02*
X2103D01*
X2113D02*
X2159D01*
X2206D02*
X2228D01*
X2269D02*
X2291D01*
X2368D02*
X2401D01*
X2439D02*
X2461D01*
X2540D02*
X2565D01*
X1415Y3897D02*
X1437D01*
X1525D02*
X1547D01*
X1585D02*
X1711D01*
X1731D02*
X1752D01*
X1851D02*
X1874D01*
X1941D02*
X1963D01*
X2054D02*
X2099D01*
X2117D02*
X2159D01*
X2206D02*
X2228D01*
X2269D02*
X2291D01*
X2367D02*
X2401D01*
X2439D02*
X2461D01*
X2540D02*
X2565D01*
X1415Y3897D02*
X1437D01*
X1525D02*
X1547D01*
X1585D02*
X1711D01*
X1731D02*
X1753D01*
X1851D02*
X1874D01*
X1941D02*
X1963D01*
X2054D02*
X2094D01*
X2122D02*
X2160D01*
X2206D02*
X2228D01*
X2269D02*
X2291D01*
X2367D02*
X2401D01*
X2439D02*
X2461D01*
X2539D02*
X2564D01*
X1415Y3898D02*
X1437D01*
X1525D02*
X1547D01*
X1585D02*
X1607D01*
X1731D02*
X1753D01*
X1851D02*
X1873D01*
X1941D02*
X1963D01*
X2053D02*
X2091D01*
X2127D02*
X2161D01*
X2206D02*
X2228D01*
X2269D02*
X2291D01*
X2366D02*
X2401D01*
X2439D02*
X2461D01*
X2538D02*
X2563D01*
X1415Y3899D02*
X1437D01*
X1525D02*
X1547D01*
X1585D02*
X1607D01*
X1732D02*
X1753D01*
X1850D02*
X1873D01*
X1941D02*
X1963D01*
X2052D02*
X2089D01*
X2131D02*
X2162D01*
X2206D02*
X2228D01*
X2269D02*
X2291D01*
X2365D02*
X2401D01*
X2439D02*
X2461D01*
X2538D02*
X2563D01*
X1415Y3900D02*
X1437D01*
X1525D02*
X1547D01*
X1585D02*
X1607D01*
X1732D02*
X1754D01*
X1850D02*
X1873D01*
X1941D02*
X1963D01*
X2052D02*
X2086D01*
X2136D02*
X2162D01*
X2206D02*
X2228D01*
X2269D02*
X2291D01*
X2365D02*
X2401D01*
X2439D02*
X2461D01*
X2537D02*
X2562D01*
X1415Y3901D02*
X1437D01*
X1525D02*
X1547D01*
X1585D02*
X1607D01*
X1732D02*
X1754D01*
X1849D02*
X1872D01*
X1941D02*
X1963D01*
X2051D02*
X2084D01*
X2140D02*
X2163D01*
X2206D02*
X2228D01*
X2269D02*
X2291D01*
X2364D02*
X2401D01*
X2439D02*
X2461D01*
X2536D02*
X2561D01*
X1415Y3902D02*
X1437D01*
X1525D02*
X1547D01*
X1585D02*
X1607D01*
X1733D02*
X1755D01*
X1849D02*
X1872D01*
X1941D02*
X1963D01*
X2051D02*
X2081D01*
X2140D02*
X2164D01*
X2206D02*
X2228D01*
X2269D02*
X2291D01*
X2363D02*
X2401D01*
X2439D02*
X2461D01*
X2536D02*
X2561D01*
X1415Y3903D02*
X1437D01*
X1525D02*
X1547D01*
X1585D02*
X1607D01*
X1733D02*
X1755D01*
X1849D02*
X1871D01*
X1941D02*
X1963D01*
X2050D02*
X2079D01*
X2141D02*
X2164D01*
X2206D02*
X2228D01*
X2269D02*
X2291D01*
X2363D02*
X2401D01*
X2439D02*
X2461D01*
X2535D02*
X2560D01*
X1415Y3904D02*
X1437D01*
X1525D02*
X1547D01*
X1585D02*
X1607D01*
X1734D02*
X1755D01*
X1848D02*
X1871D01*
X1941D02*
X1963D01*
X2049D02*
X2077D01*
X2142D02*
X2165D01*
X2206D02*
X2228D01*
X2269D02*
X2291D01*
X2362D02*
X2401D01*
X2439D02*
X2461D01*
X2534D02*
X2559D01*
X1415Y3905D02*
X1437D01*
X1525D02*
X1547D01*
X1585D02*
X1607D01*
X1734D02*
X1756D01*
X1848D02*
X1871D01*
X1941D02*
X1963D01*
X2049D02*
X2076D01*
X2142D02*
X2166D01*
X2206D02*
X2228D01*
X2269D02*
X2291D01*
X2362D02*
X2401D01*
X2439D02*
X2461D01*
X2534D02*
X2559D01*
X1415Y3906D02*
X1437D01*
X1525D02*
X1547D01*
X1585D02*
X1607D01*
X1734D02*
X1756D01*
X1847D02*
X1870D01*
X1941D02*
X1963D01*
X2048D02*
X2075D01*
X2143D02*
X2167D01*
X2206D02*
X2228D01*
X2269D02*
X2291D01*
X2361D02*
X2401D01*
X2439D02*
X2461D01*
X2533D02*
X2558D01*
X1415Y3907D02*
X1437D01*
X1525D02*
X1547D01*
X1585D02*
X1607D01*
X1735D02*
X1756D01*
X1847D02*
X1870D01*
X1941D02*
X1963D01*
X2047D02*
X2074D01*
X2143D02*
X2167D01*
X2206D02*
X2228D01*
X2269D02*
X2291D01*
X2360D02*
X2401D01*
X2439D02*
X2461D01*
X2532D02*
X2557D01*
X1415Y3908D02*
X1437D01*
X1525D02*
X1547D01*
X1585D02*
X1607D01*
X1735D02*
X1757D01*
X1847D02*
X1869D01*
X1941D02*
X1963D01*
X2047D02*
X2073D01*
X2144D02*
X2168D01*
X2206D02*
X2228D01*
X2269D02*
X2291D01*
X2360D02*
X2401D01*
X2439D02*
X2461D01*
X2532D02*
X2557D01*
X1415Y3909D02*
X1437D01*
X1525D02*
X1547D01*
X1585D02*
X1607D01*
X1735D02*
X1757D01*
X1846D02*
X1869D01*
X1941D02*
X1963D01*
X2046D02*
X2072D01*
X2145D02*
X2168D01*
X2206D02*
X2228D01*
X2269D02*
X2291D01*
X2359D02*
X2401D01*
X2439D02*
X2461D01*
X2531D02*
X2556D01*
X1415Y3910D02*
X1437D01*
X1525D02*
X1547D01*
X1585D02*
X1607D01*
X1736D02*
X1757D01*
X1846D02*
X1869D01*
X1941D02*
X1963D01*
X2046D02*
X2071D01*
X2145D02*
X2168D01*
X2206D02*
X2228D01*
X2269D02*
X2291D01*
X2358D02*
X2401D01*
X2439D02*
X2461D01*
X2530D02*
X2555D01*
X1415Y3911D02*
X1437D01*
X1525D02*
X1547D01*
X1585D02*
X1607D01*
X1736D02*
X1758D01*
X1845D02*
X1868D01*
X1941D02*
X1963D01*
X2045D02*
X2070D01*
X2146D02*
X2168D01*
X2206D02*
X2228D01*
X2269D02*
X2291D01*
X2358D02*
X2401D01*
X2439D02*
X2461D01*
X2530D02*
X2555D01*
X1415Y3912D02*
X1437D01*
X1525D02*
X1547D01*
X1585D02*
X1607D01*
X1736D02*
X1758D01*
X1845D02*
X1868D01*
X1941D02*
X1963D01*
X2045D02*
X2069D01*
X2146D02*
X2169D01*
X2206D02*
X2228D01*
X2269D02*
X2291D01*
X2357D02*
X2401D01*
X2439D02*
X2461D01*
X2529D02*
X2554D01*
X1415Y3912D02*
X1437D01*
X1525D02*
X1547D01*
X1585D02*
X1607D01*
X1737D02*
X1758D01*
X1845D02*
X1868D01*
X1941D02*
X1963D01*
X2044D02*
X2068D01*
X2146D02*
X2169D01*
X2206D02*
X2228D01*
X2269D02*
X2291D01*
X2357D02*
X2401D01*
X2439D02*
X2461D01*
X2528D02*
X2553D01*
X1415Y3913D02*
X1437D01*
X1525D02*
X1547D01*
X1585D02*
X1607D01*
X1737D02*
X1759D01*
X1844D02*
X1867D01*
X1941D02*
X1963D01*
X2044D02*
X2067D01*
X2147D02*
X2169D01*
X2206D02*
X2228D01*
X2269D02*
X2291D01*
X2356D02*
X2401D01*
X2439D02*
X2461D01*
X2527D02*
X2553D01*
X1415Y3914D02*
X1437D01*
X1525D02*
X1547D01*
X1585D02*
X1607D01*
X1738D02*
X1759D01*
X1844D02*
X1867D01*
X1941D02*
X1963D01*
X2044D02*
X2066D01*
X2147D02*
X2169D01*
X2206D02*
X2228D01*
X2269D02*
X2291D01*
X2355D02*
X2401D01*
X2439D02*
X2461D01*
X2527D02*
X2552D01*
X1415Y3915D02*
X1437D01*
X1525D02*
X1547D01*
X1585D02*
X1607D01*
X1738D02*
X1759D01*
X1843D02*
X1866D01*
X1941D02*
X1963D01*
X2044D02*
X2065D01*
X2147D02*
X2169D01*
X2206D02*
X2228D01*
X2269D02*
X2291D01*
X2355D02*
X2401D01*
X2439D02*
X2461D01*
X2526D02*
X2551D01*
X1415Y3916D02*
X1437D01*
X1525D02*
X1547D01*
X1585D02*
X1607D01*
X1738D02*
X1760D01*
X1843D02*
X1866D01*
X1941D02*
X1963D01*
X2043D02*
X2064D01*
X2147D02*
X2169D01*
X2206D02*
X2228D01*
X2269D02*
X2291D01*
X2354D02*
X2401D01*
X2439D02*
X2461D01*
X2525D02*
X2551D01*
X1415Y3917D02*
X1437D01*
X1525D02*
X1547D01*
X1585D02*
X1607D01*
X1739D02*
X1760D01*
X1842D02*
X1866D01*
X1941D02*
X1963D01*
X2043D02*
X2064D01*
X2147D02*
X2169D01*
X2206D02*
X2228D01*
X2269D02*
X2291D01*
X2353D02*
X2379D01*
X2379D02*
X2401D01*
X2439D02*
X2461D01*
X2525D02*
X2550D01*
X1415Y3918D02*
X1437D01*
X1525D02*
X1547D01*
X1585D02*
X1607D01*
X1739D02*
X1760D01*
X1842D02*
X1865D01*
X1941D02*
X1963D01*
X2043D02*
X2064D01*
X2148D02*
X2170D01*
X2206D02*
X2228D01*
X2269D02*
X2291D01*
X2353D02*
X2378D01*
X2379D02*
X2401D01*
X2439D02*
X2461D01*
X2524D02*
X2549D01*
X1415Y3919D02*
X1437D01*
X1525D02*
X1547D01*
X1585D02*
X1607D01*
X1739D02*
X1761D01*
X1842D02*
X1865D01*
X1941D02*
X1963D01*
X2043D02*
X2064D01*
X2148D02*
X2170D01*
X2206D02*
X2228D01*
X2269D02*
X2291D01*
X2352D02*
X2377D01*
X2379D02*
X2401D01*
X2439D02*
X2461D01*
X2523D02*
X2548D01*
X1415Y3920D02*
X1437D01*
X1525D02*
X1547D01*
X1585D02*
X1607D01*
X1740D02*
X1761D01*
X1841D02*
X1865D01*
X1941D02*
X1963D01*
X2042D02*
X2063D01*
X2148D02*
X2170D01*
X2206D02*
X2228D01*
X2269D02*
X2291D01*
X2352D02*
X2377D01*
X2379D02*
X2401D01*
X2439D02*
X2461D01*
X2523D02*
X2548D01*
X1415Y3921D02*
X1437D01*
X1525D02*
X1547D01*
X1585D02*
X1607D01*
X1740D02*
X1762D01*
X1841D02*
X1864D01*
X1941D02*
X1963D01*
X2042D02*
X2063D01*
X2148D02*
X2170D01*
X2206D02*
X2228D01*
X2269D02*
X2291D01*
X2351D02*
X2376D01*
X2379D02*
X2401D01*
X2439D02*
X2461D01*
X2522D02*
X2547D01*
X1415Y3922D02*
X1437D01*
X1525D02*
X1547D01*
X1585D02*
X1607D01*
X1740D02*
X1762D01*
X1840D02*
X1864D01*
X1941D02*
X1963D01*
X2042D02*
X2063D01*
X2149D02*
X2170D01*
X2206D02*
X2228D01*
X2269D02*
X2291D01*
X2350D02*
X2376D01*
X2379D02*
X2401D01*
X2439D02*
X2461D01*
X2521D02*
X2546D01*
X1415Y3923D02*
X1437D01*
X1525D02*
X1547D01*
X1585D02*
X1607D01*
X1741D02*
X1762D01*
X1840D02*
X1863D01*
X1941D02*
X1963D01*
X2041D02*
X2063D01*
X2149D02*
X2170D01*
X2206D02*
X2228D01*
X2269D02*
X2291D01*
X2350D02*
X2375D01*
X2379D02*
X2401D01*
X2439D02*
X2461D01*
X2521D02*
X2546D01*
X1415Y3924D02*
X1437D01*
X1525D02*
X1547D01*
X1585D02*
X1607D01*
X1741D02*
X1763D01*
X1840D02*
X1863D01*
X1941D02*
X1963D01*
X2041D02*
X2063D01*
X2149D02*
X2171D01*
X2206D02*
X2228D01*
X2269D02*
X2291D01*
X2349D02*
X2374D01*
X2379D02*
X2401D01*
X2439D02*
X2461D01*
X2520D02*
X2545D01*
X1415Y3925D02*
X1437D01*
X1525D02*
X1547D01*
X1585D02*
X1607D01*
X1742D02*
X1763D01*
X1839D02*
X1863D01*
X1941D02*
X1963D01*
X2041D02*
X2063D01*
X2149D02*
X2171D01*
X2206D02*
X2228D01*
X2269D02*
X2291D01*
X2348D02*
X2374D01*
X2379D02*
X2401D01*
X2439D02*
X2461D01*
X2519D02*
X2544D01*
X1415Y3926D02*
X1437D01*
X1525D02*
X1547D01*
X1585D02*
X1607D01*
X1742D02*
X1763D01*
X1839D02*
X1862D01*
X1941D02*
X1963D01*
X2041D02*
X2062D01*
X2148D02*
X2171D01*
X2206D02*
X2228D01*
X2269D02*
X2291D01*
X2348D02*
X2373D01*
X2379D02*
X2401D01*
X2439D02*
X2461D01*
X2519D02*
X2544D01*
X1415Y3927D02*
X1437D01*
X1525D02*
X1547D01*
X1585D02*
X1607D01*
X1742D02*
X1764D01*
X1838D02*
X1862D01*
X1941D02*
X1963D01*
X2040D02*
X2062D01*
X2148D02*
X2171D01*
X2206D02*
X2228D01*
X2269D02*
X2291D01*
X2347D02*
X2373D01*
X2379D02*
X2401D01*
X2439D02*
X2461D01*
X2518D02*
X2543D01*
X1415Y3927D02*
X1437D01*
X1525D02*
X1547D01*
X1585D02*
X1607D01*
X1743D02*
X1764D01*
X1838D02*
X1861D01*
X1941D02*
X1963D01*
X2040D02*
X2062D01*
X2148D02*
X2171D01*
X2206D02*
X2228D01*
X2269D02*
X2291D01*
X2347D02*
X2372D01*
X2379D02*
X2401D01*
X2439D02*
X2461D01*
X2517D02*
X2542D01*
X1415Y3928D02*
X1437D01*
X1525D02*
X1547D01*
X1585D02*
X1607D01*
X1743D02*
X1764D01*
X1838D02*
X1861D01*
X1941D02*
X1963D01*
X2040D02*
X2062D01*
X2148D02*
X2171D01*
X2206D02*
X2228D01*
X2269D02*
X2291D01*
X2346D02*
X2371D01*
X2379D02*
X2401D01*
X2439D02*
X2461D01*
X2517D02*
X2542D01*
X1415Y3929D02*
X1437D01*
X1525D02*
X1547D01*
X1585D02*
X1607D01*
X1743D02*
X1861D01*
X1941D02*
X1963D01*
X2040D02*
X2062D01*
X2147D02*
X2170D01*
X2206D02*
X2228D01*
X2269D02*
X2291D01*
X2345D02*
X2371D01*
X2379D02*
X2401D01*
X2439D02*
X2461D01*
X2516D02*
X2541D01*
X1415Y3930D02*
X1437D01*
X1525D02*
X1547D01*
X1585D02*
X1607D01*
X1744D02*
X1860D01*
X1941D02*
X1963D01*
X2039D02*
X2062D01*
X2147D02*
X2170D01*
X2206D02*
X2228D01*
X2269D02*
X2291D01*
X2345D02*
X2370D01*
X2379D02*
X2401D01*
X2439D02*
X2461D01*
X2515D02*
X2540D01*
X1415Y3931D02*
X1437D01*
X1525D02*
X1547D01*
X1585D02*
X1607D01*
X1744D02*
X1860D01*
X1941D02*
X1963D01*
X2039D02*
X2062D01*
X2147D02*
X2170D01*
X2206D02*
X2228D01*
X2269D02*
X2291D01*
X2344D02*
X2370D01*
X2379D02*
X2401D01*
X2439D02*
X2461D01*
X2515D02*
X2540D01*
X1415Y3932D02*
X1437D01*
X1525D02*
X1547D01*
X1585D02*
X1607D01*
X1744D02*
X1860D01*
X1941D02*
X1963D01*
X2039D02*
X2061D01*
X2147D02*
X2170D01*
X2206D02*
X2228D01*
X2269D02*
X2291D01*
X2343D02*
X2369D01*
X2379D02*
X2401D01*
X2439D02*
X2461D01*
X2514D02*
X2539D01*
X1415Y3933D02*
X1437D01*
X1525D02*
X1547D01*
X1585D02*
X1607D01*
X1745D02*
X1859D01*
X1941D02*
X1963D01*
X2043D02*
X2061D01*
X2146D02*
X2170D01*
X2206D02*
X2228D01*
X2269D02*
X2291D01*
X2343D02*
X2368D01*
X2379D02*
X2401D01*
X2439D02*
X2461D01*
X2513D02*
X2538D01*
X1415Y3934D02*
X1437D01*
X1525D02*
X1547D01*
X1585D02*
X1607D01*
X1745D02*
X1859D01*
X1941D02*
X1963D01*
X2049D02*
X2061D01*
X2146D02*
X2169D01*
X2206D02*
X2228D01*
X2269D02*
X2291D01*
X2342D02*
X2368D01*
X2379D02*
X2401D01*
X2439D02*
X2461D01*
X2513D02*
X2538D01*
X1415Y3935D02*
X1437D01*
X1525D02*
X1547D01*
X1585D02*
X1607D01*
X1746D02*
X1858D01*
X1941D02*
X1963D01*
X2056D02*
X2061D01*
X2146D02*
X2169D01*
X2206D02*
X2228D01*
X2269D02*
X2291D01*
X2342D02*
X2367D01*
X2379D02*
X2401D01*
X2439D02*
X2461D01*
X2512D02*
X2537D01*
X1415Y3936D02*
X1437D01*
X1525D02*
X1547D01*
X1585D02*
X1607D01*
X1746D02*
X1858D01*
X1941D02*
X1963D01*
X2146D02*
X2169D01*
X2206D02*
X2228D01*
X2269D02*
X2291D01*
X2341D02*
X2367D01*
X2379D02*
X2401D01*
X2439D02*
X2461D01*
X2511D02*
X2536D01*
X1415Y3937D02*
X1437D01*
X1525D02*
X1547D01*
X1585D02*
X1607D01*
X1746D02*
X1858D01*
X1941D02*
X1963D01*
X2145D02*
X2169D01*
X2206D02*
X2228D01*
X2269D02*
X2291D01*
X2340D02*
X2366D01*
X2379D02*
X2401D01*
X2439D02*
X2461D01*
X2511D02*
X2536D01*
X1415Y3938D02*
X1437D01*
X1525D02*
X1547D01*
X1585D02*
X1607D01*
X1747D02*
X1857D01*
X1941D02*
X1963D01*
X2144D02*
X2169D01*
X2206D02*
X2228D01*
X2269D02*
X2291D01*
X2340D02*
X2365D01*
X2379D02*
X2401D01*
X2439D02*
X2461D01*
X2510D02*
X2535D01*
X1415Y3939D02*
X1437D01*
X1525D02*
X1547D01*
X1585D02*
X1607D01*
X1747D02*
X1857D01*
X1941D02*
X1963D01*
X2143D02*
X2169D01*
X2206D02*
X2228D01*
X2269D02*
X2291D01*
X2339D02*
X2365D01*
X2379D02*
X2401D01*
X2439D02*
X2461D01*
X2509D02*
X2534D01*
X1415Y3940D02*
X1437D01*
X1525D02*
X1547D01*
X1585D02*
X1607D01*
X1747D02*
X1857D01*
X1941D02*
X1963D01*
X2142D02*
X2168D01*
X2206D02*
X2228D01*
X2269D02*
X2291D01*
X2338D02*
X2364D01*
X2379D02*
X2401D01*
X2439D02*
X2462D01*
X2509D02*
X2534D01*
X1415Y3941D02*
X1437D01*
X1525D02*
X1547D01*
X1585D02*
X1607D01*
X1748D02*
X1856D01*
X1941D02*
X1963D01*
X2141D02*
X2168D01*
X2206D02*
X2228D01*
X2269D02*
X2291D01*
X2338D02*
X2364D01*
X2379D02*
X2401D01*
X2439D02*
X2463D01*
X2508D02*
X2533D01*
X1415Y3941D02*
X1437D01*
X1525D02*
X1547D01*
X1585D02*
X1607D01*
X1748D02*
X1856D01*
X1941D02*
X1963D01*
X2140D02*
X2168D01*
X2206D02*
X2228D01*
X2269D02*
X2291D01*
X2337D02*
X2363D01*
X2379D02*
X2401D01*
X2439D02*
X2463D01*
X2507D02*
X2532D01*
X1415Y3942D02*
X1437D01*
X1525D02*
X1547D01*
X1585D02*
X1607D01*
X1748D02*
X1855D01*
X1941D02*
X1963D01*
X2139D02*
X2168D01*
X2206D02*
X2228D01*
X2269D02*
X2291D01*
X2337D02*
X2362D01*
X2379D02*
X2401D01*
X2439D02*
X2464D01*
X2507D02*
X2532D01*
X1415Y3943D02*
X1437D01*
X1525D02*
X1547D01*
X1585D02*
X1607D01*
X1749D02*
X1855D01*
X1941D02*
X1963D01*
X2138D02*
X2167D01*
X2206D02*
X2228D01*
X2269D02*
X2291D01*
X2336D02*
X2362D01*
X2379D02*
X2401D01*
X2439D02*
X2465D01*
X2506D02*
X2531D01*
X1415Y3944D02*
X1437D01*
X1525D02*
X1547D01*
X1585D02*
X1607D01*
X1749D02*
X1855D01*
X1941D02*
X1963D01*
X2137D02*
X2167D01*
X2206D02*
X2228D01*
X2269D02*
X2291D01*
X2335D02*
X2361D01*
X2379D02*
X2401D01*
X2439D02*
X2466D01*
X2505D02*
X2530D01*
X1415Y3945D02*
X1437D01*
X1525D02*
X1547D01*
X1585D02*
X1607D01*
X1750D02*
X1854D01*
X1941D02*
X1963D01*
X2136D02*
X2166D01*
X2206D02*
X2228D01*
X2269D02*
X2291D01*
X2335D02*
X2361D01*
X2379D02*
X2401D01*
X2439D02*
X2467D01*
X2505D02*
X2530D01*
X1415Y3946D02*
X1437D01*
X1525D02*
X1547D01*
X1585D02*
X1607D01*
X1750D02*
X1854D01*
X1941D02*
X1963D01*
X2134D02*
X2166D01*
X2206D02*
X2228D01*
X2269D02*
X2291D01*
X2334D02*
X2360D01*
X2379D02*
X2401D01*
X2439D02*
X2468D01*
X2504D02*
X2529D01*
X1415Y3947D02*
X1437D01*
X1525D02*
X1547D01*
X1585D02*
X1607D01*
X1750D02*
X1853D01*
X1941D02*
X1963D01*
X2131D02*
X2165D01*
X2206D02*
X2228D01*
X2269D02*
X2291D01*
X2333D02*
X2359D01*
X2379D02*
X2401D01*
X2439D02*
X2469D01*
X2503D02*
X2528D01*
X1415Y3948D02*
X1437D01*
X1525D02*
X1547D01*
X1585D02*
X1607D01*
X1751D02*
X1853D01*
X1941D02*
X1963D01*
X2129D02*
X2165D01*
X2206D02*
X2228D01*
X2269D02*
X2291D01*
X2333D02*
X2359D01*
X2379D02*
X2401D01*
X2439D02*
X2470D01*
X2503D02*
X2528D01*
X1415Y3949D02*
X1437D01*
X1525D02*
X1547D01*
X1585D02*
X1607D01*
X1751D02*
X1774D01*
X1831D02*
X1853D01*
X1941D02*
X1963D01*
X2127D02*
X2164D01*
X2206D02*
X2228D01*
X2269D02*
X2291D01*
X2332D02*
X2358D01*
X2379D02*
X2401D01*
X2439D02*
X2471D01*
X2502D02*
X2527D01*
X1415Y3950D02*
X1437D01*
X1525D02*
X1547D01*
X1585D02*
X1607D01*
X1751D02*
X1775D01*
X1830D02*
X1852D01*
X1941D02*
X1963D01*
X2124D02*
X2164D01*
X2206D02*
X2228D01*
X2269D02*
X2291D01*
X2332D02*
X2358D01*
X2379D02*
X2401D01*
X2439D02*
X2472D01*
X2501D02*
X2526D01*
X1415Y3951D02*
X1437D01*
X1525D02*
X1547D01*
X1585D02*
X1607D01*
X1752D02*
X1775D01*
X1830D02*
X1852D01*
X1941D02*
X1963D01*
X2122D02*
X2163D01*
X2206D02*
X2228D01*
X2269D02*
X2291D01*
X2331D02*
X2357D01*
X2379D02*
X2401D01*
X2439D02*
X2473D01*
X2501D02*
X2526D01*
X1415Y3952D02*
X1437D01*
X1525D02*
X1547D01*
X1585D02*
X1607D01*
X1752D02*
X1775D01*
X1830D02*
X1852D01*
X1941D02*
X1963D01*
X2119D02*
X2163D01*
X2206D02*
X2228D01*
X2269D02*
X2291D01*
X2330D02*
X2356D01*
X2379D02*
X2401D01*
X2439D02*
X2474D01*
X2500D02*
X2525D01*
X1415Y3953D02*
X1437D01*
X1525D02*
X1547D01*
X1585D02*
X1607D01*
X1752D02*
X1776D01*
X1829D02*
X1851D01*
X1941D02*
X1963D01*
X2116D02*
X2162D01*
X2206D02*
X2228D01*
X2269D02*
X2291D01*
X2330D02*
X2356D01*
X2379D02*
X2401D01*
X2439D02*
X2475D01*
X2499D02*
X2524D01*
X1415Y3954D02*
X1437D01*
X1525D02*
X1547D01*
X1585D02*
X1607D01*
X1753D02*
X1776D01*
X1829D02*
X1851D01*
X1941D02*
X1963D01*
X2113D02*
X2162D01*
X2206D02*
X2228D01*
X2269D02*
X2291D01*
X2329D02*
X2355D01*
X2379D02*
X2401D01*
X2439D02*
X2476D01*
X2499D02*
X2524D01*
X1415Y3955D02*
X1437D01*
X1525D02*
X1547D01*
X1585D02*
X1607D01*
X1753D02*
X1777D01*
X1828D02*
X1850D01*
X1941D02*
X1963D01*
X2109D02*
X2161D01*
X2206D02*
X2228D01*
X2269D02*
X2291D01*
X2328D02*
X2355D01*
X2379D02*
X2401D01*
X2439D02*
X2477D01*
X2498D02*
X2523D01*
X1415Y3956D02*
X1437D01*
X1525D02*
X1547D01*
X1585D02*
X1607D01*
X1754D02*
X1777D01*
X1828D02*
X1850D01*
X1941D02*
X1963D01*
X2106D02*
X2160D01*
X2206D02*
X2228D01*
X2269D02*
X2291D01*
X2328D02*
X2354D01*
X2379D02*
X2401D01*
X2439D02*
X2478D01*
X2497D02*
X2522D01*
X1415Y3956D02*
X1437D01*
X1525D02*
X1547D01*
X1585D02*
X1607D01*
X1754D02*
X1777D01*
X1828D02*
X1850D01*
X1941D02*
X1963D01*
X2103D02*
X2159D01*
X2206D02*
X2228D01*
X2269D02*
X2291D01*
X2327D02*
X2353D01*
X2379D02*
X2401D01*
X2439D02*
X2478D01*
X2497D02*
X2522D01*
X1415Y3957D02*
X1437D01*
X1525D02*
X1547D01*
X1585D02*
X1607D01*
X1754D02*
X1778D01*
X1827D02*
X1849D01*
X1941D02*
X1963D01*
X2099D02*
X2157D01*
X2206D02*
X2228D01*
X2269D02*
X2291D01*
X2327D02*
X2353D01*
X2379D02*
X2401D01*
X2439D02*
X2479D01*
X2496D02*
X2521D01*
X1415Y3958D02*
X1437D01*
X1525D02*
X1547D01*
X1585D02*
X1702D01*
X1755D02*
X1778D01*
X1827D02*
X1849D01*
X1941D02*
X1963D01*
X2096D02*
X2156D01*
X2206D02*
X2228D01*
X2269D02*
X2291D01*
X2326D02*
X2352D01*
X2379D02*
X2401D01*
X2439D02*
X2480D01*
X2495D02*
X2520D01*
X1415Y3959D02*
X1437D01*
X1525D02*
X1547D01*
X1585D02*
X1702D01*
X1755D02*
X1778D01*
X1827D02*
X1848D01*
X1941D02*
X1963D01*
X2092D02*
X2155D01*
X2206D02*
X2228D01*
X2269D02*
X2291D01*
X2325D02*
X2352D01*
X2379D02*
X2401D01*
X2439D02*
X2481D01*
X2495D02*
X2520D01*
X1415Y3960D02*
X1437D01*
X1525D02*
X1547D01*
X1585D02*
X1702D01*
X1755D02*
X1779D01*
X1826D02*
X1848D01*
X1941D02*
X1963D01*
X2088D02*
X2154D01*
X2206D02*
X2228D01*
X2269D02*
X2291D01*
X2325D02*
X2351D01*
X2379D02*
X2401D01*
X2439D02*
X2482D01*
X2494D02*
X2519D01*
X1415Y3961D02*
X1547D01*
X1585D02*
X1702D01*
X1756D02*
X1779D01*
X1826D02*
X1848D01*
X1941D02*
X1963D01*
X2085D02*
X2152D01*
X2206D02*
X2228D01*
X2269D02*
X2291D01*
X2324D02*
X2350D01*
X2379D02*
X2401D01*
X2439D02*
X2483D01*
X2493D02*
X2518D01*
X1415Y3962D02*
X1547D01*
X1585D02*
X1702D01*
X1756D02*
X1779D01*
X1826D02*
X1847D01*
X1941D02*
X1963D01*
X2081D02*
X2151D01*
X2206D02*
X2228D01*
X2269D02*
X2291D01*
X2323D02*
X2350D01*
X2379D02*
X2401D01*
X2439D02*
X2484D01*
X2493D02*
X2518D01*
X1415Y3963D02*
X1547D01*
X1585D02*
X1702D01*
X1756D02*
X1780D01*
X1825D02*
X1847D01*
X1941D02*
X1963D01*
X2077D02*
X2150D01*
X2206D02*
X2228D01*
X2269D02*
X2291D01*
X2323D02*
X2349D01*
X2379D02*
X2401D01*
X2439D02*
X2485D01*
X2492D02*
X2517D01*
X1415Y3964D02*
X1547D01*
X1585D02*
X1702D01*
X1757D02*
X1780D01*
X1825D02*
X1847D01*
X1941D02*
X1963D01*
X2073D02*
X2148D01*
X2206D02*
X2228D01*
X2269D02*
X2291D01*
X2322D02*
X2348D01*
X2379D02*
X2401D01*
X2439D02*
X2486D01*
X2491D02*
X2516D01*
X1415Y3965D02*
X1547D01*
X1585D02*
X1702D01*
X1757D02*
X1780D01*
X1825D02*
X1846D01*
X1941D02*
X1963D01*
X2072D02*
X2147D01*
X2206D02*
X2228D01*
X2269D02*
X2291D01*
X2322D02*
X2348D01*
X2379D02*
X2401D01*
X2439D02*
X2487D01*
X2491D02*
X2515D01*
X1415Y3966D02*
X1547D01*
X1585D02*
X1702D01*
X1758D02*
X1781D01*
X1824D02*
X1846D01*
X1941D02*
X1963D01*
X2071D02*
X2146D01*
X2206D02*
X2228D01*
X2269D02*
X2291D01*
X2321D02*
X2347D01*
X2379D02*
X2401D01*
X2439D02*
X2488D01*
X2490D02*
X2515D01*
X1415Y3967D02*
X1547D01*
X1585D02*
X1702D01*
X1758D02*
X1781D01*
X1824D02*
X1845D01*
X1941D02*
X1963D01*
X2070D02*
X2144D01*
X2206D02*
X2228D01*
X2269D02*
X2291D01*
X2320D02*
X2347D01*
X2379D02*
X2401D01*
X2439D02*
X2489D01*
X2489D02*
X2514D01*
X1415Y3968D02*
X1547D01*
X1585D02*
X1702D01*
X1758D02*
X1781D01*
X1824D02*
X1845D01*
X1941D02*
X1963D01*
X2069D02*
X2143D01*
X2206D02*
X2228D01*
X2269D02*
X2291D01*
X2320D02*
X2346D01*
X2379D02*
X2401D01*
X2439D02*
X2461D01*
X2461D02*
X2513D01*
X1415Y3969D02*
X1547D01*
X1585D02*
X1702D01*
X1759D02*
X1782D01*
X1823D02*
X1845D01*
X1941D02*
X1963D01*
X2067D02*
X2142D01*
X2206D02*
X2228D01*
X2269D02*
X2291D01*
X2319D02*
X2345D01*
X2379D02*
X2401D01*
X2439D02*
X2461D01*
X2462D02*
X2513D01*
X1415Y3970D02*
X1547D01*
X1585D02*
X1702D01*
X1759D02*
X1782D01*
X1823D02*
X1844D01*
X1941D02*
X1963D01*
X2066D02*
X2140D01*
X2206D02*
X2228D01*
X2269D02*
X2291D01*
X2318D02*
X2345D01*
X2379D02*
X2401D01*
X2439D02*
X2461D01*
X2463D02*
X2512D01*
X1415Y3971D02*
X1547D01*
X1585D02*
X1702D01*
X1759D02*
X1783D01*
X1822D02*
X1844D01*
X1941D02*
X1963D01*
X2065D02*
X2138D01*
X2206D02*
X2228D01*
X2269D02*
X2291D01*
X2318D02*
X2344D01*
X2379D02*
X2401D01*
X2439D02*
X2461D01*
X2464D02*
X2511D01*
X1415Y3971D02*
X1547D01*
X1585D02*
X1702D01*
X1760D02*
X1783D01*
X1822D02*
X1844D01*
X1941D02*
X1963D01*
X2064D02*
X2133D01*
X2206D02*
X2228D01*
X2269D02*
X2291D01*
X2317D02*
X2344D01*
X2379D02*
X2401D01*
X2439D02*
X2461D01*
X2465D02*
X2511D01*
X1415Y3972D02*
X1547D01*
X1585D02*
X1702D01*
X1760D02*
X1783D01*
X1822D02*
X1843D01*
X1941D02*
X1963D01*
X2063D02*
X2129D01*
X2206D02*
X2228D01*
X2269D02*
X2291D01*
X2317D02*
X2343D01*
X2379D02*
X2401D01*
X2439D02*
X2461D01*
X2466D02*
X2510D01*
X1415Y3973D02*
X1547D01*
X1585D02*
X1702D01*
X1760D02*
X1784D01*
X1821D02*
X1843D01*
X1941D02*
X1963D01*
X2062D02*
X2124D01*
X2206D02*
X2228D01*
X2269D02*
X2291D01*
X2316D02*
X2342D01*
X2379D02*
X2401D01*
X2439D02*
X2461D01*
X2467D02*
X2509D01*
X1415Y3974D02*
X1547D01*
X1585D02*
X1702D01*
X1761D02*
X1784D01*
X1821D02*
X1842D01*
X1941D02*
X1963D01*
X2060D02*
X2121D01*
X2206D02*
X2228D01*
X2269D02*
X2291D01*
X2315D02*
X2342D01*
X2379D02*
X2401D01*
X2439D02*
X2461D01*
X2468D02*
X2509D01*
X1415Y3975D02*
X1547D01*
X1585D02*
X1702D01*
X1761D02*
X1784D01*
X1820D02*
X1842D01*
X1941D02*
X1963D01*
X2059D02*
X2118D01*
X2206D02*
X2228D01*
X2269D02*
X2291D01*
X2315D02*
X2341D01*
X2379D02*
X2401D01*
X2439D02*
X2461D01*
X2469D02*
X2508D01*
X1415Y3976D02*
X1547D01*
X1585D02*
X1702D01*
X1762D02*
X1785D01*
X1820D02*
X1842D01*
X1941D02*
X1963D01*
X2058D02*
X2116D01*
X2206D02*
X2228D01*
X2269D02*
X2291D01*
X2314D02*
X2341D01*
X2379D02*
X2401D01*
X2439D02*
X2461D01*
X2470D02*
X2507D01*
X1415Y3977D02*
X1547D01*
X1585D02*
X1607D01*
X1762D02*
X1785D01*
X1820D02*
X1841D01*
X1941D02*
X1963D01*
X2057D02*
X2113D01*
X2206D02*
X2228D01*
X2269D02*
X2291D01*
X2313D02*
X2340D01*
X2379D02*
X2401D01*
X2439D02*
X2461D01*
X2471D02*
X2507D01*
X1415Y3978D02*
X1547D01*
X1585D02*
X1607D01*
X1762D02*
X1785D01*
X1819D02*
X1841D01*
X1941D02*
X1963D01*
X2057D02*
X2110D01*
X2206D02*
X2228D01*
X2269D02*
X2291D01*
X2313D02*
X2339D01*
X2379D02*
X2401D01*
X2439D02*
X2461D01*
X2472D02*
X2506D01*
X1415Y3979D02*
X1547D01*
X1585D02*
X1607D01*
X1763D02*
X1786D01*
X1819D02*
X1840D01*
X1941D02*
X1963D01*
X2056D02*
X2107D01*
X2206D02*
X2228D01*
X2269D02*
X2291D01*
X2312D02*
X2339D01*
X2379D02*
X2401D01*
X2439D02*
X2461D01*
X2473D02*
X2505D01*
X1415Y3980D02*
X1437D01*
X1525D02*
X1547D01*
X1585D02*
X1607D01*
X1763D02*
X1786D01*
X1818D02*
X1840D01*
X1941D02*
X1963D01*
X2055D02*
X2104D01*
X2206D02*
X2228D01*
X2269D02*
X2291D01*
X2312D02*
X2338D01*
X2379D02*
X2401D01*
X2439D02*
X2461D01*
X2474D02*
X2505D01*
X1415Y3981D02*
X1437D01*
X1525D02*
X1547D01*
X1585D02*
X1607D01*
X1763D02*
X1786D01*
X1818D02*
X1840D01*
X1941D02*
X1963D01*
X2054D02*
X2098D01*
X2206D02*
X2228D01*
X2269D02*
X2291D01*
X2311D02*
X2338D01*
X2379D02*
X2401D01*
X2439D02*
X2461D01*
X2475D02*
X2506D01*
X1415Y3982D02*
X1437D01*
X1525D02*
X1547D01*
X1585D02*
X1607D01*
X1764D02*
X1787D01*
X1817D02*
X1839D01*
X1941D02*
X1963D01*
X2054D02*
X2092D01*
X2206D02*
X2228D01*
X2269D02*
X2291D01*
X2310D02*
X2337D01*
X2379D02*
X2401D01*
X2439D02*
X2461D01*
X2476D02*
X2507D01*
X1415Y3983D02*
X1437D01*
X1525D02*
X1547D01*
X1585D02*
X1607D01*
X1764D02*
X1787D01*
X1817D02*
X1839D01*
X1941D02*
X1963D01*
X2053D02*
X2087D01*
X2206D02*
X2228D01*
X2269D02*
X2291D01*
X2310D02*
X2336D01*
X2379D02*
X2401D01*
X2439D02*
X2461D01*
X2477D02*
X2508D01*
X1415Y3984D02*
X1437D01*
X1525D02*
X1547D01*
X1585D02*
X1607D01*
X1764D02*
X1787D01*
X1816D02*
X1839D01*
X1941D02*
X1963D01*
X2052D02*
X2084D01*
X2206D02*
X2228D01*
X2269D02*
X2291D01*
X2309D02*
X2336D01*
X2379D02*
X2401D01*
X2439D02*
X2461D01*
X2478D02*
X2509D01*
X1415Y3985D02*
X1437D01*
X1525D02*
X1547D01*
X1585D02*
X1607D01*
X1765D02*
X1788D01*
X1816D02*
X1838D01*
X1941D02*
X1963D01*
X2052D02*
X2083D01*
X2206D02*
X2228D01*
X2269D02*
X2291D01*
X2308D02*
X2335D01*
X2379D02*
X2401D01*
X2439D02*
X2461D01*
X2479D02*
X2510D01*
X1415Y3986D02*
X1437D01*
X1525D02*
X1547D01*
X1585D02*
X1607D01*
X1765D02*
X1788D01*
X1815D02*
X1838D01*
X1941D02*
X1963D01*
X2051D02*
X2081D01*
X2206D02*
X2228D01*
X2269D02*
X2291D01*
X2308D02*
X2335D01*
X2379D02*
X2401D01*
X2439D02*
X2461D01*
X2480D02*
X2511D01*
X1415Y3986D02*
X1437D01*
X1525D02*
X1547D01*
X1585D02*
X1607D01*
X1766D02*
X1788D01*
X1815D02*
X1837D01*
X1941D02*
X1963D01*
X2050D02*
X2079D01*
X2206D02*
X2228D01*
X2269D02*
X2291D01*
X2307D02*
X2334D01*
X2379D02*
X2401D01*
X2439D02*
X2461D01*
X2481D02*
X2512D01*
X1415Y3987D02*
X1437D01*
X1525D02*
X1547D01*
X1585D02*
X1607D01*
X1766D02*
X1789D01*
X1814D02*
X1837D01*
X1941D02*
X1963D01*
X2049D02*
X2077D01*
X2206D02*
X2228D01*
X2269D02*
X2291D01*
X2307D02*
X2333D01*
X2379D02*
X2401D01*
X2439D02*
X2461D01*
X2482D02*
X2513D01*
X1415Y3988D02*
X1437D01*
X1525D02*
X1547D01*
X1585D02*
X1607D01*
X1766D02*
X1789D01*
X1814D02*
X1837D01*
X1941D02*
X1963D01*
X2049D02*
X2075D01*
X2206D02*
X2228D01*
X2269D02*
X2291D01*
X2306D02*
X2333D01*
X2379D02*
X2401D01*
X2439D02*
X2461D01*
X2483D02*
X2513D01*
X1415Y3989D02*
X1437D01*
X1525D02*
X1547D01*
X1585D02*
X1607D01*
X1767D02*
X1790D01*
X1813D02*
X1836D01*
X1941D02*
X1963D01*
X2048D02*
X2073D01*
X2206D02*
X2228D01*
X2269D02*
X2291D01*
X2305D02*
X2332D01*
X2379D02*
X2401D01*
X2439D02*
X2461D01*
X2484D02*
X2514D01*
X1415Y3990D02*
X1437D01*
X1525D02*
X1547D01*
X1585D02*
X1607D01*
X1767D02*
X1790D01*
X1813D02*
X1836D01*
X1941D02*
X1963D01*
X2048D02*
X2073D01*
X2206D02*
X2228D01*
X2269D02*
X2291D01*
X2305D02*
X2332D01*
X2379D02*
X2401D01*
X2439D02*
X2461D01*
X2485D02*
X2515D01*
X1415Y3991D02*
X1437D01*
X1525D02*
X1547D01*
X1585D02*
X1607D01*
X1767D02*
X1790D01*
X1813D02*
X1836D01*
X1941D02*
X1963D01*
X2048D02*
X2072D01*
X2206D02*
X2228D01*
X2269D02*
X2291D01*
X2304D02*
X2331D01*
X2379D02*
X2401D01*
X2439D02*
X2461D01*
X2486D02*
X2516D01*
X1415Y3992D02*
X1437D01*
X1525D02*
X1547D01*
X1585D02*
X1607D01*
X1768D02*
X1791D01*
X1812D02*
X1835D01*
X1941D02*
X1963D01*
X2048D02*
X2072D01*
X2206D02*
X2228D01*
X2269D02*
X2291D01*
X2303D02*
X2330D01*
X2379D02*
X2401D01*
X2439D02*
X2461D01*
X2487D02*
X2517D01*
X1415Y3993D02*
X1437D01*
X1525D02*
X1547D01*
X1585D02*
X1607D01*
X1768D02*
X1791D01*
X1812D02*
X1835D01*
X1941D02*
X1963D01*
X2047D02*
X2071D01*
X2206D02*
X2228D01*
X2269D02*
X2291D01*
X2303D02*
X2330D01*
X2379D02*
X2401D01*
X2439D02*
X2461D01*
X2488D02*
X2518D01*
X1415Y3994D02*
X1437D01*
X1525D02*
X1547D01*
X1585D02*
X1607D01*
X1768D02*
X1791D01*
X1812D02*
X1834D01*
X1941D02*
X1963D01*
X2047D02*
X2071D01*
X2206D02*
X2228D01*
X2269D02*
X2291D01*
X2302D02*
X2329D01*
X2379D02*
X2401D01*
X2439D02*
X2461D01*
X2489D02*
X2519D01*
X1415Y3995D02*
X1437D01*
X1525D02*
X1547D01*
X1585D02*
X1607D01*
X1769D02*
X1792D01*
X1811D02*
X1834D01*
X1941D02*
X1963D01*
X2047D02*
X2070D01*
X2206D02*
X2228D01*
X2269D02*
X2291D01*
X2302D02*
X2329D01*
X2379D02*
X2401D01*
X2439D02*
X2461D01*
X2490D02*
X2520D01*
X1415Y3996D02*
X1437D01*
X1525D02*
X1547D01*
X1585D02*
X1607D01*
X1769D02*
X1792D01*
X1811D02*
X1834D01*
X1941D02*
X1963D01*
X2047D02*
X2070D01*
X2206D02*
X2228D01*
X2269D02*
X2291D01*
X2301D02*
X2328D01*
X2379D02*
X2401D01*
X2439D02*
X2461D01*
X2491D02*
X2521D01*
X1415Y3997D02*
X1437D01*
X1525D02*
X1547D01*
X1585D02*
X1607D01*
X1770D02*
X1792D01*
X1811D02*
X1833D01*
X1941D02*
X1963D01*
X2047D02*
X2070D01*
X2206D02*
X2228D01*
X2269D02*
X2291D01*
X2300D02*
X2327D01*
X2379D02*
X2401D01*
X2439D02*
X2461D01*
X2492D02*
X2522D01*
X1415Y3998D02*
X1437D01*
X1525D02*
X1547D01*
X1585D02*
X1607D01*
X1770D02*
X1793D01*
X1811D02*
X1833D01*
X1941D02*
X1963D01*
X2046D02*
X2070D01*
X2206D02*
X2228D01*
X2269D02*
X2291D01*
X2300D02*
X2327D01*
X2379D02*
X2401D01*
X2439D02*
X2461D01*
X2493D02*
X2523D01*
X1415Y3999D02*
X1437D01*
X1525D02*
X1547D01*
X1585D02*
X1607D01*
X1770D02*
X1793D01*
X1810D02*
X1832D01*
X1941D02*
X1963D01*
X2046D02*
X2069D01*
X2143D02*
X2143D01*
X2206D02*
X2228D01*
X2269D02*
X2291D01*
X2299D02*
X2326D01*
X2379D02*
X2401D01*
X2439D02*
X2461D01*
X2494D02*
X2524D01*
X1415Y4000D02*
X1437D01*
X1525D02*
X1547D01*
X1585D02*
X1607D01*
X1771D02*
X1793D01*
X1810D02*
X1832D01*
X1941D02*
X1963D01*
X2046D02*
X2069D01*
X2142D02*
X2149D01*
X2206D02*
X2228D01*
X2269D02*
X2291D01*
X2298D02*
X2326D01*
X2379D02*
X2401D01*
X2439D02*
X2461D01*
X2494D02*
X2525D01*
X1415Y4001D02*
X1437D01*
X1525D02*
X1547D01*
X1585D02*
X1607D01*
X1771D02*
X1793D01*
X1810D02*
X1832D01*
X1941D02*
X1963D01*
X2046D02*
X2069D01*
X2142D02*
X2156D01*
X2206D02*
X2228D01*
X2269D02*
X2291D01*
X2298D02*
X2325D01*
X2379D02*
X2401D01*
X2439D02*
X2461D01*
X2495D02*
X2526D01*
X1415Y4001D02*
X1437D01*
X1525D02*
X1547D01*
X1585D02*
X1607D01*
X1771D02*
X1794D01*
X1810D02*
X1831D01*
X1941D02*
X1963D01*
X2046D02*
X2069D01*
X2142D02*
X2163D01*
X2206D02*
X2228D01*
X2269D02*
X2291D01*
X2297D02*
X2324D01*
X2379D02*
X2401D01*
X2439D02*
X2461D01*
X2496D02*
X2527D01*
X1415Y4002D02*
X1437D01*
X1525D02*
X1547D01*
X1585D02*
X1607D01*
X1772D02*
X1794D01*
X1809D02*
X1831D01*
X1941D02*
X1963D01*
X2046D02*
X2068D01*
X2142D02*
X2164D01*
X2206D02*
X2228D01*
X2269D02*
X2291D01*
X2297D02*
X2324D01*
X2379D02*
X2401D01*
X2439D02*
X2461D01*
X2497D02*
X2528D01*
X1415Y4003D02*
X1437D01*
X1525D02*
X1547D01*
X1585D02*
X1607D01*
X1772D02*
X1794D01*
X1809D02*
X1831D01*
X1941D02*
X1963D01*
X2045D02*
X2068D01*
X2142D02*
X2164D01*
X2206D02*
X2228D01*
X2269D02*
X2291D01*
X2296D02*
X2323D01*
X2379D02*
X2401D01*
X2439D02*
X2461D01*
X2498D02*
X2528D01*
X1415Y4004D02*
X1437D01*
X1525D02*
X1547D01*
X1585D02*
X1607D01*
X1773D02*
X1794D01*
X1809D02*
X1830D01*
X1941D02*
X1963D01*
X2045D02*
X2068D01*
X2142D02*
X2164D01*
X2206D02*
X2228D01*
X2269D02*
X2291D01*
X2295D02*
X2323D01*
X2379D02*
X2401D01*
X2439D02*
X2461D01*
X2499D02*
X2529D01*
X1415Y4005D02*
X1437D01*
X1525D02*
X1547D01*
X1585D02*
X1607D01*
X1773D02*
X1794D01*
X1809D02*
X1830D01*
X1941D02*
X1963D01*
X2045D02*
X2068D01*
X2141D02*
X2164D01*
X2206D02*
X2228D01*
X2269D02*
X2291D01*
X2295D02*
X2322D01*
X2379D02*
X2401D01*
X2439D02*
X2461D01*
X2500D02*
X2530D01*
X1415Y4006D02*
X1437D01*
X1525D02*
X1547D01*
X1585D02*
X1607D01*
X1773D02*
X1795D01*
X1808D02*
X1829D01*
X1941D02*
X1963D01*
X2045D02*
X2068D01*
X2141D02*
X2163D01*
X2206D02*
X2228D01*
X2269D02*
X2291D01*
X2294D02*
X2321D01*
X2379D02*
X2401D01*
X2439D02*
X2461D01*
X2501D02*
X2531D01*
X1415Y4007D02*
X1437D01*
X1525D02*
X1547D01*
X1585D02*
X1607D01*
X1774D02*
X1795D01*
X1808D02*
X1829D01*
X1941D02*
X1963D01*
X2045D02*
X2067D01*
X2141D02*
X2163D01*
X2206D02*
X2228D01*
X2269D02*
X2291D01*
X2293D02*
X2321D01*
X2379D02*
X2401D01*
X2439D02*
X2461D01*
X2502D02*
X2532D01*
X1415Y4008D02*
X1437D01*
X1525D02*
X1547D01*
X1585D02*
X1607D01*
X1774D02*
X1795D01*
X1807D02*
X1829D01*
X1941D02*
X1963D01*
X2046D02*
X2067D01*
X2141D02*
X2163D01*
X2206D02*
X2228D01*
X2269D02*
X2291D01*
X2293D02*
X2320D01*
X2379D02*
X2401D01*
X2439D02*
X2461D01*
X2503D02*
X2533D01*
X1415Y4009D02*
X1437D01*
X1525D02*
X1547D01*
X1585D02*
X1607D01*
X1774D02*
X1795D01*
X1807D02*
X1828D01*
X1941D02*
X1963D01*
X2046D02*
X2067D01*
X2141D02*
X2162D01*
X2206D02*
X2228D01*
X2269D02*
X2291D01*
X2292D02*
X2320D01*
X2379D02*
X2401D01*
X2439D02*
X2461D01*
X2504D02*
X2534D01*
X1415Y4010D02*
X1437D01*
X1525D02*
X1547D01*
X1585D02*
X1607D01*
X1775D02*
X1795D01*
X1806D02*
X1828D01*
X1941D02*
X1963D01*
X2046D02*
X2068D01*
X2140D02*
X2162D01*
X2206D02*
X2228D01*
X2269D02*
X2291D01*
X2292D02*
X2319D01*
X2379D02*
X2401D01*
X2439D02*
X2461D01*
X2505D02*
X2535D01*
X1415Y4011D02*
X1437D01*
X1525D02*
X1547D01*
X1585D02*
X1607D01*
X1775D02*
X1795D01*
X1806D02*
X1828D01*
X1941D02*
X1963D01*
X2046D02*
X2068D01*
X2140D02*
X2162D01*
X2206D02*
X2228D01*
X2269D02*
X2291D01*
X2291D02*
X2318D01*
X2379D02*
X2401D01*
X2439D02*
X2461D01*
X2506D02*
X2536D01*
X1415Y4012D02*
X1437D01*
X1525D02*
X1547D01*
X1585D02*
X1607D01*
X1775D02*
X1796D01*
X1806D02*
X1827D01*
X1941D02*
X1963D01*
X2046D02*
X2068D01*
X2140D02*
X2161D01*
X2206D02*
X2228D01*
X2269D02*
X2318D01*
X2379D02*
X2401D01*
X2439D02*
X2461D01*
X2507D02*
X2537D01*
X1415Y4013D02*
X1437D01*
X1525D02*
X1547D01*
X1585D02*
X1607D01*
X1776D02*
X1796D01*
X1805D02*
X1827D01*
X1941D02*
X1963D01*
X2046D02*
X2069D01*
X2140D02*
X2161D01*
X2206D02*
X2228D01*
X2269D02*
X2317D01*
X2379D02*
X2401D01*
X2439D02*
X2461D01*
X2508D02*
X2538D01*
X1415Y4014D02*
X1437D01*
X1525D02*
X1547D01*
X1585D02*
X1607D01*
X1776D02*
X1796D01*
X1805D02*
X1826D01*
X1941D02*
X1963D01*
X2046D02*
X2069D01*
X2140D02*
X2161D01*
X2206D02*
X2228D01*
X2269D02*
X2317D01*
X2379D02*
X2401D01*
X2439D02*
X2461D01*
X2509D02*
X2539D01*
X1415Y4015D02*
X1437D01*
X1525D02*
X1547D01*
X1585D02*
X1607D01*
X1777D02*
X1796D01*
X1805D02*
X1826D01*
X1941D02*
X1963D01*
X2047D02*
X2069D01*
X2139D02*
X2160D01*
X2206D02*
X2228D01*
X2269D02*
X2316D01*
X2379D02*
X2401D01*
X2439D02*
X2461D01*
X2510D02*
X2540D01*
X1415Y4016D02*
X1437D01*
X1525D02*
X1547D01*
X1585D02*
X1607D01*
X1777D02*
X1796D01*
X1805D02*
X1826D01*
X1941D02*
X1963D01*
X2047D02*
X2070D01*
X2139D02*
X2160D01*
X2206D02*
X2228D01*
X2269D02*
X2315D01*
X2379D02*
X2401D01*
X2439D02*
X2461D01*
X2511D02*
X2541D01*
X1415Y4016D02*
X1437D01*
X1525D02*
X1547D01*
X1585D02*
X1607D01*
X1777D02*
X1797D01*
X1805D02*
X1825D01*
X1941D02*
X1963D01*
X2047D02*
X2070D01*
X2138D02*
X2160D01*
X2206D02*
X2228D01*
X2269D02*
X2315D01*
X2379D02*
X2401D01*
X2439D02*
X2461D01*
X2512D02*
X2542D01*
X1415Y4017D02*
X1437D01*
X1525D02*
X1547D01*
X1585D02*
X1607D01*
X1778D02*
X1797D01*
X1805D02*
X1825D01*
X1941D02*
X1963D01*
X2047D02*
X2070D01*
X2137D02*
X2159D01*
X2206D02*
X2228D01*
X2269D02*
X2314D01*
X2379D02*
X2401D01*
X2439D02*
X2461D01*
X2513D02*
X2543D01*
X1415Y4018D02*
X1437D01*
X1525D02*
X1547D01*
X1585D02*
X1607D01*
X1778D02*
X1797D01*
X1804D02*
X1824D01*
X1941D02*
X1963D01*
X2047D02*
X2071D01*
X2137D02*
X2159D01*
X2206D02*
X2228D01*
X2269D02*
X2314D01*
X2379D02*
X2401D01*
X2439D02*
X2461D01*
X2514D02*
X2543D01*
X1415Y4019D02*
X1437D01*
X1525D02*
X1547D01*
X1585D02*
X1607D01*
X1778D02*
X1797D01*
X1804D02*
X1824D01*
X1941D02*
X1963D01*
X2047D02*
X2071D01*
X2136D02*
X2159D01*
X2206D02*
X2228D01*
X2269D02*
X2313D01*
X2379D02*
X2401D01*
X2439D02*
X2461D01*
X2515D02*
X2544D01*
X1415Y4020D02*
X1437D01*
X1525D02*
X1547D01*
X1585D02*
X1607D01*
X1779D02*
X1797D01*
X1804D02*
X1824D01*
X1941D02*
X1963D01*
X2048D02*
X2072D01*
X2136D02*
X2159D01*
X2206D02*
X2228D01*
X2269D02*
X2312D01*
X2379D02*
X2401D01*
X2439D02*
X2461D01*
X2516D02*
X2545D01*
X1415Y4021D02*
X1437D01*
X1525D02*
X1547D01*
X1585D02*
X1607D01*
X1779D02*
X1798D01*
X1804D02*
X1823D01*
X1941D02*
X1963D01*
X2048D02*
X2073D01*
X2135D02*
X2158D01*
X2206D02*
X2228D01*
X2269D02*
X2312D01*
X2379D02*
X2401D01*
X2439D02*
X2461D01*
X2517D02*
X2546D01*
X1415Y4022D02*
X1437D01*
X1525D02*
X1547D01*
X1585D02*
X1607D01*
X1779D02*
X1798D01*
X1804D02*
X1823D01*
X1941D02*
X1963D01*
X2048D02*
X2073D01*
X2134D02*
X2157D01*
X2206D02*
X2228D01*
X2269D02*
X2311D01*
X2379D02*
X2401D01*
X2439D02*
X2461D01*
X2518D02*
X2547D01*
X1415Y4023D02*
X1437D01*
X1525D02*
X1547D01*
X1585D02*
X1607D01*
X1780D02*
X1798D01*
X1804D02*
X1823D01*
X1941D02*
X1963D01*
X2048D02*
X2074D01*
X2134D02*
X2157D01*
X2206D02*
X2228D01*
X2269D02*
X2311D01*
X2379D02*
X2401D01*
X2439D02*
X2461D01*
X2519D02*
X2548D01*
X1415Y4024D02*
X1437D01*
X1525D02*
X1547D01*
X1585D02*
X1607D01*
X1780D02*
X1798D01*
X1804D02*
X1822D01*
X1941D02*
X1963D01*
X2048D02*
X2075D01*
X2133D02*
X2156D01*
X2206D02*
X2228D01*
X2269D02*
X2310D01*
X2379D02*
X2401D01*
X2439D02*
X2461D01*
X2520D02*
X2549D01*
X1415Y4025D02*
X1437D01*
X1525D02*
X1547D01*
X1585D02*
X1607D01*
X1781D02*
X1798D01*
X1803D02*
X1822D01*
X1941D02*
X1963D01*
X2049D02*
X2075D01*
X2131D02*
X2156D01*
X2206D02*
X2228D01*
X2269D02*
X2309D01*
X2379D02*
X2401D01*
X2439D02*
X2461D01*
X2521D02*
X2550D01*
X1415Y4026D02*
X1437D01*
X1525D02*
X1547D01*
X1585D02*
X1607D01*
X1781D02*
X1798D01*
X1803D02*
X1821D01*
X1941D02*
X1963D01*
X2050D02*
X2076D01*
X2129D02*
X2155D01*
X2206D02*
X2228D01*
X2269D02*
X2309D01*
X2379D02*
X2401D01*
X2439D02*
X2461D01*
X2522D02*
X2551D01*
X1415Y4027D02*
X1437D01*
X1525D02*
X1547D01*
X1585D02*
X1607D01*
X1781D02*
X1799D01*
X1803D02*
X1821D01*
X1941D02*
X1963D01*
X2051D02*
X2076D01*
X2127D02*
X2154D01*
X2206D02*
X2228D01*
X2269D02*
X2308D01*
X2379D02*
X2401D01*
X2439D02*
X2461D01*
X2523D02*
X2552D01*
X1415Y4028D02*
X1437D01*
X1525D02*
X1547D01*
X1585D02*
X1607D01*
X1782D02*
X1799D01*
X1803D02*
X1821D01*
X1941D02*
X1963D01*
X2051D02*
X2079D01*
X2125D02*
X2154D01*
X2206D02*
X2228D01*
X2269D02*
X2308D01*
X2379D02*
X2401D01*
X2439D02*
X2461D01*
X2524D02*
X2553D01*
X1415Y4029D02*
X1437D01*
X1525D02*
X1547D01*
X1585D02*
X1607D01*
X1782D02*
X1799D01*
X1803D02*
X1820D01*
X1941D02*
X1963D01*
X2052D02*
X2083D01*
X2124D02*
X2153D01*
X2206D02*
X2228D01*
X2269D02*
X2307D01*
X2379D02*
X2401D01*
X2439D02*
X2461D01*
X2525D02*
X2554D01*
X1415Y4030D02*
X1437D01*
X1525D02*
X1547D01*
X1585D02*
X1607D01*
X1782D02*
X1799D01*
X1803D02*
X1820D01*
X1941D02*
X1963D01*
X2053D02*
X2087D01*
X2122D02*
X2152D01*
X2206D02*
X2228D01*
X2269D02*
X2306D01*
X2379D02*
X2401D01*
X2439D02*
X2461D01*
X2526D02*
X2555D01*
X1415Y4031D02*
X1437D01*
X1525D02*
X1547D01*
X1585D02*
X1708D01*
X1783D02*
X1819D01*
X1884D02*
X2020D01*
X2054D02*
X2091D01*
X2119D02*
X2152D01*
X2206D02*
X2228D01*
X2269D02*
X2306D01*
X2379D02*
X2401D01*
X2439D02*
X2461D01*
X2527D02*
X2556D01*
X1415Y4031D02*
X1437D01*
X1525D02*
X1547D01*
X1585D02*
X1708D01*
X1783D02*
X1819D01*
X1884D02*
X2020D01*
X2054D02*
X2096D01*
X2114D02*
X2151D01*
X2206D02*
X2228D01*
X2269D02*
X2305D01*
X2379D02*
X2401D01*
X2439D02*
X2461D01*
X2528D02*
X2557D01*
X1415Y4032D02*
X1437D01*
X1525D02*
X1547D01*
X1585D02*
X1708D01*
X1783D02*
X1819D01*
X1884D02*
X2020D01*
X2055D02*
X2100D01*
X2109D02*
X2151D01*
X2206D02*
X2228D01*
X2269D02*
X2305D01*
X2379D02*
X2401D01*
X2439D02*
X2461D01*
X2529D02*
X2558D01*
X1415Y4033D02*
X1437D01*
X1525D02*
X1547D01*
X1585D02*
X1708D01*
X1784D02*
X1818D01*
X1884D02*
X2020D01*
X2056D02*
X2150D01*
X2206D02*
X2228D01*
X2269D02*
X2304D01*
X2379D02*
X2401D01*
X2439D02*
X2461D01*
X2530D02*
X2558D01*
X1415Y4034D02*
X1437D01*
X1525D02*
X1547D01*
X1585D02*
X1708D01*
X1784D02*
X1818D01*
X1884D02*
X2020D01*
X2057D02*
X2149D01*
X2206D02*
X2228D01*
X2269D02*
X2303D01*
X2379D02*
X2401D01*
X2439D02*
X2461D01*
X2530D02*
X2559D01*
X1415Y4035D02*
X1437D01*
X1525D02*
X1547D01*
X1585D02*
X1708D01*
X1785D02*
X1818D01*
X1884D02*
X2020D01*
X2057D02*
X2149D01*
X2206D02*
X2228D01*
X2269D02*
X2303D01*
X2379D02*
X2401D01*
X2439D02*
X2461D01*
X2531D02*
X2560D01*
X1415Y4036D02*
X1437D01*
X1525D02*
X1547D01*
X1585D02*
X1708D01*
X1785D02*
X1817D01*
X1884D02*
X2020D01*
X2058D02*
X2148D01*
X2206D02*
X2228D01*
X2269D02*
X2302D01*
X2379D02*
X2401D01*
X2439D02*
X2461D01*
X2532D02*
X2561D01*
X1415Y4037D02*
X1437D01*
X1525D02*
X1547D01*
X1585D02*
X1708D01*
X1785D02*
X1817D01*
X1884D02*
X2020D01*
X2059D02*
X2147D01*
X2206D02*
X2228D01*
X2269D02*
X2302D01*
X2379D02*
X2401D01*
X2439D02*
X2461D01*
X2533D02*
X2562D01*
X1415Y4038D02*
X1437D01*
X1525D02*
X1547D01*
X1585D02*
X1708D01*
X1786D02*
X1816D01*
X1884D02*
X2020D01*
X2060D02*
X2147D01*
X2206D02*
X2228D01*
X2269D02*
X2301D01*
X2379D02*
X2401D01*
X2439D02*
X2461D01*
X2534D02*
X2563D01*
X1415Y4039D02*
X1437D01*
X1525D02*
X1547D01*
X1585D02*
X1708D01*
X1786D02*
X1816D01*
X1884D02*
X2020D01*
X2060D02*
X2146D01*
X2206D02*
X2228D01*
X2269D02*
X2300D01*
X2379D02*
X2401D01*
X2439D02*
X2461D01*
X2535D02*
X2564D01*
X1415Y4040D02*
X1437D01*
X1525D02*
X1547D01*
X1585D02*
X1708D01*
X1786D02*
X1816D01*
X1884D02*
X2020D01*
X2061D02*
X2145D01*
X2206D02*
X2228D01*
X2269D02*
X2300D01*
X2379D02*
X2401D01*
X2439D02*
X2461D01*
X2536D02*
X2565D01*
X1415Y4041D02*
X1437D01*
X1525D02*
X1547D01*
X1585D02*
X1708D01*
X1787D02*
X1815D01*
X1884D02*
X2020D01*
X2063D02*
X2143D01*
X2206D02*
X2228D01*
X2269D02*
X2299D01*
X2379D02*
X2401D01*
X2439D02*
X2461D01*
X2537D02*
X2566D01*
X1415Y4042D02*
X1437D01*
X1525D02*
X1547D01*
X1585D02*
X1708D01*
X1787D02*
X1815D01*
X1884D02*
X2020D01*
X2065D02*
X2141D01*
X2206D02*
X2228D01*
X2269D02*
X2299D01*
X2379D02*
X2401D01*
X2439D02*
X2461D01*
X2538D02*
X2567D01*
X1415Y4043D02*
X1437D01*
X1525D02*
X1547D01*
X1585D02*
X1708D01*
X1787D02*
X1815D01*
X1884D02*
X2020D01*
X2067D02*
X2140D01*
X2206D02*
X2228D01*
X2269D02*
X2298D01*
X2379D02*
X2401D01*
X2439D02*
X2461D01*
X2539D02*
X2568D01*
X1415Y4044D02*
X1437D01*
X1525D02*
X1547D01*
X1585D02*
X1708D01*
X1788D02*
X1814D01*
X1884D02*
X2020D01*
X2069D02*
X2138D01*
X2206D02*
X2228D01*
X2269D02*
X2297D01*
X2379D02*
X2401D01*
X2439D02*
X2461D01*
X2540D02*
X2569D01*
X1415Y4045D02*
X1437D01*
X1525D02*
X1547D01*
X1585D02*
X1708D01*
X1788D02*
X1814D01*
X1884D02*
X2020D01*
X2071D02*
X2136D01*
X2206D02*
X2228D01*
X2269D02*
X2297D01*
X2379D02*
X2401D01*
X2439D02*
X2461D01*
X2541D02*
X2570D01*
X1415Y4045D02*
X1437D01*
X1525D02*
X1547D01*
X1585D02*
X1708D01*
X1789D02*
X1813D01*
X1884D02*
X2020D01*
X2073D02*
X2134D01*
X2206D02*
X2228D01*
X2269D02*
X2296D01*
X2379D02*
X2401D01*
X2439D02*
X2461D01*
X2542D02*
X2571D01*
X1415Y4046D02*
X1437D01*
X1525D02*
X1547D01*
X1585D02*
X1708D01*
X1789D02*
X1813D01*
X1884D02*
X2020D01*
X2075D02*
X2132D01*
X2206D02*
X2228D01*
X2269D02*
X2295D01*
X2379D02*
X2401D01*
X2439D02*
X2461D01*
X2543D02*
X2572D01*
X1415Y4047D02*
X1437D01*
X1525D02*
X1547D01*
X1585D02*
X1708D01*
X1789D02*
X1813D01*
X1884D02*
X2020D01*
X2076D02*
X2130D01*
X2206D02*
X2228D01*
X2269D02*
X2295D01*
X2379D02*
X2401D01*
X2439D02*
X2461D01*
X2544D02*
X2573D01*
X1415Y4048D02*
X1437D01*
X1525D02*
X1547D01*
X1585D02*
X1708D01*
X1790D02*
X1812D01*
X1884D02*
X2020D01*
X2078D02*
X2128D01*
X2206D02*
X2228D01*
X2269D02*
X2294D01*
X2379D02*
X2401D01*
X2439D02*
X2461D01*
X2545D02*
X2573D01*
X2081Y4049D02*
X2125D01*
X2088Y4050D02*
X2117D01*
X2094Y4051D02*
X2110D01*
X2101Y4052D02*
X2102D01*
X2210Y1352D02*
Y1337D01*
X2200*
Y1352*
X2210*
D02*
D12*
X1712Y3305D02*
X1844D01*
Y3004*
X1712*
Y3305*
X1909D02*
X2041D01*
Y3004*
X1909*
Y3305*
X2106D02*
X2238D01*
Y3004*
X2106*
Y3305*
X2303D02*
X2435D01*
Y3004*
X2303*
Y3305*
X2499D02*
X2631D01*
Y3004*
X2499*
Y3305*
X2696D02*
X2828D01*
Y3004*
X2696*
Y3305*
X2893D02*
X3025D01*
Y3004*
X2893*
Y3305*
X3090D02*
X3222D01*
Y3004*
X3090*
Y3305*
X3287D02*
X3419D01*
Y3004*
X3287*
Y3305*
X3484D02*
X3616D01*
Y3004*
X3484*
Y3305*
D02*
D13*
X273Y2419D02*
Y2619D01*
X173*
Y2419*
X273*
X850Y959D02*
X1350D01*
Y1059*
X850*
Y959*
X2558Y911D02*
Y1606D01*
X2608Y1656*
X3303*
Y911*
X2558*
Y1481D02*
G75*
G03X2578I10D01*
G01*
G75*
G03X2558I-10*
G01*
X3701Y3256D02*
Y3056D01*
X3801*
Y3256*
X3701*
X3757Y2502D02*
Y2702D01*
X3657*
Y2502*
X3757*
D02*
D14*
X1175Y3841D02*
X1192D01*
X1178Y3914D02*
G75*
G03X1189I5J11D01*
G01*
X1192Y3924D02*
X1175D01*
X1210Y3877D02*
Y3888D01*
X1265Y1240D02*
X1355D01*
X1298Y1581D02*
G75*
G03X1322I12D01*
G01*
X1355D02*
X1265D01*
X2013Y1224D02*
X2103D01*
X2046Y1565D02*
G75*
G03X2070I12D01*
G01*
X2103D02*
X2013D01*
X2750Y3841D02*
X2767D01*
X2753Y3914D02*
G75*
G03X2764I5J11D01*
G01*
X2767Y3924D02*
X2750D01*
X2785Y3877D02*
Y3888D01*
D02*
D15*
X1132Y3972D02*
X1157D01*
X1138Y3960D02*
X1151Y3985D01*
X1138D02*
X1151Y3960D01*
X1207Y1649D02*
X1232D01*
X1213Y1637D02*
X1225Y1662D01*
X1213D02*
X1225Y1637D01*
X1955Y1634D02*
X1980D01*
X1961Y1621D02*
X1973Y1646D01*
X1961D02*
X1973Y1621D01*
X2707Y3972D02*
X2732D01*
X2713Y3960D02*
X2726Y3985D01*
X2713D02*
X2726Y3960D01*
D02*
D16*
X1421Y2864D02*
X1521D01*
Y2814*
X1421*
Y2864*
Y3114D02*
X1521D01*
Y2814*
X1421*
Y3114*
X1471Y2814D02*
Y2789D01*
Y3139D02*
Y3114D01*
X3185Y2737D02*
X3160D01*
X3235Y2787D02*
Y2687D01*
X3185*
Y2787*
X3235*
X3485D02*
Y2687D01*
X3185*
Y2787*
X3485*
X3510Y2737D02*
X3485D01*
X0Y0D02*
M02*
